<svg width="171" height="249" viewBox="0 0 171 249" fill="none" xmlns="http://www.w3.org/2000/svg">
<path d="M84.9599 248.4C67.4399 248.4 52.3199 245.04 39.5999 238.32C26.8799 231.36 17.1599 221.76 10.4399 209.52C3.71994 197.28 0.239939 183.12 -6.10352e-05 167.04H11.8799C12.8399 178.56 16.0799 189.24 21.5999 199.08C27.1199 208.92 34.7999 216.84 44.6399 222.84C54.7199 228.6 66.8399 231.48 80.9999 231.48C95.3999 231.48 107.52 228.6 117.36 222.84C127.2 216.84 134.64 208.8 139.68 198.72C144.72 188.64 147.24 177.24 147.24 164.52C147.24 152.04 144.48 141 138.96 131.4C133.44 121.8 125.88 114.24 116.28 108.72C106.68 103.2 95.6399 100.44 83.1599 100.44C68.5199 100.44 55.9199 103.8 45.3599 110.52C35.0399 117.24 26.7599 125.16 20.5199 134.28L16.1999 125.64C20.5199 117.96 25.9199 111 32.3999 104.76C39.1199 98.28 47.2799 93.24 56.8799 89.64C66.4799 85.8 77.6399 83.88 90.3599 83.88C105 83.88 118.32 87.12 130.32 93.6C142.32 99.84 151.92 108.96 159.12 120.96C166.56 132.72 170.28 147.12 170.28 164.16C170.28 180.96 166.8 195.72 159.84 208.44C152.88 220.92 143.04 230.76 130.32 237.96C117.84 244.92 102.72 248.4 84.9599 248.4ZM6.47994 134.28L18.3599 0H31.6799L20.5199 126.72V134.28H6.47994ZM28.0799 18L18.3599 0H158.4V18H28.0799ZM145.08 41.04C145.08 31.92 143.52 25.8 140.4 22.68C137.52 19.56 131.28 18 121.68 18H158.4V56.52H145.08V41.04Z" fill="#FF9063"/>
</svg>
