<svg width="16" height="16" viewBox="0 0 16 16" fill="none" xmlns="http://www.w3.org/2000/svg">
<path fill-rule="evenodd" clip-rule="evenodd" d="M9.26644 3.59957C9.4617 3.40431 9.77829 3.40431 9.97355 3.59957L14.0202 7.64624C14.114 7.74001 14.1667 7.86718 14.1667 7.99979C14.1667 8.1324 14.114 8.25958 14.0202 8.35335L9.97355 12.4C9.77829 12.5953 9.4617 12.5953 9.26644 12.4C9.07118 12.2048 9.07118 11.8882 9.26644 11.6929L12.9596 7.99979L9.26644 4.30668C9.07118 4.11142 9.07118 3.79483 9.26644 3.59957Z" fill="#1848AD"/>
<path fill-rule="evenodd" clip-rule="evenodd" d="M1.83331 8C1.83331 7.72386 2.05717 7.5 2.33331 7.5H13.5533C13.8295 7.5 14.0533 7.72386 14.0533 8C14.0533 8.27614 13.8295 8.5 13.5533 8.5H2.33331C2.05717 8.5 1.83331 8.27614 1.83331 8Z" fill="#1848AD"/>
</svg>
