<svg width="64" height="64" viewBox="0 0 64 64" fill="none" xmlns="http://www.w3.org/2000/svg">
<path d="M43.6906 40.386C44.6394 39.8204 44.9502 38.5928 44.3847 37.644C43.8191 36.6952 42.5915 36.3845 41.6427 36.95L30.976 43.3075C30.0272 43.873 29.7165 45.1006 30.282 46.0494C30.8475 46.9983 32.0751 47.309 33.0239 46.7435L43.6906 40.386Z" fill="#11337A"/>
<path fill-rule="evenodd" clip-rule="evenodd" d="M28.9051 9.44161C29.8948 8.98001 30.8828 8.66797 32 8.66797C33.1172 8.66797 34.1052 8.98001 35.0949 9.44161C36.0243 9.87507 37.0836 10.5048 38.329 11.2451L46.3807 16.0312C47.6268 16.7719 48.6859 17.4014 49.5143 18.0127C49.9152 18.3085 50.2875 18.6176 50.6257 18.9582L57.5573 14.3372C58.4763 13.7245 59.7181 13.9728 60.3308 14.8919C60.9435 15.811 60.6951 17.0527 59.7761 17.6654L52.4481 22.5507C52.4998 22.8421 52.5382 23.1392 52.5673 23.4429C52.6667 24.4813 52.6667 25.7349 52.6667 27.2203V36.7823C52.6667 38.2677 52.6667 39.5213 52.5673 40.5597C52.4619 41.6608 52.2342 42.6742 51.6892 43.6462C51.1424 44.6212 50.3977 45.3381 49.5143 45.9899C48.6859 46.6013 47.6269 47.2307 46.3807 47.9714L38.329 52.7575C37.0838 53.4977 36.0242 54.1276 35.0949 54.561C34.1052 55.0226 33.1172 55.3346 32 55.3346C30.8828 55.3346 29.8948 55.0226 28.9051 54.561C27.9758 54.1276 26.9167 53.498 25.6715 52.7578L17.6193 47.9714C16.3731 47.2307 15.3141 46.6013 14.4856 45.9899C14.0848 45.6941 13.7125 45.385 13.3743 45.0444L6.44273 49.6654C5.52367 50.2781 4.28193 50.0298 3.66923 49.1107C3.05652 48.1916 3.30487 46.9499 4.22393 46.3372L11.5519 41.4519C11.5001 41.1605 11.4618 40.8634 11.4327 40.5597C11.3332 39.5213 11.3333 38.2677 11.3333 36.7824V27.2202C11.3333 25.7349 11.3333 24.4813 11.4327 23.4429C11.4618 23.1392 11.5001 22.8421 11.5519 22.5507L4.22393 17.6654C3.30487 17.0527 3.05652 15.811 3.66923 14.8919C4.28193 13.9728 5.52367 13.7245 6.44273 14.3372L13.3743 18.9582C13.7125 18.6176 14.0848 18.3085 14.4856 18.0127C15.3141 17.4013 16.3731 16.7719 17.6194 16.0312L25.671 11.2451C26.9164 10.5048 27.9757 9.87507 28.9051 9.44161ZM30.5958 13.0667C29.8695 13.4055 28.9824 13.9301 27.6333 14.732L19.7439 19.4216C18.3953 20.2233 17.5098 20.7523 16.8606 21.2313C16.2486 21.6829 15.9749 22.0005 15.7997 22.3129C15.6228 22.6283 15.4895 23.0401 15.4145 23.8241C15.3354 24.6495 15.3333 25.7107 15.3333 27.3117V36.6909C15.3333 38.2919 15.3354 39.3531 15.4145 40.1785C15.4895 40.9625 15.6228 41.3743 15.7997 41.6897C15.9749 42.0021 16.2486 42.3198 16.8606 42.7713C17.5098 43.2503 18.3953 43.7794 19.7439 44.581L27.6333 49.2706C28.9824 50.0725 29.8695 50.5971 30.5958 50.9359C31.2819 51.2559 31.6733 51.3346 32 51.3346C32.3267 51.3346 32.7181 51.2559 33.4042 50.9359C34.1305 50.5971 35.0176 50.0725 36.3667 49.2706L44.2561 44.581C45.6047 43.7794 46.4902 43.2503 47.1393 42.7713C47.7513 42.3198 48.0251 42.0021 48.2003 41.6897C48.3772 41.3743 48.5105 40.9625 48.5855 40.1785C48.6645 39.3531 48.6667 38.2919 48.6667 36.6909V27.3117C48.6667 25.7107 48.6645 24.6495 48.5855 23.8241C48.5105 23.0401 48.3772 22.6283 48.2003 22.3129C48.0251 22.0005 47.7513 21.6829 47.1393 21.2313C46.4902 20.7523 45.6047 20.2233 44.2561 19.4216L36.3667 14.732C35.0176 13.9301 34.1305 13.4055 33.4042 13.0667C32.7181 12.7467 32.3267 12.668 32 12.668C31.6733 12.668 31.2819 12.7467 30.5958 13.0667Z" fill="#11337A"/>
</svg>
