<svg width="64" height="64" viewBox="0 0 64 64" fill="none" xmlns="http://www.w3.org/2000/svg">
<circle cx="32" cy="31.9993" r="5.33333" stroke="#11337A" stroke-width="1.5"/>
<path fill-rule="evenodd" clip-rule="evenodd" d="M20.924 5.77915C21.705 6.56019 21.705 7.82652 20.924 8.60757C20.2895 9.24204 19.7403 9.89019 19.2684 10.5468C18.6236 11.4436 17.3739 11.6481 16.477 11.0034C15.5801 10.3586 15.3757 9.10893 16.0204 8.21204C16.623 7.37377 17.3135 6.56119 18.0955 5.77915C18.8766 4.9981 20.1429 4.9981 20.924 5.77915ZM49.3955 16.752C47.768 16.3422 46.0963 16.2633 44.4302 16.4618C43.3334 16.5926 42.3383 15.8094 42.2076 14.7126C42.0769 13.6158 42.86 12.6207 43.9568 12.49C46.0611 12.2392 48.2275 12.333 50.3723 12.8731C51.4434 13.1428 52.0931 14.2298 51.8233 15.301C51.5536 16.3721 50.4666 17.0218 49.3955 16.752ZM15.7167 12.5918C16.7878 12.8616 17.4375 13.9485 17.1677 15.0197C16.7579 16.6472 16.679 18.3189 16.8776 19.985C17.0083 21.0818 16.2251 22.0769 15.1283 22.2076C14.0315 22.3383 13.0364 21.5551 12.9057 20.4583C12.6549 18.354 12.7487 16.1877 13.2888 14.0429C13.5586 12.9718 14.6455 12.3221 15.7167 12.5918ZM40.5228 15.2059C40.9679 16.2168 40.5091 17.3971 39.4982 17.8422C37.9015 18.5451 36.3884 19.4659 35.026 20.534C34.1567 21.2156 32.8996 21.0634 32.2181 20.1941C31.5365 19.3249 31.6887 18.0677 32.558 17.3862C34.1694 16.1228 35.9683 15.0257 37.8865 14.1812C38.8975 13.7362 40.0778 14.1949 40.5228 15.2059ZM53.4118 16.0613C54.0565 15.1644 55.3062 14.96 56.2031 15.6047C57.0414 16.2073 57.854 16.8978 58.636 17.6798C59.4171 18.4609 59.4171 19.7272 58.636 20.5083C57.855 21.2893 56.5887 21.2893 55.8076 20.5083C55.1731 19.8738 54.525 19.3246 53.8684 18.8527C52.9715 18.2079 52.7671 16.9582 53.4118 16.0613ZM30.9759 21.4287C31.8578 22.0937 32.0335 23.3478 31.3684 24.2297C31.1946 24.4601 31.029 24.6915 30.8716 24.9233C31.5902 24.9827 32.252 25.4297 32.5515 26.1401C32.9806 27.1579 32.5034 28.3309 31.4856 28.76C30.8872 29.0123 30.3086 29.3929 29.7646 29.9368C29.039 30.6624 27.8946 30.7139 27.1096 30.0913C26.9441 30.0876 26.7765 30.0631 26.6098 30.0161C25.5468 29.7159 24.9284 28.6108 25.2286 27.5478C25.791 25.5564 26.8279 23.6071 28.1748 21.8212C28.8399 20.9393 30.094 20.7636 30.9759 21.4287ZM15.6216 23.8923C16.6325 23.4473 17.8128 23.906 18.2579 24.917C18.9608 26.5137 19.8816 28.0268 20.9497 29.3892C21.6313 30.2584 21.4791 31.5156 20.6098 32.1971C19.7406 32.8786 18.4834 32.7264 17.8019 31.8572C16.5385 30.2458 15.4414 28.4469 14.5969 26.5286C14.1519 25.5177 14.6106 24.3374 15.6216 23.8923ZM34.399 26.1948C34.6991 25.1318 35.8042 24.5135 36.8672 24.8136C38.8586 25.376 40.8079 26.413 42.5938 27.7599C43.4757 28.425 43.6515 29.679 42.9864 30.5609C42.3213 31.4428 41.0672 31.6185 40.1853 30.9535C39.9551 30.7798 39.724 30.6143 39.4924 30.4571C39.4329 31.1755 38.9859 31.8372 38.2757 32.1367C37.2579 32.5658 36.0849 32.0886 35.6558 31.0708C35.4035 30.4723 35.0229 29.8937 34.479 29.3498C33.7537 28.6245 33.7019 27.4807 34.3237 26.6957C34.3273 26.5299 34.3518 26.3618 34.399 26.1948ZM44.2209 31.8031C45.0902 31.1216 46.3473 31.2738 47.0288 32.143C48.2922 33.7544 49.3894 35.5533 50.2338 37.4716C50.6789 38.4825 50.2201 39.6628 49.2092 40.1079C48.1982 40.5529 47.0179 40.0942 46.5729 39.0832C45.87 37.4865 44.9492 35.9734 43.881 34.611C43.1995 33.7418 43.3517 32.4846 44.2209 31.8031ZM26.5551 31.8635C27.5729 31.4344 28.7458 31.9116 29.175 32.9294C29.4273 33.5279 29.8078 34.1065 30.3518 34.6504C31.0771 35.3757 31.1288 36.5195 30.5071 37.3045C30.5034 37.4703 30.4789 37.6383 30.4318 37.8054C30.1316 38.8684 29.0265 39.4867 27.9635 39.1866C25.9722 38.6242 24.0228 37.5872 22.2369 36.2403C21.355 35.5752 21.1793 34.3212 21.8444 33.4393C22.5095 32.5574 23.7635 32.3816 24.6454 33.0467C24.8756 33.2204 25.1067 33.3859 25.3383 33.5431C25.3978 32.8247 25.8448 32.163 26.5551 31.8635ZM37.7212 33.9089C36.9361 33.2863 35.7917 33.3378 35.0661 34.0634C34.5222 34.6073 33.9436 34.9879 33.3451 35.2402C32.3273 35.6693 31.8501 36.8423 32.2792 37.8601C32.5787 38.5705 33.2406 39.0175 33.9591 39.0769C33.8018 39.3087 33.6361 39.5401 33.4623 39.7705C32.7972 40.6524 32.9729 41.9065 33.8548 42.5715C34.7367 43.2366 35.9908 43.0609 36.6559 42.179C38.0028 40.3931 39.0398 38.4437 39.6021 36.4524C39.9023 35.3894 39.2839 34.2843 38.2209 33.9841C38.0543 33.9371 37.8866 33.9126 37.7212 33.9089ZM49.7024 41.7926C50.7993 41.6619 51.7944 42.4451 51.9251 43.5419C52.1759 45.6462 52.082 47.8125 51.5419 49.9573C51.2722 51.0284 50.1852 51.6781 49.1141 51.4084C48.0429 51.1386 47.3933 50.0517 47.663 48.9805C48.0728 47.353 48.1517 45.6813 47.9532 44.0152C47.8225 42.9184 48.6056 41.9233 49.7024 41.7926ZM6.1947 43.4919C6.97575 42.7109 8.24208 42.7109 9.02313 43.4919C9.65759 44.1264 10.3057 44.6756 10.9623 45.1475C11.8592 45.7923 12.0636 47.042 11.4189 47.9389C10.7742 48.8358 9.52448 49.0402 8.62759 48.3955C7.78932 47.7929 6.97675 47.1024 6.1947 46.3204C5.41365 45.5393 5.41365 44.273 6.1947 43.4919ZM32.6127 43.8061C33.2942 44.6753 33.142 45.9325 32.2727 46.614C30.6614 47.8774 28.8625 48.9745 26.9442 49.819C25.9332 50.264 24.7529 49.8053 24.3079 48.7943C23.8628 47.7834 24.3216 46.6031 25.3325 46.158C26.9293 45.4551 28.4423 44.5343 29.8047 43.4662C30.674 42.7846 31.9312 42.9368 32.6127 43.8061ZM13.0074 48.6992C13.2771 47.6281 14.3641 46.9784 15.4352 47.2482C17.0627 47.658 18.7344 47.7369 20.4005 47.5384C21.4973 47.4076 22.4924 48.1908 22.6232 49.2876C22.7539 50.3844 21.9707 51.3795 20.8739 51.5102C18.7696 51.761 16.6033 51.6672 14.4585 51.1271C13.3873 50.8574 12.7377 49.7704 13.0074 48.6992ZM48.3537 52.9968C49.2506 53.6416 49.455 54.8913 48.8103 55.7882C48.2077 56.6264 47.5172 57.439 46.7352 58.2211C45.9541 59.0021 44.6878 59.0021 43.9068 58.2211C43.1257 57.44 43.1257 56.1737 43.9068 55.3926C44.5412 54.7582 45.0904 54.11 45.5624 53.4534C46.2071 52.5566 47.4568 52.3521 48.3537 52.9968Z" fill="#11337A"/>
<path fill-rule="evenodd" clip-rule="evenodd" d="M28.6038 33.3306C29.7227 34.6412 31.1425 35.334 32.8307 35.334C33.2329 35.334 33.6073 35.4527 33.9209 35.657C34.8479 34.639 35.3333 33.4139 35.3333 32.0006C35.3333 31.3857 35.6109 30.8356 36.0476 30.4687C34.9577 29.289 33.5993 28.6673 32 28.6673C31.6171 28.6673 31.2594 28.5597 30.9554 28.3731C29.4602 29.5252 28.6667 31.0245 28.6667 32.8314C28.6667 33.0038 28.6449 33.1711 28.6038 33.3306ZM26.2357 27.6081C25.9363 25.7561 25.9149 23.7044 26.211 21.6145C27.2654 14.1717 32.073 7.33398 40.8307 7.33398C41.9353 7.33398 42.8307 6.43855 42.8307 5.33398C42.8307 4.22941 41.9353 3.33398 40.8307 3.33398C29.3218 3.33398 23.4628 12.4962 22.2505 21.0535C21.6414 25.3531 22.1369 29.7727 23.807 33.2084C24.8901 35.4365 26.5181 37.319 28.6752 38.3873C26.5606 38.8743 24.1146 38.9747 21.6139 38.6204C14.1711 37.566 7.33334 32.7584 7.33334 24.0007C7.33334 22.8961 6.43791 22.0007 5.33334 22.0007C4.22877 22.0007 3.33334 22.8961 3.33334 24.0007C3.33334 35.5096 12.4956 41.3686 21.0528 42.5809C25.3524 43.19 29.772 42.6945 33.2077 41.0244C35.5229 39.8989 37.4648 38.1852 38.5081 35.901C38.888 37.8783 38.9423 40.1099 38.6198 42.3868C37.5654 49.8296 32.7578 56.6673 24 56.6673C22.8954 56.6673 22 57.5627 22 58.6673C22 59.7719 22.8954 60.6673 24 60.6673C35.5089 60.6673 41.368 51.5051 42.5802 42.9478C43.1893 38.6482 42.6939 34.2286 41.0237 30.7929C40.1007 28.894 38.7819 27.2463 37.0772 26.1395C38.7444 25.9365 40.5505 25.9516 42.3861 26.2116C49.8289 27.266 56.6667 32.0736 56.6667 40.8314C56.6667 41.9359 57.5621 42.8314 58.6667 42.8314C59.7712 42.8314 60.6667 41.9359 60.6667 40.8314C60.6667 29.3225 51.5044 23.4634 42.9472 22.2511C38.6476 21.642 34.228 22.1375 30.7923 23.8076C28.948 24.7042 27.3406 25.974 26.2357 27.6081Z" fill="#11337A"/>
</svg>
