<svg width="80" height="80" viewBox="0 0 80 80" fill="none" xmlns="http://www.w3.org/2000/svg">
<path opacity="0.5" fill-rule="evenodd" clip-rule="evenodd" d="M17.5878 11.3962C20.043 10.9452 23.0477 10.8589 26.6528 10.8389L26.6806 15.8388C23.0356 15.8591 20.452 15.9537 18.4912 16.3139C16.6018 16.661 15.5082 17.2182 14.6967 18.0297C13.7742 18.9523 13.1727 20.2475 12.8438 22.6934C12.5053 25.2113 12.5 28.5483 12.5 33.333V53.333C12.5 58.1178 12.5053 61.4548 12.8438 63.9726C13.1727 66.4186 13.7742 67.7138 14.6967 68.6363C15.6192 69.5589 16.9145 70.1604 19.3604 70.4892C21.8782 70.8277 25.2153 70.833 30 70.833H50C54.7847 70.833 58.1218 70.8277 60.6396 70.4892C63.0855 70.1604 64.3808 69.5589 65.3033 68.6363C66.2258 67.7138 66.8273 66.4186 67.1562 63.9726C67.4947 61.4548 67.5 58.1178 67.5 53.333V33.333C67.5 28.5483 67.4947 25.2113 67.1562 22.6934C66.8273 20.2475 66.2258 18.9523 65.3033 18.0297C64.4918 17.2182 63.3982 16.661 61.5088 16.3139C59.548 15.9537 56.9644 15.8591 53.3194 15.8388L53.3472 10.8389C56.9523 10.8589 59.957 10.9452 62.4122 11.3962C64.9388 11.8603 67.0891 12.7444 68.8388 14.4942C70.8452 16.5006 71.7082 19.0268 72.1116 22.0272C72.5001 24.9171 72.5001 28.5915 72.5 33.1501V53.5159C72.5001 58.0746 72.5001 61.749 72.1116 64.6389C71.7082 67.6392 70.8452 70.1655 68.8388 72.1719C66.8324 74.1783 64.3062 75.0412 61.3058 75.4446C58.4159 75.8332 54.7415 75.8331 50.1829 75.833H29.8171C25.2585 75.8331 21.5841 75.8332 18.6942 75.4446C15.6938 75.0412 13.1676 74.1783 11.1612 72.1719C9.15478 70.1655 8.2918 67.6392 7.88841 64.6389C7.49988 61.749 7.49993 58.0746 7.5 53.516V33.1501C7.49993 28.5915 7.49988 24.9171 7.88841 22.0272C8.2918 19.0268 9.15478 16.5006 11.1612 14.4942C12.9109 12.7444 15.0612 11.8603 17.5878 11.3962Z" fill="#11337A"/>
<path fill-rule="evenodd" clip-rule="evenodd" d="M32.5 46.667C32.5 45.2863 33.6193 44.167 35 44.167L56.6667 44.167C58.0474 44.167 59.1667 45.2863 59.1667 46.667C59.1667 48.0477 58.0474 49.167 56.6667 49.167L35 49.167C33.6193 49.167 32.5 48.0477 32.5 46.667Z" fill="#11337A"/>
<path fill-rule="evenodd" clip-rule="evenodd" d="M20.8333 46.667C20.8333 45.2863 21.9526 44.167 23.3333 44.167H25C26.3807 44.167 27.5 45.2863 27.5 46.667C27.5 48.0477 26.3807 49.167 25 49.167H23.3333C21.9526 49.167 20.8333 48.0477 20.8333 46.667Z" fill="#11337A"/>
<path fill-rule="evenodd" clip-rule="evenodd" d="M20.8333 35C20.8333 33.6193 21.9526 32.5 23.3333 32.5H25C26.3807 32.5 27.5 33.6193 27.5 35C27.5 36.3807 26.3807 37.5 25 37.5H23.3333C21.9526 37.5 20.8333 36.3807 20.8333 35Z" fill="#11337A"/>
<path fill-rule="evenodd" clip-rule="evenodd" d="M20.8333 58.333C20.8333 56.9523 21.9526 55.833 23.3333 55.833H25C26.3807 55.833 27.5 56.9523 27.5 58.333C27.5 59.7137 26.3807 60.833 25 60.833H23.3333C21.9526 60.833 20.8333 59.7137 20.8333 58.333Z" fill="#11337A"/>
<path fill-rule="evenodd" clip-rule="evenodd" d="M32.5 35C32.5 33.6193 33.6193 32.5 35 32.5H56.6667C58.0474 32.5 59.1667 33.6193 59.1667 35C59.1667 36.3807 58.0474 37.5 56.6667 37.5H35C33.6193 37.5 32.5 36.3807 32.5 35Z" fill="#11337A"/>
<path fill-rule="evenodd" clip-rule="evenodd" d="M32.5 58.333C32.5 56.9523 33.6193 55.833 35 55.833H56.6667C58.0474 55.833 59.1667 56.9523 59.1667 58.333C59.1667 59.7137 58.0474 60.833 56.6667 60.833H35C33.6193 60.833 32.5 59.7137 32.5 58.333Z" fill="#11337A"/>
<path fill-rule="evenodd" clip-rule="evenodd" d="M24.1667 11.667C24.1667 7.52486 27.5245 4.16699 31.6667 4.16699H48.3333C52.4755 4.16699 55.8333 7.52486 55.8333 11.667V15.0003C55.8333 19.1425 52.4755 22.5003 48.3333 22.5003H31.6667C27.5245 22.5003 24.1667 19.1425 24.1667 15.0003V11.667ZM31.6667 9.16699C30.2859 9.16699 29.1667 10.2863 29.1667 11.667V15.0003C29.1667 16.381 30.2859 17.5003 31.6667 17.5003H48.3333C49.714 17.5003 50.8333 16.381 50.8333 15.0003V11.667C50.8333 10.2863 49.714 9.16699 48.3333 9.16699H31.6667Z" fill="#11337A"/>
</svg>
