<svg width="64" height="64" viewBox="0 0 64 64" fill="none" xmlns="http://www.w3.org/2000/svg">
<path fill-rule="evenodd" clip-rule="evenodd" d="M3.33333 12.4247C3.33333 8.08995 6.91115 4.76127 11.2578 5.12484C17.174 5.60453 25.9474 8.52878 30.9634 11.6517L31.6401 12.0577C31.6469 12.0609 31.6751 12.0739 31.7293 12.0874C31.802 12.1055 31.8956 12.1181 32 12.1181C32.1044 12.1181 32.198 12.1055 32.2707 12.0874C32.3221 12.0746 32.3501 12.0623 32.3587 12.0583L32.8015 11.7718C37.8182 8.61522 46.6316 5.65926 52.5492 5.15204C52.606 5.14717 52.663 5.14473 52.72 5.14473H52.8022C57.0912 4.83344 60.6667 8.09994 60.6667 12.4514V44.6381C60.6667 48.1911 57.8511 51.4556 54.2747 51.9026L54.2673 51.9035L53.3989 52.0088C47.8376 52.751 39.135 55.6255 34.233 58.3284C33.5102 58.7395 32.69 58.8847 31.9833 58.8847C31.2813 58.8847 30.4803 58.7416 29.767 58.3577L29.6923 58.3203C29.6703 58.3093 29.6486 58.2979 29.627 58.2861C24.7218 55.6036 16.0238 52.7478 10.4817 52.0071L10.4734 52.006L9.71172 51.9009C6.14184 51.4473 3.33333 48.1866 3.33333 44.6381V12.4247ZM10.9259 9.11104C8.92717 8.94309 7.33333 10.4139 7.33333 12.4247V44.6381C7.33333 46.2051 8.67772 47.7405 10.2214 47.9335L10.2466 47.9367L11.0116 48.0424C11.013 48.0425 11.0145 48.0427 11.0159 48.0429C17.0348 48.8482 26.1752 51.8476 31.5134 54.7587L31.5877 54.7959C31.6126 54.8083 31.6372 54.8212 31.6615 54.8347C31.6615 54.8346 31.6873 54.8468 31.7436 54.8596C31.8092 54.8746 31.8923 54.8847 31.9833 54.8847C32.0746 54.8847 32.1536 54.8745 32.2115 54.8611C32.2415 54.8542 32.2591 54.848 32.2658 54.8455L32.2865 54.8335C37.6235 51.8871 46.822 48.8485 52.8829 48.0422L52.906 48.0391L53.7786 47.9335C53.7796 47.9334 53.7806 47.9333 53.7817 47.9331C55.3241 47.7385 56.6667 46.204 56.6667 44.6381V12.4514C56.6667 10.4332 55.0654 8.96813 53.0475 9.13771C52.9918 9.14239 52.9359 9.14473 52.88 9.14473H52.8075C47.5267 9.61866 39.3977 12.3513 34.9423 15.1509L34.4682 15.4576C33.6904 15.9404 32.7875 16.1181 32 16.1181C31.2176 16.1181 30.3214 15.9424 29.547 15.4667L28.8616 15.0554C24.3827 12.2624 16.2098 9.5388 10.932 9.11155L10.9259 9.11104Z" fill="#11337A"/>
<path fill-rule="evenodd" clip-rule="evenodd" d="M32 12.6367C33.1046 12.6367 34 13.5321 34 14.6367V54.6367C34 55.7413 33.1046 56.6367 32 56.6367C30.8954 56.6367 30 55.7413 30 54.6367V14.6367C30 13.5321 30.8954 12.6367 32 12.6367Z" fill="#11337A"/>
<path fill-rule="evenodd" clip-rule="evenodd" d="M42 22.6367C42 21.5321 42.8954 20.6367 44 20.6367H50C51.1046 20.6367 52 21.5321 52 22.6367C52 23.7413 51.1046 24.6367 50 24.6367H44C42.8954 24.6367 42 23.7413 42 22.6367Z" fill="#11337A"/>
<path fill-rule="evenodd" clip-rule="evenodd" d="M13.3333 22.6367C13.3333 21.5321 14.2288 20.6367 15.3333 20.6367H21.3333C22.4379 20.6367 23.3333 21.5321 23.3333 22.6367C23.3333 23.7413 22.4379 24.6367 21.3333 24.6367H15.3333C14.2288 24.6367 13.3333 23.7413 13.3333 22.6367Z" fill="#11337A"/>
<path fill-rule="evenodd" clip-rule="evenodd" d="M40 30.6367C40 29.5321 40.8954 28.6367 42 28.6367H50C51.1046 28.6367 52 29.5321 52 30.6367C52 31.7413 51.1046 32.6367 50 32.6367H42C40.8954 32.6367 40 31.7413 40 30.6367Z" fill="#11337A"/>
<path fill-rule="evenodd" clip-rule="evenodd" d="M13.3333 30.6367C13.3333 29.5321 14.2288 28.6367 15.3333 28.6367H23.3333C24.4379 28.6367 25.3333 29.5321 25.3333 30.6367C25.3333 31.7413 24.4379 32.6367 23.3333 32.6367H15.3333C14.2288 32.6367 13.3333 31.7413 13.3333 30.6367Z" fill="#11337A"/>
</svg>
