<svg width="32" height="32" viewBox="0 0 32 32" fill="none" xmlns="http://www.w3.org/2000/svg">
<path fill-rule="evenodd" clip-rule="evenodd" d="M20.8148 2.11176C23.0237 1.7962 25 3.51023 25 5.74157V7.57691C26.5859 8.41524 27.6667 10.0815 27.6667 12.0002V25.3335C27.6667 28.095 25.4281 30.3335 22.6667 30.3335H9.33333C6.5719 30.3335 4.33333 28.095 4.33333 25.3335V6.66688C4.33333 6.65449 4.33355 6.64214 4.334 6.62985C4.33355 6.61067 4.33333 6.59142 4.33333 6.57212C4.33333 5.36379 5.22184 4.33932 6.41803 4.16844L20.8148 2.11176ZM6.33333 9.00022V25.3335C6.33333 26.9904 7.67647 28.3335 9.33333 28.3335H22.6667C24.3235 28.3335 25.6667 26.9904 25.6667 25.3335V12.0002C25.6667 10.3434 24.3235 9.00022 22.6667 9.00022H6.33333ZM6.76142 7.00022H23V5.74157C23 4.72733 22.1017 3.94822 21.0976 4.09166L6.70088 6.14834C6.48998 6.17847 6.33333 6.35908 6.33333 6.57212C6.33333 6.80855 6.52499 7.00022 6.76142 7.00022ZM9.66666 16.0002C9.66666 15.4479 10.1144 15.0002 10.6667 15.0002H21.3333C21.8856 15.0002 22.3333 15.4479 22.3333 16.0002C22.3333 16.5525 21.8856 17.0002 21.3333 17.0002H10.6667C10.1144 17.0002 9.66666 16.5525 9.66666 16.0002ZM9.66666 20.6669C9.66666 20.1146 10.1144 19.6669 10.6667 19.6669H18C18.5523 19.6669 19 20.1146 19 20.6669C19 21.2192 18.5523 21.6669 18 21.6669H10.6667C10.1144 21.6669 9.66666 21.2192 9.66666 20.6669Z" fill="#6D8CAD"/>
</svg>
