<svg width="64" height="64" viewBox="0 0 64 64" fill="none" xmlns="http://www.w3.org/2000/svg">
<path fill-rule="evenodd" clip-rule="evenodd" d="M32 7.33203C18.3846 7.33203 7.33334 18.3833 7.33334 31.9987C7.33334 45.6141 18.3846 56.6654 32 56.6654C45.6154 56.6654 56.6667 45.6141 56.6667 31.9987C56.6667 18.3833 45.6154 7.33203 32 7.33203ZM3.33334 31.9987C3.33334 16.1741 16.1754 3.33203 32 3.33203C47.8246 3.33203 60.6667 16.1741 60.6667 31.9987C60.6667 47.8233 47.8246 60.6654 32 60.6654C16.1754 60.6654 3.33334 47.8233 3.33334 31.9987Z" fill="#11337A"/>
<path fill-rule="evenodd" clip-rule="evenodd" d="M31.0133 18.0273C32.1179 18.0273 33.0133 18.9228 33.0133 20.0273V30.9607C33.0133 31.3701 33.1697 31.9636 33.5173 32.5732C33.8651 33.183 34.296 33.6192 34.6463 33.8268L34.6516 33.8299L34.6516 33.8299L42.9182 38.7633C43.8668 39.3293 44.1768 40.5571 43.6108 41.5056C43.0447 42.4541 41.8169 42.7641 40.8684 42.1981L32.6071 37.2679C32.6061 37.2674 32.6052 37.2668 32.6043 37.2663C31.5158 36.6204 30.6411 35.6041 30.0427 34.5548C29.4436 33.5044 29.0133 32.2312 29.0133 30.9607V20.0273C29.0133 18.9228 29.9088 18.0273 31.0133 18.0273Z" fill="#11337A"/>
</svg>
