<svg width="64" height="64" viewBox="0 0 64 64" fill="none" xmlns="http://www.w3.org/2000/svg">
<path fill-rule="evenodd" clip-rule="evenodd" d="M54.0369 9.96376C50.5305 6.45739 44.8456 6.45739 41.3392 9.96376L37.4577 13.8453C37.0826 14.2204 36.5739 14.4311 36.0435 14.4311C35.5131 14.4311 35.0043 14.2204 34.6293 13.8453L31.7181 10.9341C30.8914 10.1074 29.551 10.1074 28.7243 10.9341C27.8975 11.7609 27.8975 13.1013 28.7243 13.928L50.0726 35.2764C50.8994 36.1031 52.2398 36.1031 53.0665 35.2764C53.8932 34.4496 53.8932 33.1092 53.0665 32.2825L50.1554 29.3714C49.3743 28.5903 49.3743 27.324 50.1554 26.5429L54.0369 22.6614C57.5432 19.1551 57.5432 13.4701 54.0369 9.96376ZM38.5108 7.13533C43.5792 2.06687 51.7968 2.06687 56.8653 7.13533C61.9338 12.2038 61.9338 20.4214 56.8653 25.4898L54.398 27.9572L55.8949 29.4541C58.2837 31.8429 58.2837 35.716 55.8949 38.1048C53.5061 40.4936 49.633 40.4936 47.2442 38.1048L45.7473 36.6079L29.4973 52.8578C29.4372 52.918 29.3778 52.9774 29.3191 53.0362C28.2782 54.0786 27.4669 54.891 26.4674 55.4207C25.8046 55.772 25.0928 56.0217 24.3559 56.1614C23.2445 56.3722 22.1035 56.2446 20.6394 56.0809C20.5569 56.0717 20.4734 56.0623 20.3888 56.0529L19.1213 55.9121C18.6221 55.8566 18.4837 55.8428 18.3606 55.8392C17.4987 55.8141 16.658 56.109 16.0007 56.667C15.9068 56.7467 15.8074 56.844 15.4522 57.1992L13.7756 58.8757C11.3868 61.2645 7.51376 61.2645 5.12493 58.8757C2.7361 56.4869 2.73611 52.6138 5.12493 50.225L6.80149 48.5484C7.15668 48.1932 7.25388 48.0938 7.33359 47.9999C7.89164 47.3426 8.18654 46.5019 8.16141 45.64C8.15782 45.5169 8.14402 45.3786 8.08854 44.8793L7.94771 43.6118C7.93831 43.5272 7.92897 43.4437 7.91974 43.3612C7.75603 41.8971 7.62845 40.7562 7.83922 39.6448C7.97898 38.9078 8.22865 38.1961 8.57989 37.5333C9.10957 36.5338 9.92194 35.7226 10.9643 34.6816C11.0231 34.6229 11.0826 34.5635 11.1428 34.5033L27.3928 18.2533L25.8958 16.7564C23.507 14.3676 23.507 10.4945 25.8958 8.10571C28.2847 5.71688 32.1577 5.71688 34.5466 8.10571L36.0435 9.60264L38.5108 7.13533ZM30.2212 21.0818L13.9712 37.3317C12.6676 38.6353 12.3266 39.0056 12.1143 39.4063C11.9506 39.7151 11.8343 40.0467 11.7692 40.3901C11.6847 40.8357 11.7197 41.3378 11.9232 43.1701L12.0717 44.5059C12.1162 44.906 12.1508 45.2163 12.1597 45.5235C12.2136 47.3734 11.5807 49.1778 10.3829 50.5887C10.1841 50.8229 9.96323 51.0437 9.67858 51.3282L9.62992 51.3769L7.95336 53.0534C7.12663 53.8801 7.12663 55.2205 7.95336 56.0473C8.78009 56.874 10.1205 56.874 10.9472 56.0473L12.6726 54.3219C12.957 54.0374 13.1778 53.8165 13.4119 53.6177C14.8228 52.4199 16.6272 51.787 18.4772 51.8409C18.7843 51.8499 19.0946 51.8844 19.4947 51.929L20.8305 52.0774C22.6628 52.281 23.165 52.316 23.6106 52.2315C23.9539 52.1663 24.2855 52.05 24.5943 51.8864C24.995 51.674 25.3653 51.333 26.6689 50.0294L30.5049 46.1934L26.9766 42.6651C26.1955 41.884 26.1955 40.6177 26.9766 39.8366C27.7576 39.0556 29.0239 39.0556 29.805 39.8366L33.3333 43.365L35.8382 40.8601L32.3099 37.3317C31.5288 36.5507 31.5288 35.2844 32.3099 34.5033C33.0909 33.7223 34.3573 33.7223 35.1383 34.5033L38.6666 38.0316L42.9189 33.7794L30.2212 21.0818Z" fill="#11337A"/>
</svg>
