<svg width="80" height="80" viewBox="0 0 80 80" fill="none" xmlns="http://www.w3.org/2000/svg">
<path opacity="0.5" fill-rule="evenodd" clip-rule="evenodd" d="M5.83334 21.6673C5.83334 12.9228 12.9222 5.83398 21.6667 5.83398C30.4112 5.83398 37.5 12.9228 37.5 21.6673C37.5 30.4118 30.4112 37.5007 21.6667 37.5007C12.9222 37.5007 5.83334 30.4118 5.83334 21.6673ZM21.6667 10.834C15.6836 10.834 10.8333 15.6842 10.8333 21.6673C10.8333 27.6504 15.6836 32.5007 21.6667 32.5007C27.6498 32.5007 32.5 27.6504 32.5 21.6673C32.5 15.6842 27.6498 10.834 21.6667 10.834Z" fill="#11337A"/>
<path opacity="0.5" fill-rule="evenodd" clip-rule="evenodd" d="M42.5 58.3333C42.5 49.5888 49.5888 42.5 58.3333 42.5C67.0778 42.5 74.1667 49.5888 74.1667 58.3333C74.1667 67.0778 67.0778 74.1667 58.3333 74.1667C49.5888 74.1667 42.5 67.0778 42.5 58.3333ZM58.3333 47.5C52.3502 47.5 47.5 52.3502 47.5 58.3333C47.5 64.3164 52.3502 69.1667 58.3333 69.1667C64.3164 69.1667 69.1667 64.3164 69.1667 58.3333C69.1667 52.3502 64.3164 47.5 58.3333 47.5Z" fill="#11337A"/>
<path fill-rule="evenodd" clip-rule="evenodd" d="M42.5 21.6673C42.5 12.9228 49.5888 5.83398 58.3333 5.83398C67.0778 5.83398 74.1667 12.9228 74.1667 21.6673C74.1667 30.4118 67.0778 37.5007 58.3333 37.5007C49.5888 37.5007 42.5 30.4118 42.5 21.6673ZM58.3333 10.834C52.3502 10.834 47.5 15.6842 47.5 21.6673C47.5 27.6504 52.3502 32.5007 58.3333 32.5007C64.3164 32.5007 69.1667 27.6504 69.1667 21.6673C69.1667 15.6842 64.3164 10.834 58.3333 10.834Z" fill="#11337A"/>
<path fill-rule="evenodd" clip-rule="evenodd" d="M5.83334 58.3333C5.83334 49.5888 12.9222 42.5 21.6667 42.5C30.4112 42.5 37.5 49.5888 37.5 58.3333C37.5 67.0778 30.4112 74.1667 21.6667 74.1667C12.9222 74.1667 5.83334 67.0778 5.83334 58.3333ZM21.6667 47.5C15.6836 47.5 10.8333 52.3502 10.8333 58.3333C10.8333 64.3164 15.6836 69.1667 21.6667 69.1667C27.6498 69.1667 32.5 64.3164 32.5 58.3333C32.5 52.3502 27.6498 47.5 21.6667 47.5Z" fill="#11337A"/>
</svg>
