<svg width="93" height="80" viewBox="0 0 93 80" fill="none" xmlns="http://www.w3.org/2000/svg">
<path d="M0 52.2667C0 45.1556 1.42222 38.4 4.26667 32C7.34815 25.6 11.4963 19.6741 16.7111 14.2222C22.163 8.77038 28.563 4.02963 35.9111 0L41.2444 7.11112C35.5556 11.6148 30.5778 16.5926 26.3111 22.0445C22.2815 27.2593 20.2667 32.7111 20.2667 38.4C20.2667 41.4815 20.7407 43.6148 21.6889 44.8C22.8741 45.9852 24.2963 47.0519 25.9556 48C28.563 49.1852 30.9333 51.0815 33.0667 53.6889C35.2 56.0593 36.2667 59.3778 36.2667 63.6445C36.2667 68.1482 34.7259 72.0593 31.6444 75.3778C28.8 78.4593 25.0074 80 20.2667 80C15.0519 80 10.3111 77.7481 6.04445 73.2444C2.01482 68.7407 0 61.7481 0 52.2667ZM51.5556 52.2667C51.5556 45.1556 52.9778 38.4 55.8222 32C58.9037 25.6 63.0518 19.6741 68.2667 14.2222C73.7185 8.77038 80.1185 4.02963 87.4667 0L92.8 7.11112C87.1111 11.6148 82.1333 16.5926 77.8667 22.0445C73.837 27.2593 71.8222 32.7111 71.8222 38.4C71.8222 41.4815 72.2963 43.6148 73.2444 44.8C74.4296 45.9852 75.8519 47.0519 77.5111 48C80.1185 49.1852 82.4889 51.0815 84.6222 53.6889C86.7556 56.0593 87.8222 59.3778 87.8222 63.6445C87.8222 68.1482 86.2815 72.0593 83.2 75.3778C80.3556 78.4593 76.563 80 71.8222 80C66.6074 80 61.8667 77.7481 57.6 73.2444C53.5704 68.7407 51.5556 61.7481 51.5556 52.2667Z" fill="#F2F2F2"/>
</svg>
