<svg width="64" height="64" viewBox="0 0 64 64" fill="none" xmlns="http://www.w3.org/2000/svg">
<path fill-rule="evenodd" clip-rule="evenodd" d="M26.5162 8.66797H37.4838C42.3845 8.66793 46.2661 8.66789 49.304 9.07633C52.4305 9.49667 54.961 10.3823 56.9567 12.378C58.9523 14.3736 59.8379 16.9041 60.2583 20.0306C60.6667 23.0685 60.6667 26.9502 60.6666 31.8509V32.1517C60.6667 37.0524 60.6667 40.9341 60.2583 43.972C59.8379 47.0985 58.9523 49.629 56.9567 51.6247C54.961 53.6203 52.4305 54.5059 49.304 54.9263C46.2661 55.3347 42.3844 55.3347 37.4837 55.3346H26.5162C21.6155 55.3347 17.7338 55.3347 14.6959 54.9263C11.5695 54.5059 9.03893 53.6203 7.0433 51.6247C5.04766 49.629 4.16202 47.0985 3.74167 43.972C3.33324 40.9341 3.33327 37.0524 3.33331 32.1517V31.8509C3.33327 26.9502 3.33324 23.0685 3.74167 20.0306C4.16202 16.9041 5.04766 14.3736 7.0433 12.378C9.03893 10.3823 11.5695 9.49667 14.6959 9.07633C17.7338 8.66789 21.6155 8.66793 26.5162 8.66797ZM15.2289 13.0407C12.546 13.4014 11.0003 14.0778 9.87172 15.2064C8.74316 16.3349 8.06671 17.8807 7.70601 20.5636C7.33756 23.304 7.33331 26.9165 7.33331 32.0013C7.33331 37.0862 7.33756 40.6986 7.70601 43.439C8.06671 46.1219 8.74316 47.6677 9.87172 48.7962C11.0003 49.9248 12.546 50.6012 15.2289 50.962C17.9693 51.3304 21.5818 51.3346 26.6666 51.3346H37.3333C42.4182 51.3346 46.0306 51.3304 48.7711 50.962C51.454 50.6012 52.9997 49.9248 54.1282 48.7962C55.2568 47.6677 55.9333 46.1219 56.294 43.439C56.6624 40.6986 56.6666 37.0862 56.6666 32.0013C56.6666 26.9165 56.6624 23.304 56.294 20.5636C55.9333 17.8807 55.2568 16.3349 54.1282 15.2064C52.9997 14.0778 51.454 13.4014 48.771 13.0407C46.0306 12.6722 42.4182 12.668 37.3333 12.668H26.6666C21.5818 12.668 17.9693 12.6722 15.2289 13.0407ZM14.4635 20.0543C15.1707 19.2057 16.4318 19.0911 17.2803 19.7982L23.0374 24.5957C25.5253 26.669 27.2526 28.1037 28.7109 29.0416C30.1225 29.9495 31.0798 30.2543 32 30.2543C32.9202 30.2543 33.8775 29.9495 35.2891 29.0416C36.7474 28.1037 38.4747 26.669 40.9626 24.5957L46.7196 19.7982C47.5682 19.0911 48.8293 19.2057 49.5364 20.0543C50.2436 20.9028 50.1289 22.164 49.2803 22.8711L43.423 27.7522C41.0594 29.7219 39.1437 31.3184 37.4528 32.4059C35.6915 33.5387 33.9762 34.2543 32 34.2543C30.0238 34.2543 28.3084 33.5387 26.5471 32.4059C24.8563 31.3184 22.9406 29.7219 20.5769 27.7522L14.7196 22.8711C13.8711 22.164 13.7564 20.9028 14.4635 20.0543Z" fill="#11337A"/>
</svg>
