<svg width="36" height="36" viewBox="0 0 36 36" fill="none" xmlns="http://www.w3.org/2000/svg">
<rect width="36" height="36" rx="8" fill="#374F8B"/>
<path d="M14.1155 18.9885H16.0338V26.8857C16.0338 27.0416 16.1601 27.168 16.3161 27.168H19.5686C19.7245 27.168 19.8508 27.0416 19.8508 26.8857V19.0257H22.0561C22.1994 19.0257 22.3201 18.9181 22.3364 18.7756L22.6714 15.8683C22.6806 15.7883 22.6552 15.7082 22.6017 15.6482C22.5481 15.5881 22.4715 15.5537 22.391 15.5537H19.8509V13.7312C19.8509 13.1819 20.1467 12.9033 20.7302 12.9033C20.8134 12.9033 22.391 12.9033 22.391 12.9033C22.547 12.9033 22.6733 12.7769 22.6733 12.621V9.95232C22.6733 9.7964 22.547 9.67006 22.391 9.67006H20.1022C20.0861 9.66927 20.0502 9.66797 19.9974 9.66797C19.6002 9.66797 18.2198 9.74593 17.1294 10.7491C15.9212 11.8607 16.0892 13.1917 16.1293 13.4225V15.5537H14.1155C13.9596 15.5537 13.8333 15.68 13.8333 15.8359V18.7062C13.8333 18.8621 13.9596 18.9885 14.1155 18.9885Z" fill="white"/>
</svg>
