<svg width="170" height="40" viewBox="0 0 170 40" fill="none" xmlns="http://www.w3.org/2000/svg">
<g clip-path="url(#clip0_2988_2733)">
<path d="M26.5417 22.6747C29.5236 22.6644 32.3805 21.4663 34.4895 19.3416C36.5984 17.2169 37.7884 14.3379 37.7999 11.3325H43.5668C43.563 15.8855 41.7691 20.2514 38.5781 23.474C35.3871 26.6966 31.059 28.5133 26.5417 28.5262H25.0371V22.6747H26.5417Z" fill="white"/>
<path d="M25.0366 22.6895H3.24121V28.502H25.0366V22.6895Z" fill="#FF5917"/>
<path d="M17.0251 17.1548C14.0382 17.1651 11.1769 18.3673 9.06714 20.4983C6.95735 22.6293 5.77077 25.5158 5.76695 28.5263H0C0.0115003 23.9793 1.80905 19.6219 4.99952 16.4072C8.18999 13.1924 12.5137 11.3819 17.0251 11.3716H22.6566C21.6052 13.1234 21.0498 15.1319 21.0503 17.1792L17.0251 17.1548Z" fill="white"/>
<path d="M11.2578 34.0365C14.2426 34.0262 17.1019 32.8252 19.2106 30.6962C21.3194 28.5671 22.506 25.6832 22.5111 22.6748H28.278C28.2678 27.2218 26.4715 31.5797 23.2819 34.7954C20.0924 38.011 15.7692 39.8228 11.2578 39.8344V34.0365Z" fill="white"/>
<path fill-rule="evenodd" clip-rule="evenodd" d="M37.8001 11.3472H22.657C21.6057 13.099 21.0502 15.1074 21.0508 17.1548H36.1939C37.2452 15.403 37.8006 13.3945 37.8001 11.3472Z" fill="#FF5917"/>
<path d="M32.3084 5.81251C29.3265 5.82278 26.4696 7.0209 24.3606 9.14562C22.2517 11.2703 21.0617 14.1493 21.0502 17.1547H15.293C15.307 12.6102 17.104 8.25577 20.2919 5.04184C23.4797 1.82791 27.7995 0.0154312 32.3084 0V5.81251Z" fill="white"/>
<path d="M105.208 20.7779L105.638 22.6504H105.784L106.093 20.7536L107.903 14.0243H111.086L107.462 24.8594C107.162 25.7566 106.872 26.5693 106.592 27.2975C106.351 27.9762 106.044 28.6295 105.677 29.248C105.392 29.7355 105.016 30.1627 104.569 30.5061C104.147 30.811 103.637 30.9685 103.118 30.9547C102.435 30.9861 101.755 30.8453 101.139 30.5451L101.71 28.0436C101.937 28.1388 102.18 28.1885 102.426 28.1899C102.828 28.1695 103.207 27.9951 103.486 27.7022C103.906 27.2293 104.176 26.6397 104.26 26.0102L99.2764 13.9951H102.997L105.208 20.7779ZM93.403 23.733C93.9159 23.7601 94.4217 23.6029 94.8303 23.2892C95.2041 22.9483 95.4629 22.4982 95.5705 22.0019V16.9111C95.3504 16.7328 95.0994 16.5972 94.8303 16.5112C94.489 16.4139 94.135 16.3695 93.7804 16.3795C93.406 16.3546 93.0312 16.4225 92.6888 16.5772C92.3464 16.7319 92.0468 16.9687 91.8162 17.267C91.3807 17.8619 91.1582 18.8811 91.1582 20.3196C91.1208 21.1783 91.3058 22.032 91.6952 22.7967C91.8638 23.0988 92.1134 23.3469 92.4155 23.5125C92.7175 23.6781 93.0598 23.7545 93.403 23.733ZM98.6668 21.8117C98.6668 22.4798 98.6668 23.1527 98.691 23.8256C98.7153 24.5756 98.788 25.3233 98.9087 26.0638H96.6881L96.2623 24.4985H96.1656C95.8387 25.0677 95.3657 25.5377 94.7964 25.859C94.1503 26.2144 93.4229 26.3927 92.687 26.3759C92.0319 26.4118 91.3773 26.2959 90.7735 26.0373C90.1697 25.7786 89.6327 25.384 89.2036 24.8838C88.3812 23.9085 87.9683 22.3546 87.9651 20.222C87.9651 18.174 88.4263 16.5811 89.3488 15.4433C90.2712 14.3055 91.6227 13.7366 93.403 13.7366C93.8094 13.7314 94.2155 13.7591 94.6174 13.8195C94.9481 13.8802 95.2722 13.9733 95.585 14.0975V9.22119H98.6813L98.6668 21.8117ZM79.2082 14.0097V20.8365C79.1611 21.5595 79.2803 22.2838 79.5566 22.9528C79.6955 23.1794 79.8961 23.3611 80.1346 23.4761C80.373 23.591 80.6393 23.6345 80.9015 23.6013C81.4338 23.6158 81.952 23.4278 82.3529 23.0747C82.7414 22.7182 83.0399 22.2736 83.2238 21.7776V14.0243H86.3202V22.3871C86.3198 23.0385 86.3521 23.6895 86.4169 24.3376C86.4714 24.9175 86.5668 25.4927 86.7024 26.0589H84.3801L83.8334 24.2791H83.7366C83.3599 24.9018 82.8364 25.4211 82.2127 25.7907C81.5135 26.2074 80.712 26.4169 79.9001 26.3954C79.3503 26.4028 78.803 26.3205 78.2793 26.1516C77.819 26.0016 77.4077 25.7286 77.0892 25.3616C76.7379 24.9257 76.4882 24.4157 76.3586 23.8695C76.178 23.0997 76.0951 22.3099 76.1119 21.5191V14.0243L79.2082 14.0097ZM67.1857 14.0097H68.8306V11.7666L71.9318 10.8791V14.0243H74.8346V16.6672H71.9318V21.2802C71.8966 21.8873 71.9804 22.4954 72.1785 23.0698C72.2641 23.2447 72.3997 23.3898 72.5679 23.4863C72.736 23.5828 72.9291 23.6263 73.122 23.611C73.3992 23.6152 73.6758 23.5824 73.9444 23.5135C74.2096 23.4384 74.4685 23.3422 74.7185 23.2258L75.2652 25.6298C74.7851 25.8582 74.2824 26.0347 73.7654 26.1565C73.1962 26.3026 72.6111 26.3763 72.0237 26.3759C71.5837 26.4128 71.1409 26.3559 70.7241 26.2089C70.3073 26.0618 69.9259 25.828 69.6047 25.5225C69.0854 24.9536 68.8274 24.0207 68.8306 22.7236V16.6672H67.1857V14.0097ZM63.5765 21.5045C63.5841 21.267 63.5375 21.0309 63.4402 20.8145C63.3429 20.598 63.1975 20.407 63.0153 20.2562C62.5868 19.9044 62.1152 19.6094 61.6123 19.3785C61.0462 19.1151 60.4366 18.8421 59.7738 18.5641C59.1267 18.2886 58.5118 17.9419 57.9402 17.5303C57.3755 17.1203 56.897 16.6016 56.5323 16.0041C56.1358 15.2942 55.9432 14.4872 55.976 13.6732C55.9603 12.944 56.0971 12.2196 56.3775 11.5472C56.6396 10.9614 57.0359 10.4467 57.5338 10.0453C58.0658 9.63822 58.6726 9.34155 59.319 9.17243C60.0656 8.97355 60.8353 8.87679 61.6074 8.88473C62.5278 8.87926 63.4466 8.96418 64.3506 9.13829C65.0919 9.26362 65.8078 9.51072 66.4697 9.86973L65.444 12.6346C64.9529 12.3525 64.423 12.1454 63.8716 12.0202C63.132 11.8295 62.3709 11.7361 61.6074 11.7422C60.9901 11.703 60.3765 11.8636 59.8561 12.2006C59.6642 12.337 59.5081 12.5184 59.4011 12.729C59.2941 12.9396 59.2394 13.1733 59.2416 13.4099C59.2359 13.6429 59.2836 13.8741 59.3809 14.0855C59.4783 14.2969 59.6226 14.4829 59.8028 14.629C60.2331 14.9835 60.7061 15.2817 61.2107 15.5164C61.7768 15.7895 62.3864 16.0675 63.0443 16.3552C63.693 16.6365 64.3094 16.988 64.8828 17.4036C65.4445 17.8096 65.9213 18.3233 66.2858 18.9152C66.6822 19.5951 66.877 20.3752 66.847 21.1632C66.8672 21.9582 66.7171 22.7482 66.4068 23.4794C66.1261 24.1098 65.7018 24.6645 65.1682 25.0983C64.5975 25.5556 63.9384 25.8877 63.233 26.0736C62.4197 26.2874 61.5819 26.3923 60.7414 26.3856C59.6836 26.4004 58.6279 26.2874 57.5967 26.0492C56.9063 25.9007 56.2345 25.675 55.5938 25.3763L56.6436 22.5627C56.8626 22.681 57.0889 22.7852 57.3209 22.8747C57.6284 22.999 57.9436 23.1032 58.2644 23.1868C58.6288 23.2889 58.9987 23.3703 59.3723 23.4306C59.7691 23.4939 60.1703 23.5249 60.5721 23.5233C61.3461 23.5729 62.1184 23.404 62.8024 23.0356C63.0564 22.8781 63.2628 22.6535 63.3992 22.3861C63.5357 22.1188 63.597 21.819 63.5765 21.5191V21.5045Z" fill="white"/>
<path d="M161.175 14.0243H162.82V11.7666L165.921 10.8792V14.0243H168.824V16.6673H165.921V21.2802C165.886 21.8873 165.969 22.4954 166.167 23.0698C166.253 23.2448 166.389 23.3899 166.557 23.4864C166.725 23.5828 166.918 23.6263 167.111 23.6111C167.388 23.6153 167.665 23.5825 167.933 23.5136C168.199 23.4393 168.458 23.343 168.707 23.2259L169.254 25.6299C168.774 25.8582 168.271 26.0348 167.754 26.1565C167.185 26.3026 166.6 26.3763 166.013 26.3759C165.573 26.4128 165.13 26.3559 164.713 26.2089C164.296 26.0619 163.915 25.828 163.594 25.5226C163.081 24.9521 162.82 24.0207 162.82 22.7236V16.6673H161.175V14.0243ZM160.425 16.9501C159.999 16.7869 159.549 16.6978 159.094 16.6868C158.592 16.6713 158.099 16.8277 157.696 17.1305C157.331 17.4196 157.068 17.8198 156.946 18.2716V26.0395H153.85V14.0243H156.269L156.627 15.614H156.724C156.956 15.0633 157.337 14.5889 157.822 14.2438C158.299 13.915 158.865 13.7446 159.443 13.7561C159.921 13.7682 160.395 13.8571 160.846 14.0195L160.425 16.9501ZM146.404 23.6501C146.928 23.6778 147.447 23.5304 147.88 23.2307C148.209 22.9896 148.486 22.6825 148.692 22.3286V20.7682C148.219 20.7271 147.743 20.7271 147.27 20.7682C146.863 20.7903 146.46 20.8624 146.07 20.9828C145.756 21.0742 145.469 21.2416 145.233 21.4704C145.131 21.5742 145.052 21.6977 144.998 21.8335C144.945 21.9692 144.92 22.1144 144.924 22.2604C144.912 22.453 144.941 22.646 145.009 22.8266C145.076 23.0072 145.181 23.1715 145.316 23.3088C145.622 23.5575 146.011 23.6795 146.404 23.6501ZM142.471 14.7119C143.196 14.3954 143.956 14.1662 144.735 14.0292C145.638 13.8565 146.555 13.7716 147.473 13.7757C148.177 13.7576 148.879 13.8598 149.549 14.078C150.042 14.2345 150.487 14.5171 150.839 14.8982C151.192 15.2793 151.441 15.746 151.561 16.2528C151.703 16.8169 151.771 17.3971 151.765 17.979C151.765 18.6861 151.74 19.3931 151.692 20.105C151.644 20.817 151.619 21.5192 151.61 22.2067C151.6 22.8943 151.61 23.5672 151.668 24.2157C151.713 24.8409 151.833 25.4582 152.026 26.0541H149.5L149.017 24.3962H148.896C148.551 24.9139 148.101 25.3512 147.575 25.6786C146.914 26.0647 146.157 26.2524 145.393 26.2199C144.88 26.2283 144.37 26.1424 143.888 25.9663C143.462 25.8113 143.073 25.567 142.747 25.2495C142.428 24.935 142.176 24.5584 142.006 24.1426C141.827 23.6883 141.738 23.2028 141.745 22.7138C141.722 22.0586 141.89 21.411 142.229 20.8511C142.58 20.3223 143.066 19.8993 143.637 19.6272C144.326 19.2893 145.067 19.0701 145.828 18.9786C146.773 18.8538 147.727 18.8179 148.678 18.8713C148.825 18.2172 148.757 17.5327 148.484 16.9208C148.247 16.5259 147.715 16.3308 146.888 16.3308C146.229 16.334 145.571 16.3993 144.924 16.5259C144.336 16.6157 143.763 16.7796 143.216 17.0135L142.471 14.7119ZM130.637 26.0395V19.5053C130.684 18.7075 130.579 17.908 130.327 17.15C130.211 16.9137 130.025 16.7196 129.794 16.5947C129.563 16.4698 129.3 16.4202 129.04 16.4527C128.564 16.4295 128.096 16.5879 127.729 16.8965C127.387 17.2091 127.125 17.6006 126.965 18.0375V26.0395H123.868V14.0243H126.288L126.641 15.614H126.737C127.118 15.0847 127.59 14.6288 128.131 14.2682C128.784 13.8578 129.544 13.6556 130.313 13.6879C130.97 13.6655 131.62 13.8348 132.185 14.1755C132.722 14.5626 133.12 15.1155 133.317 15.7505C133.66 15.1469 134.143 14.6364 134.725 14.2633C135.347 13.8786 136.067 13.6854 136.796 13.7074C137.373 13.6944 137.948 13.7768 138.499 13.9512C138.957 14.1004 139.358 14.3902 139.645 14.7802C139.974 15.2495 140.196 15.7853 140.298 16.3503C140.459 17.174 140.532 18.0126 140.516 18.8518V26.0395H137.405V19.2858C137.44 18.5648 137.34 17.8435 137.11 17.1598C136.991 16.9161 136.799 16.7165 136.561 16.5895C136.323 16.4625 136.051 16.4146 135.785 16.4527C135.302 16.4255 134.828 16.59 134.464 16.9111C134.112 17.2514 133.861 17.6836 133.738 18.1594V26.0395H130.637ZM119.026 21.5192C119.032 21.2818 118.985 21.0461 118.888 20.8298C118.791 20.6135 118.646 20.4224 118.464 20.2708C118.035 19.918 117.562 19.6229 117.057 19.3931C116.495 19.1298 115.881 18.8567 115.223 18.5788C114.575 18.3043 113.96 17.9576 113.389 17.545C112.823 17.1363 112.345 16.6173 111.981 16.0187C111.583 15.3094 111.389 14.5023 111.42 13.6879C111.404 12.9581 111.542 12.2332 111.827 11.5618C112.087 10.9751 112.484 10.46 112.983 10.0599C113.51 9.64795 114.114 9.34622 114.758 9.17246C115.505 8.9733 116.275 8.87652 117.047 8.88476C117.966 8.8793 118.883 8.96422 119.785 9.13833C120.528 9.26288 121.246 9.51001 121.909 9.86977L120.883 12.6346C120.392 12.3533 119.862 12.1463 119.311 12.0202C118.571 11.8301 117.81 11.7367 117.047 11.7423C116.43 11.7031 115.816 11.8637 115.295 12.2006C115.104 12.3371 114.948 12.5184 114.841 12.729C114.733 12.9397 114.679 13.1733 114.681 13.4099C114.678 13.6404 114.727 13.8686 114.824 14.0773C114.921 14.2859 115.064 14.4696 115.242 14.6144C115.673 14.9689 116.146 15.2671 116.65 15.5019C117.211 15.7749 117.826 16.0529 118.484 16.3406C119.131 16.622 119.746 16.9735 120.317 17.389C120.882 17.7935 121.36 18.3074 121.725 18.9006C122.119 19.5814 122.314 20.3608 122.286 21.1486C122.304 21.9434 122.154 22.7329 121.846 23.4648C121.564 24.0957 121.138 24.6504 120.603 25.0837C120.032 25.541 119.373 25.8731 118.668 26.059C117.856 26.2728 117.02 26.3777 116.181 26.371C115.121 26.386 114.064 26.2731 113.031 26.0346C112.341 25.8846 111.67 25.6589 111.028 25.3617L112.078 22.5481C112.299 22.6663 112.527 22.7705 112.76 22.8601C113.066 22.9838 113.38 23.088 113.699 23.1722C114.064 23.2738 114.433 23.3552 114.807 23.416C115.205 23.4791 115.608 23.5101 116.011 23.5087C116.785 23.5578 117.558 23.389 118.242 23.0211C118.494 22.8645 118.699 22.6423 118.836 22.378C118.973 22.1137 119.037 21.817 119.021 21.5192H119.026Z" fill="#FF5917"/>
<path d="M168.988 37.5763C169.039 37.574 169.091 37.5828 169.138 37.6022C169.186 37.6215 169.229 37.6509 169.264 37.6885C169.3 37.7248 169.329 37.7682 169.348 37.8159C169.367 37.8637 169.376 37.9149 169.375 37.9664C169.376 38.0702 169.336 38.17 169.264 38.2444C169.229 38.2825 169.186 38.3127 169.139 38.3329C169.091 38.353 169.04 38.3628 168.988 38.3614C168.938 38.3633 168.887 38.3543 168.841 38.335C168.794 38.3156 168.752 38.2864 168.717 38.2492C168.682 38.2118 168.654 38.1674 168.635 38.1188C168.617 38.0702 168.609 38.0184 168.611 37.9664C168.609 37.9152 168.617 37.8641 168.636 37.8163C168.654 37.7685 168.682 37.725 168.717 37.6885C168.752 37.6513 168.794 37.6221 168.841 37.6027C168.887 37.5834 168.938 37.5744 168.988 37.5763ZM168.712 32.3392H169.274V33.8021L169.187 36.523H168.79L168.712 33.8021V32.3392ZM165.669 33.7338C165.9 33.723 166.13 33.7607 166.345 33.8447C166.559 33.9287 166.755 34.057 166.918 34.2214C167.23 34.5796 167.39 35.0473 167.363 35.5234V38.2785H166.777V35.6258C166.798 35.2561 166.673 34.8932 166.429 34.6164C166.301 34.4926 166.149 34.3971 165.982 34.3358C165.816 34.2745 165.638 34.2488 165.461 34.2605C165.249 34.2539 165.039 34.2941 164.844 34.3783C164.649 34.4626 164.475 34.5888 164.334 34.7481C164.046 35.1104 163.899 35.5667 163.923 36.0305V38.2785H163.337V35.6258C163.358 35.2561 163.233 34.8932 162.989 34.6164C162.861 34.4926 162.709 34.3971 162.542 34.3358C162.376 34.2745 162.198 34.2488 162.021 34.2605C161.809 34.2531 161.597 34.293 161.402 34.3773C161.206 34.4616 161.031 34.5881 160.889 34.7481C160.599 35.1097 160.451 35.5661 160.473 36.0305V38.2785H159.898V33.7387H160.473V34.8066C160.603 34.471 160.837 34.187 161.141 33.9971C161.471 33.8122 161.842 33.7164 162.22 33.7192C162.602 33.7039 162.978 33.8171 163.289 34.041C163.579 34.2636 163.78 34.5837 163.855 34.9431C163.967 34.5723 164.201 34.2508 164.518 34.0313C164.866 33.8247 165.265 33.7216 165.669 33.7338ZM156.221 37.8348C156.581 37.847 156.938 37.7484 157.241 37.5519C157.518 37.3665 157.718 37.0855 157.803 36.762V36.1378H156.351C156.037 36.1168 155.723 36.1862 155.447 36.3377C155.347 36.4001 155.266 36.4882 155.211 36.5928C155.157 36.6973 155.131 36.8147 155.137 36.9327C155.133 37.0576 155.158 37.1818 155.21 37.2953C155.262 37.4088 155.34 37.5084 155.437 37.5861C155.661 37.7601 155.938 37.8483 156.221 37.8348ZM157.812 38.2931V37.5324C157.639 37.7916 157.398 37.9975 157.116 38.1273C156.81 38.2587 156.48 38.3251 156.148 38.3224C155.87 38.3266 155.595 38.2648 155.345 38.142C155.124 38.0336 154.938 37.8646 154.808 37.6543C154.682 37.4425 154.616 37.1993 154.619 36.9522C154.612 36.7722 154.65 36.5934 154.728 36.4317C154.807 36.27 154.924 36.1305 155.069 36.0257C155.435 35.7779 155.872 35.658 156.313 35.6843H157.822V35.3527C157.832 35.1999 157.809 35.0467 157.755 34.9036C157.7 34.7605 157.616 34.631 157.508 34.5238C157.247 34.3084 156.915 34.202 156.579 34.2263C156.049 34.2462 155.54 34.4378 155.127 34.7725L154.871 34.3726C155.139 34.1729 155.432 34.009 155.742 33.885C156.044 33.7771 156.364 33.7243 156.685 33.7289C157.143 33.7003 157.594 33.8485 157.948 34.1434C158.101 34.289 158.221 34.4664 158.3 34.6634C158.378 34.8605 158.413 35.0724 158.403 35.2845V38.2883L157.812 38.2931ZM153.265 35.7623C153.253 35.3367 153.08 34.9318 152.781 34.6311C152.632 34.4899 152.458 34.38 152.266 34.308C152.075 34.236 151.872 34.2032 151.668 34.2117C151.249 34.1985 150.841 34.3507 150.531 34.6359C150.224 34.9329 150.038 35.3345 150.009 35.7623H153.265ZM151.673 33.7338C151.973 33.7126 152.275 33.7624 152.553 33.8793C152.831 33.9961 153.078 34.1767 153.274 34.4067C153.663 34.9243 153.844 35.57 153.782 36.2158H150.023C150.045 36.6603 150.236 37.0792 150.555 37.3861C150.872 37.685 151.292 37.8462 151.726 37.8348C152 37.8363 152.271 37.7833 152.524 37.6787C152.766 37.5781 152.984 37.4269 153.163 37.235L153.487 37.5666C153.267 37.8032 153 37.9909 152.703 38.1176C152.382 38.2486 152.039 38.3148 151.692 38.3126C151.286 38.3202 150.886 38.2192 150.531 38.0201C150.195 37.8321 149.92 37.5512 149.738 37.2106C149.54 36.8479 149.44 36.4394 149.447 36.0257C149.441 35.6121 149.541 35.2039 149.738 34.8407C149.92 34.4987 150.195 34.2161 150.531 34.0264C150.879 33.829 151.273 33.7281 151.673 33.7338ZM147.372 34.8115C147.503 34.488 147.727 34.2113 148.015 34.0166C148.316 33.8297 148.663 33.7317 149.017 33.7338V34.28C148.807 34.2671 148.597 34.2982 148.399 34.3712C148.202 34.4442 148.022 34.5576 147.87 34.7042C147.573 35.02 147.401 35.4346 147.386 35.8696V38.3078H146.811V33.768H147.372V34.8115ZM142.79 37.825C143.099 37.8315 143.404 37.7522 143.671 37.5958C143.926 37.4446 144.136 37.2253 144.276 36.9619C144.419 36.6726 144.493 36.3538 144.493 36.0305C144.493 35.7073 144.419 35.3884 144.276 35.0992C144.136 34.833 143.927 34.6104 143.671 34.4555C143.404 34.2974 143.099 34.2165 142.79 34.2214C142.486 34.2157 142.187 34.2947 141.925 34.4495C141.663 34.6044 141.448 34.8292 141.305 35.0992C141.153 35.3855 141.077 35.7061 141.082 36.0305C141.077 36.3544 141.152 36.6745 141.3 36.9619C141.44 37.2267 141.652 37.4463 141.91 37.5958C142.17 37.7475 142.465 37.8266 142.766 37.825H142.79ZM145.069 31.8662V38.2785H144.469V37.2545C144.309 37.5836 144.059 37.8595 143.748 38.0493C143.419 38.2397 143.044 38.3358 142.664 38.3273C142.266 38.3342 141.874 38.2332 141.528 38.0347C141.198 37.8388 140.929 37.5531 140.753 37.2106C140.569 36.8401 140.476 36.4303 140.482 36.0159C140.475 35.6024 140.57 35.1935 140.758 34.8261C140.939 34.4892 141.206 34.2078 141.532 34.0118C141.873 33.814 142.261 33.7129 142.655 33.7192C143.037 33.7099 143.415 33.8096 143.743 34.0069C144.057 34.1951 144.309 34.4713 144.469 34.8017V31.876L145.069 31.8662ZM136.302 31.8662H136.878V38.2785H136.302V31.8662ZM132.563 37.8348C132.922 37.8476 133.277 37.7488 133.579 37.5519C133.857 37.3671 134.058 37.0861 134.145 36.762V36.1378H132.693C132.381 36.1167 132.068 36.1861 131.793 36.3377C131.693 36.3994 131.611 36.4872 131.557 36.592C131.502 36.6968 131.477 36.8145 131.484 36.9327C131.479 37.0573 131.503 37.1813 131.554 37.2949C131.605 37.4084 131.682 37.5081 131.779 37.5861C131.996 37.7543 132.264 37.8421 132.538 37.8348H132.563ZM134.149 38.2931V37.5324C133.976 37.7916 133.735 37.9975 133.453 38.1273C133.139 38.2606 132.801 38.327 132.461 38.3224C132.183 38.3261 131.908 38.2643 131.658 38.142C131.437 38.0336 131.251 37.8646 131.121 37.6543C130.995 37.4425 130.929 37.1993 130.932 36.9522C130.925 36.7722 130.963 36.5934 131.041 36.4317C131.12 36.27 131.237 36.1305 131.382 36.0257C131.749 35.7786 132.185 35.6588 132.625 35.6843H134.14V35.3527C134.149 35.1996 134.125 35.0462 134.07 34.9032C134.015 34.7601 133.93 34.6307 133.82 34.5238C133.56 34.3084 133.228 34.202 132.892 34.2263C132.362 34.2462 131.853 34.4378 131.44 34.7725L131.184 34.3726C131.45 34.1718 131.741 34.0078 132.05 33.885C132.36 33.7744 132.688 33.7216 133.017 33.7289C133.475 33.7018 133.926 33.8498 134.28 34.1434C134.432 34.2903 134.551 34.468 134.629 34.6647C134.708 34.8614 134.744 35.0727 134.735 35.2845V38.2883L134.149 38.2931ZM129.907 34.7822C129.728 34.607 129.517 34.4694 129.285 34.3773C129.053 34.2852 128.806 34.2405 128.557 34.2458C128.251 34.2416 127.95 34.3208 127.686 34.475C127.43 34.6198 127.221 34.8368 127.086 35.0992C126.943 35.3867 126.868 35.704 126.868 36.0257C126.868 36.3473 126.943 36.6646 127.086 36.9522C127.221 37.2159 127.43 37.4344 127.686 37.5812C127.95 37.7354 128.251 37.8146 128.557 37.8104C128.832 37.8123 129.105 37.7593 129.36 37.6543C129.596 37.5528 129.807 37.3976 129.974 37.2008L130.298 37.5471C130.097 37.7953 129.838 37.9896 129.544 38.1127C129.222 38.2485 128.876 38.3166 128.528 38.3126C128.125 38.3196 127.728 38.2187 127.376 38.0201C127.034 37.8339 126.753 37.5508 126.568 37.2057C126.378 36.8412 126.278 36.4353 126.278 36.0232C126.278 35.6111 126.378 35.2053 126.568 34.8407C126.75 34.4987 127.026 34.2161 127.362 34.0264C127.713 33.8278 128.11 33.7268 128.513 33.7338C128.844 33.7277 129.173 33.7874 129.481 33.9094C129.76 34.0187 130.013 34.1847 130.226 34.397L129.907 34.7822ZM124.807 32.0369C124.86 32.0348 124.912 32.0442 124.96 32.0644C125.009 32.0846 125.052 32.1151 125.088 32.1539C125.126 32.192 125.156 32.2377 125.176 32.288C125.196 32.3384 125.206 32.3923 125.204 32.4465C125.205 32.5006 125.195 32.5544 125.175 32.6046C125.155 32.6549 125.126 32.7006 125.088 32.7391C125.052 32.7782 125.009 32.8093 124.961 32.8303C124.912 32.8514 124.86 32.8618 124.807 32.861C124.753 32.8626 124.699 32.8525 124.649 32.8315C124.599 32.8105 124.554 32.779 124.517 32.7391C124.479 32.7006 124.449 32.6549 124.429 32.6046C124.41 32.5544 124.4 32.5006 124.401 32.4465C124.399 32.3923 124.409 32.3385 124.429 32.2882C124.449 32.2379 124.479 32.1922 124.517 32.1539C124.555 32.1156 124.6 32.0854 124.65 32.0653C124.7 32.0452 124.753 32.0355 124.807 32.0369ZM124.512 33.7533H125.088V38.2785H124.488L124.512 33.7533ZM120.506 37.825C120.815 37.8315 121.12 37.7522 121.387 37.5958C121.642 37.4446 121.852 37.2253 121.991 36.9619C122.135 36.6726 122.209 36.3538 122.209 36.0305C122.209 35.7073 122.135 35.3884 121.991 35.0992C121.852 34.833 121.643 34.6104 121.387 34.4555C121.12 34.2974 120.815 34.2165 120.506 34.2214C120.202 34.2157 119.903 34.2947 119.641 34.4495C119.379 34.6044 119.164 34.8292 119.021 35.0992C118.869 35.3855 118.793 35.7061 118.798 36.0305C118.793 36.3544 118.868 36.6745 119.016 36.9619C119.156 37.2267 119.368 37.4463 119.626 37.5958C119.886 37.7475 120.181 37.8266 120.482 37.825H120.506ZM122.785 31.8662V38.2785H122.209V37.2545C122.049 37.5836 121.799 37.8595 121.488 38.0493C121.159 38.2397 120.784 38.3358 120.405 38.3273C120.006 38.3342 119.614 38.2332 119.268 38.0347C118.938 37.8399 118.671 37.5539 118.498 37.2106C118.311 36.8413 118.216 36.4309 118.223 36.0159C118.215 35.6024 118.31 35.1935 118.498 34.8261C118.679 34.4892 118.946 34.2078 119.273 34.0118C119.614 33.814 120.001 33.7129 120.395 33.7192C120.777 33.7093 121.155 33.8091 121.483 34.0069C121.797 34.1951 122.049 34.4713 122.209 34.8017V31.876L122.785 31.8662ZM116.979 35.7672C116.968 35.3416 116.794 34.9367 116.495 34.6359C116.347 34.4945 116.172 34.3845 115.981 34.3125C115.79 34.2404 115.587 34.2078 115.383 34.2166C114.965 34.2036 114.559 34.3559 114.251 34.6408C113.941 34.9362 113.752 35.3383 113.723 35.7672H116.979ZM115.392 33.7387C115.692 33.7183 115.992 33.7685 116.269 33.8853C116.547 34.0021 116.793 34.1823 116.989 34.4116C117.377 34.9292 117.558 35.5748 117.497 36.2207H113.699C113.723 36.6657 113.915 37.0846 114.236 37.391C114.551 37.6896 114.97 37.8508 115.402 37.8396C115.676 37.8416 115.947 37.7885 116.2 37.6836C116.442 37.583 116.66 37.4317 116.839 37.2398L117.163 37.5714C116.943 37.8081 116.676 37.9958 116.379 38.1225C116.058 38.2534 115.715 38.3197 115.368 38.3175C114.962 38.3251 114.562 38.2241 114.207 38.0249C113.871 37.8369 113.596 37.5561 113.414 37.2155C113.216 36.8528 113.116 36.4443 113.123 36.0305C113.117 35.6169 113.217 35.2088 113.414 34.8456C113.596 34.5035 113.871 34.221 114.207 34.0313C114.556 33.8316 114.952 33.7289 115.354 33.7338L115.392 33.7387ZM110.404 33.7387C110.635 33.7278 110.865 33.7656 111.08 33.8496C111.295 33.9336 111.49 34.0619 111.653 34.2263C111.965 34.5845 112.125 35.0522 112.098 35.5283V38.2785H111.474V35.6258C111.495 35.2561 111.369 34.8932 111.125 34.6164C110.997 34.4926 110.845 34.3971 110.679 34.3358C110.512 34.2745 110.335 34.2488 110.158 34.2605C109.945 34.2531 109.733 34.293 109.538 34.3773C109.342 34.4616 109.167 34.5881 109.026 34.7481C108.741 35.112 108.596 35.5676 108.619 36.0305V38.2785H108.034V35.6258C108.055 35.2561 107.929 34.8932 107.685 34.6164C107.557 34.4926 107.405 34.3971 107.239 34.3358C107.072 34.2745 106.895 34.2488 106.718 34.2605C106.504 34.2524 106.292 34.2919 106.095 34.3762C105.899 34.4605 105.723 34.5875 105.581 34.7481C105.295 35.1115 105.149 35.567 105.17 36.0305V38.2785H104.594V33.7387H105.17V34.8066C105.299 34.471 105.534 34.187 105.837 33.9971C106.167 33.8122 106.539 33.7164 106.916 33.7192C107.298 33.7046 107.674 33.8178 107.985 34.041C108.275 34.2626 108.475 34.5834 108.547 34.9431C108.662 34.5726 108.897 34.2517 109.214 34.0313C109.562 33.8242 109.962 33.721 110.366 33.7338L110.404 33.7387ZM99.7171 34.8163C99.8483 34.4941 100.07 34.2178 100.356 34.0215C100.658 33.8369 101.004 33.7391 101.357 33.7387V34.2848C101.148 34.2732 100.938 34.3048 100.741 34.3778C100.543 34.4507 100.363 34.5634 100.211 34.7091C99.911 35.0233 99.7385 35.4389 99.7268 35.8745V38.3126H99.1511V33.7728H99.7268L99.7171 34.8163ZM97.4675 33.7582V38.2785H96.8821V37.196C96.7511 37.5321 96.5173 37.8174 96.2144 38.0103C95.8913 38.2041 95.5211 38.3036 95.1452 38.298C94.9142 38.3086 94.6836 38.2708 94.4678 38.1868C94.2521 38.1029 94.0561 37.9747 93.8921 37.8104C93.7363 37.6346 93.6163 37.4295 93.5391 37.207C93.4619 36.9844 93.429 36.7487 93.4422 36.5133V33.7241H94.0276V36.3768C94.0172 36.5583 94.0426 36.7402 94.1024 36.9117C94.1622 37.0833 94.2552 37.2413 94.3759 37.3764C94.5036 37.5008 94.6556 37.5971 94.8222 37.6592C94.9887 37.7214 95.1663 37.7479 95.3435 37.7372C95.5564 37.7466 95.7687 37.7077 95.9647 37.6233C96.1606 37.5389 96.3352 37.4112 96.4756 37.2496C96.7647 36.8856 96.9126 36.4281 96.8917 35.9623V33.7338L97.4675 33.7582ZM90.104 34.2458C89.7974 34.24 89.4949 34.3175 89.2283 34.4701C88.9732 34.6183 88.7651 34.8364 88.6283 35.0992C88.4852 35.3893 88.4107 35.7089 88.4107 36.033C88.4107 36.357 88.4852 36.6766 88.6283 36.9668C88.7651 37.2295 88.9732 37.4477 89.2283 37.5958C89.4949 37.7485 89.7974 37.8259 90.104 37.8201C90.4121 37.8259 90.7161 37.7484 90.9845 37.5958C91.2384 37.4462 91.4461 37.2284 91.5844 36.9668C91.7244 36.6757 91.7971 36.3564 91.7971 36.033C91.7971 35.7095 91.7244 35.3902 91.5844 35.0992C91.4461 34.8375 91.2384 34.6197 90.9845 34.4701C90.7052 34.3089 90.3869 34.2295 90.0652 34.2409L90.104 34.2458ZM90.104 33.7582C90.5129 33.7512 90.9164 33.8521 91.2748 34.0508C91.6135 34.2396 91.8934 34.5199 92.0827 34.8602C92.2813 35.221 92.383 35.6278 92.3778 36.0403C92.3829 36.4559 92.2813 36.8658 92.0827 37.2301C91.8964 37.574 91.616 37.8567 91.2748 38.0444C90.9148 38.2366 90.5137 38.337 90.1064 38.337C89.6991 38.337 89.2979 38.2366 88.938 38.0444C88.5968 37.8567 88.3163 37.574 88.13 37.2301C87.9291 36.8667 87.8273 36.4562 87.8349 36.0403C87.8274 35.6275 87.9293 35.2201 88.13 34.8602C88.3194 34.5199 88.5992 34.2396 88.938 34.0508C89.2808 33.8501 89.6688 33.741 90.0652 33.7338L90.104 33.7582ZM85.5417 38.9661C85.4202 39.272 85.2198 39.5397 84.9611 39.7414C84.7404 39.9194 84.4649 40.0143 84.1822 40.0096C83.8464 40.0147 83.5188 39.9047 83.2533 39.6975L83.5097 39.2537C83.6977 39.3887 83.9224 39.4619 84.1532 39.4634C84.3307 39.4594 84.5016 39.394 84.637 39.2781C84.8007 39.1358 84.9271 38.9549 85.0047 38.7515L85.1933 38.2639L83.3307 33.7484H83.9403L85.4885 37.6495L86.9737 33.7484H87.5688L85.5417 38.9661ZM78.5701 33.7582C78.8032 33.7482 79.0358 33.7863 79.2538 33.8701C79.4718 33.954 79.6704 34.0818 79.8376 34.2458C79.9959 34.4204 80.1181 34.625 80.197 34.8477C80.2759 35.0705 80.31 35.3068 80.2972 35.5429V38.2785H79.7118V35.6258C79.7222 35.4431 79.6964 35.2602 79.6357 35.0877C79.5751 34.9152 79.4809 34.7566 79.3587 34.6213C79.23 34.4983 79.0779 34.4029 78.9116 34.3409C78.7452 34.2789 78.5682 34.2515 78.3911 34.2605C78.1717 34.2503 77.9527 34.2887 77.7496 34.373C77.5465 34.4572 77.3642 34.5852 77.2154 34.7481C76.9185 35.1102 76.7666 35.5711 76.7897 36.0403V38.2785H76.2139V31.8662H76.7364V34.8261C76.8837 34.4769 77.1364 34.1835 77.4586 33.9874C77.7809 33.7913 78.1562 33.7026 78.5314 33.7338L78.5701 33.7582ZM74.4771 34.8066C74.2986 34.6314 74.0874 34.4937 73.8557 34.4016C73.6239 34.3096 73.3763 34.2649 73.1273 34.2702C72.8219 34.2672 72.5213 34.3463 72.2564 34.4994C72.0015 34.6456 71.7934 34.8621 71.6565 35.1236C71.5164 35.412 71.4435 35.7289 71.4435 36.05C71.4435 36.3712 71.5164 36.6881 71.6565 36.9765C71.7933 37.2393 72.0013 37.4574 72.2564 37.6056C72.5213 37.7586 72.8219 37.8377 73.1273 37.8348C73.4026 37.8372 73.6757 37.7842 73.9304 37.6787C74.1678 37.5784 74.3783 37.423 74.5448 37.2252L74.8738 37.5714C74.6687 37.818 74.4083 38.0119 74.1142 38.1371C73.7943 38.2729 73.4502 38.341 73.1031 38.337C72.6988 38.3439 72.2999 38.243 71.9468 38.0444C71.6119 37.8532 71.337 37.571 71.1533 37.2301C70.9658 36.8646 70.868 36.4591 70.868 36.0476C70.868 35.6361 70.9658 35.2306 71.1533 34.8651C71.3384 34.5252 71.613 34.2435 71.9468 34.0508C72.2999 33.8522 72.6988 33.7513 73.1031 33.7582C73.4338 33.7531 73.7624 33.8128 74.0707 33.9337C74.3488 34.0419 74.601 34.2081 74.8109 34.4214L74.4771 34.8066ZM69.6632 33.7777V38.2785H69.0778V37.196C68.9469 37.5321 68.713 37.8174 68.4102 38.0103C68.087 38.2041 67.7169 38.3036 67.341 38.298C67.11 38.308 66.8796 38.2699 66.6639 38.186C66.4483 38.1021 66.2522 37.9742 66.0879 37.8104C65.932 37.6346 65.8121 37.4295 65.7349 37.207C65.6577 36.9844 65.6248 36.7487 65.638 36.5133V33.7241H66.2234V36.3768C66.213 36.5583 66.2384 36.7402 66.2982 36.9117C66.358 37.0833 66.4509 37.2413 66.5717 37.3764C66.6994 37.5008 66.8514 37.5971 67.0179 37.6592C67.1845 37.7214 67.362 37.7479 67.5393 37.7372C67.7528 37.7453 67.9653 37.7057 68.1619 37.6214C68.3584 37.5372 68.534 37.4102 68.6763 37.2496C68.964 36.8851 69.1102 36.4275 69.0875 35.9623V33.7338L69.6632 33.7777ZM62.3046 34.2653C61.9965 34.2596 61.6924 34.337 61.424 34.4896C61.1701 34.6392 60.9624 34.857 60.8241 35.1187C60.6841 35.4097 60.6114 35.729 60.6114 36.0525C60.6114 36.3759 60.6841 36.6952 60.8241 36.9863C60.9624 37.248 61.1701 37.4657 61.424 37.6153C61.6924 37.7679 61.9965 37.8454 62.3046 37.8396C62.6111 37.8455 62.9136 37.768 63.1802 37.6153C63.4353 37.4672 63.6434 37.249 63.7802 36.9863C63.9233 36.6962 63.9979 36.3765 63.9979 36.0525C63.9979 35.7284 63.9233 35.4088 63.7802 35.1187C63.6434 34.8559 63.4353 34.6378 63.1802 34.4896C62.9048 34.3215 62.5878 34.2353 62.2659 34.2409L62.3046 34.2653ZM62.3046 33.7777C62.7119 33.7707 63.114 33.8716 63.4705 34.0703C63.8093 34.2591 64.0891 34.5394 64.2785 34.8797C64.4792 35.2396 64.5811 35.647 64.5736 36.0598C64.5812 36.4757 64.4794 36.8862 64.2785 37.2496C64.0922 37.5935 63.8118 37.8762 63.4705 38.0639C63.1106 38.2561 62.7095 38.3565 62.3021 38.3565C61.8948 38.3565 61.4937 38.2561 61.1338 38.0639C60.772 37.8706 60.4769 37.5714 60.2871 37.2057C60.09 36.841 59.99 36.4311 59.9968 36.0159C59.9899 35.6038 60.09 35.197 60.2871 34.8359C60.4764 34.4955 60.7563 34.2152 61.0951 34.0264C61.4534 33.8277 61.857 33.7268 62.2659 33.7338L62.3046 33.7777ZM55.6426 32.2709H60.2049V32.8171H58.2213V38.2785H57.6262V32.7732H55.6426V32.2709Z" fill="white"/>
</g>
<defs>
<clipPath id="clip0_2988_2733">
<rect width="169.375" height="40" fill="white"/>
</clipPath>
</defs>
</svg>
