<svg width="32" height="32" viewBox="0 0 32 32" fill="none" xmlns="http://www.w3.org/2000/svg">
<path d="M23.7529 9.04596L23.9718 9.0548L23.9807 9.04585L23.9983 9.0478L24.0389 9.0457C25.6039 8.96503 26.8038 7.67429 26.8198 6.11147L26.8198 6.11147V6.10636C26.8198 4.48178 25.5008 3.16636 23.8665 3.16636C22.2436 3.16636 20.9265 4.48356 20.9265 6.10636C20.9265 7.69541 22.1656 8.98182 23.7529 9.04596ZM23.9998 10.0464H23.9996H23.9993H23.9991H23.9989H23.9986H23.9984H23.9982H23.9979H23.9977H23.9975H23.9972H23.997H23.9968H23.9965H23.9963H23.9961H23.9958H23.9956H23.9954H23.9952H23.9949H23.9947H23.9945H23.9942H23.994H23.9938H23.9936H23.9933H23.9931H23.9929H23.9927H23.9924H23.9922H23.992H23.9918H23.9915H23.9913H23.9911H23.9909H23.9906H23.9904H23.9902H23.99H23.9898H23.9895H23.9893H23.9891H23.9889H23.9886H23.9884H23.9882H23.988H23.9878H23.9875H23.9873H23.9871H23.9869H23.9867H23.9864H23.9862H23.986H23.9858H23.9856H23.9854H23.9851H23.9849H23.9847H23.9845H23.9843H23.9841H23.9838H23.9836H23.9834H23.9832H23.983H23.9828H23.9826H23.9823H23.9821H23.9819H23.9817H23.9815H23.9813H23.9811H23.9808H23.9806H23.9804H23.9802H23.98H23.9798H23.9796H23.9794H23.9791H23.9789H23.9787H23.9785H23.9783H23.9781H23.9779H23.9777H23.9775H23.9773H23.977H23.9768H23.9766H23.9764H23.9762H23.976H23.9758H23.9756H23.9754H23.9752H23.975H23.9748H23.9745H23.9743H23.9741H23.9739H23.9737H23.9735H23.9733H23.9731H23.9729H23.9727H23.9725H23.9723H23.9721H23.9719H23.9717H23.9715H23.9713H23.9711H23.9708H23.9706H23.9704H23.9702H23.97H23.9698H23.9696H23.9694H23.9692H23.969H23.9688H23.9686H23.9684H23.9682H23.968H23.9678H23.9676H23.9674H23.9672H23.967H23.9668H23.9666H23.9664H23.9662H23.966H23.9658H23.9656H23.9654H23.9652H23.965H23.9648H23.9646H23.9644H23.9642H23.964H23.9638H23.9636H23.9634H23.9632H23.963H23.9628H23.9626H23.9624H23.9622H23.962H23.9618H23.9616H23.9614H23.9612H23.961H23.9608H23.9606H23.9604H23.9602H23.96H23.9598H23.9596H23.9594H23.9592H23.959H23.9588H23.9586H23.9584H23.9582H23.958H23.9578H23.9576H23.9574H23.9572H23.957H23.9568H23.9566H23.9564H23.9562H23.956H23.9558H23.9557H23.9555H23.9553H23.9551H23.9549H23.9547H23.9545H23.9543H23.9541H23.9539H23.9537H23.9535H23.9533H23.9531H23.9529H23.9527H23.9525H23.9523H23.9521H23.9519H23.9517H23.9515H23.9513H23.9511H23.9509H23.9508H23.9506H23.9504H23.9502H23.95H23.9498H23.9496H23.9494H23.9492H23.949H23.9488H23.9486H23.9484H23.9482H23.948H23.9478H23.9476H23.9474H23.9472H23.947H23.9468H23.9466H23.9465H23.9463H23.9461H23.9459H23.9457H23.9455H23.9453H23.9451H23.9449H23.9447H23.9445H23.9443H23.9441H23.9439H23.9437H23.9435H23.9433H23.9431H23.9429H23.9427H23.9425H23.9423H23.9422H23.942H23.9418H23.9416H23.9414H23.9412H23.941H23.9408H23.9406H23.9404H23.9402H23.94H23.9398H23.9396H23.9394H23.9392H23.939H23.9388H23.9386H23.9384H23.9382H23.938H23.9378H23.9376H23.9374H23.9373H23.9371H23.9369H23.9367H23.9365H23.9363H23.9361H23.9359H23.9357H23.9355H23.9353H23.9351H23.9349H23.9347H23.9345H23.9343H23.9341H23.9339H23.9337H23.9335H23.9333H23.9331H23.9329H23.9327H23.9325H23.9323H23.9321H23.9319H23.9317H23.9315H23.9313H23.9311H23.9309H23.9307H23.9305H23.9303H23.9301H23.9299H23.9297H23.9295H23.9293H23.9291H23.9289H23.9287H23.9285H23.9283H23.9281H23.9279H23.9277H23.9275H23.9273H23.9271H23.9269H23.9267H23.9265H23.9263H23.9261H23.9259H23.9257H23.9255H23.9253H23.9251H23.9249H23.9247H23.9245H23.9243H23.9241H23.9239H23.9237H23.9235H23.9233H23.9231H23.9229H23.9227H23.9225H23.9223H23.9221H23.9219H23.9216H23.9214H23.9212H23.921H23.9208H23.9206H23.9204H23.9202H23.92H23.9198H23.9196H23.9194H23.9192H23.919H23.9188H23.9186H23.9184H23.9181H23.9179H23.9177H23.9175H23.9173H23.9171H23.9169H23.9167H23.9165H23.9163H23.9161H23.9159H23.9156H23.9154H23.9152H23.915H23.9148H23.9146H23.9144H23.9142H23.914H23.9138H23.9135H23.9133H23.9131H23.9129H23.9127H23.9125H23.9123H23.9121H23.9118H23.9116H23.9114H23.9112H23.911H23.9108H23.9106H23.9104H23.9101H23.9099H23.9097H23.9095H23.9093H23.9091H23.9088H23.9086H23.9084H23.9082H23.908H23.9078H23.9075H23.9073H23.9071H23.9069H23.9067H23.9065H23.9062H23.906H23.9058H23.9056H23.9054H23.9051H23.9049H23.9047H23.9045H23.9043H23.904H23.9038H23.9036H23.9034H23.9032H23.9029H23.9027H23.9025H23.9023H23.902H23.9018H23.9016H23.9014H23.9011H23.9009H23.9007H23.9005H23.9002H23.9H23.8998H23.8996H23.8993H23.8991H23.8989H23.8987H23.8984H23.8982H23.898H23.8977H23.8975H23.8973H23.8971H23.8968H23.8966H23.8964H23.8961H23.8959H23.8957H23.8954H23.8952H23.895H23.8948H23.8945H23.8943H23.8941H23.8938H23.8936H23.8934H23.8931H23.8346C21.5805 9.97098 19.9265 8.23946 19.9265 6.11969C19.9265 3.94348 21.7016 2.17969 23.8665 2.17969C26.0299 2.17969 27.8057 3.95508 27.8065 6.11831C27.7941 8.23016 26.1789 9.93253 24.1005 10.0552C24.0831 10.0519 24.0699 10.0504 24.0625 10.0496C24.0396 10.0471 24.0212 10.0466 24.0143 10.0465L23.9998 10.0464Z" fill="#6D8CAD" stroke="#6D8CAD"/>
<path d="M24.0133 20.3742C23.4933 20.3742 22.9733 20.3342 22.4533 20.2408C21.9066 20.1475 21.5466 19.6275 21.64 19.0808C21.7333 18.5342 22.2533 18.1742 22.8 18.2675C24.44 18.5475 26.1733 18.2409 27.3333 17.4675C27.96 17.0542 28.2933 16.5342 28.2933 16.0142C28.2933 15.4942 27.9466 14.9875 27.3333 14.5742C26.1733 13.8008 24.4133 13.4942 22.76 13.7875C22.2133 13.8942 21.6933 13.5208 21.6 12.9742C21.5066 12.4275 21.8667 11.9075 22.4133 11.8142C24.5867 11.4275 26.84 11.8408 28.44 12.9075C29.6133 13.6942 30.2933 14.8142 30.2933 16.0142C30.2933 17.2008 29.6266 18.3342 28.44 19.1342C27.2267 19.9342 25.6533 20.3742 24.0133 20.3742Z" fill="#6D8CAD"/>
<path d="M7.95996 10.546C7.94662 10.546 7.93329 10.546 7.93329 10.546C5.53329 10.466 3.65329 8.51934 3.63995 6.11934C3.63995 3.66601 5.63996 1.66602 8.07996 1.66602C10.52 1.66602 12.52 3.66602 12.52 6.10602C12.52 8.51935 10.64 10.466 8.23995 10.546L7.95996 9.54602L8.05329 10.546C8.02662 10.546 7.98662 10.546 7.95996 10.546ZM8.09329 8.54602C8.17329 8.54602 8.23996 8.54601 8.31996 8.55935C9.50662 8.50601 10.5466 7.43934 10.5466 6.11934C10.5466 4.77268 9.45329 3.67934 8.10662 3.67934C6.75996 3.67934 5.66662 4.77268 5.66662 6.11934C5.66662 7.42601 6.67995 8.47935 7.97329 8.55935C7.98662 8.54601 8.03995 8.54602 8.09329 8.54602Z" fill="#6D8CAD"/>
<path d="M7.94669 20.3742C6.30669 20.3742 4.73335 19.9342 3.52002 19.1342C2.34669 18.3475 1.66669 17.2142 1.66669 16.0142C1.66669 14.8275 2.34669 13.6942 3.52002 12.9075C5.12002 11.8408 7.37335 11.4275 9.54669 11.8142C10.0934 11.9075 10.4534 12.4275 10.36 12.9742C10.2667 13.5208 9.74669 13.8942 9.20002 13.7875C7.54669 13.4942 5.80002 13.8008 4.62669 14.5742C4.00002 14.9875 3.66669 15.4942 3.66669 16.0142C3.66669 16.5342 4.01336 17.0542 4.62669 17.4675C5.78669 18.2409 7.52002 18.5475 9.16002 18.2675C9.70669 18.1742 10.2267 18.5475 10.32 19.0808C10.4134 19.6275 10.0534 20.1475 9.50669 20.2408C8.98669 20.3342 8.46669 20.3742 7.94669 20.3742Z" fill="#6D8CAD"/>
<path d="M15.9998 20.5073C15.9598 20.5073 15.9331 20.5073 15.8931 20.5073H15.8265C13.3065 20.4273 11.4265 18.4806 11.4265 16.0806C11.4265 13.6273 13.4265 11.6406 15.8665 11.6406C18.3065 11.6406 20.3065 13.6406 20.3065 16.0806C20.2931 18.494 18.4131 20.4406 16.0131 20.5206C16.0131 20.5073 16.0131 20.5073 15.9998 20.5073ZM15.8665 13.6273C14.5198 13.6273 13.4265 14.7206 13.4265 16.0673C13.4265 17.3873 14.4531 18.454 15.7731 18.5073C15.7865 18.494 15.8931 18.494 16.0131 18.5073C17.3065 18.4406 18.3065 17.374 18.3198 16.0673C18.3198 14.734 17.2265 13.6273 15.8665 13.6273Z" fill="#6D8CAD"/>
<path d="M15.9997 30.347C14.3997 30.347 12.7997 29.9336 11.5597 29.0936C10.3864 28.307 9.70636 27.187 9.70636 25.987C9.70636 24.8003 10.373 23.6536 11.5597 22.867C14.053 21.2136 17.9597 21.2136 20.4397 22.867C21.613 23.6536 22.293 24.7736 22.293 25.9736C22.293 27.1603 21.6264 28.307 20.4397 29.0936C19.1997 29.9203 17.5997 30.347 15.9997 30.347ZM12.6664 24.547C12.0397 24.9603 11.7064 25.4803 11.7064 26.0003C11.7064 26.5203 12.053 27.027 12.6664 27.4403C14.4664 28.6536 17.5197 28.6536 19.3197 27.4403C19.9464 27.027 20.2797 26.507 20.2797 25.987C20.2797 25.467 19.933 24.9603 19.3197 24.547C17.533 23.3336 14.4797 23.347 12.6664 24.547Z" fill="#6D8CAD"/>
</svg>
