<svg width="271" height="64" viewBox="0 0 271 64" fill="none" xmlns="http://www.w3.org/2000/svg">
<g clip-path="url(#clip0_36_423)">
<path d="M42.4664 36.2795C47.2374 36.263 51.8084 34.346 55.1827 30.9465C58.5571 27.547 60.461 22.9406 60.4794 18.132H69.7065C69.7004 25.4167 66.8302 32.4021 61.7246 37.5583C56.6189 42.7145 49.694 45.6213 42.4664 45.6419H40.059V36.2795H42.4664Z" fill="#2A55B4"/>
<path d="M40.059 36.3029H5.1864V45.6029H40.059V36.3029Z" fill="#FF5917"/>
<path d="M27.2401 27.4475C22.4611 27.464 17.8831 29.3875 14.5074 32.7971C11.1318 36.2068 9.23322 40.8251 9.22711 45.6419H0C0.0184004 38.3667 2.89448 31.3949 7.99923 26.2513C13.104 21.1076 20.0219 18.2108 27.2401 18.1943H36.2505C34.5684 20.9973 33.6796 24.2108 33.6805 27.4865L27.2401 27.4475Z" fill="#11337A"/>
<path d="M18.013 54.4581C22.7886 54.4416 27.3635 52.5201 30.7375 49.1136C34.1115 45.7071 36.0101 41.0928 36.0183 36.2794H45.2454C45.229 43.5546 42.3549 50.5272 37.2516 55.6723C32.1483 60.8174 25.2312 63.7162 18.013 63.7347V54.4581Z" fill="#2A55B4"/>
<path fill-rule="evenodd" clip-rule="evenodd" d="M60.4794 18.1553H36.2505C34.5684 20.9582 33.6796 24.1717 33.6805 27.4475H57.9094C59.5915 24.6446 60.4803 21.431 60.4794 18.1553Z" fill="#FF5917"/>
<path d="M51.6935 9.30001C46.9225 9.31645 42.3515 11.2334 38.9771 14.633C35.6028 18.0325 33.6989 22.6388 33.6805 27.4475H24.4689C24.4913 20.1763 27.3666 13.2092 32.4671 8.06694C37.5676 2.92465 44.4793 0.02469 51.6935 0V9.30001Z" fill="#11337A"/>
<path d="M168.333 33.2445L169.022 36.2404H169.254L169.749 33.2054L172.645 22.4387H177.738L171.94 39.7748C171.46 41.2103 170.996 42.5107 170.547 43.6758C170.161 44.7617 169.671 45.807 169.084 46.7966C168.627 47.5765 168.025 48.26 167.311 48.8095C166.635 49.2973 165.82 49.5493 164.989 49.5273C163.896 49.5775 162.808 49.3523 161.823 48.8719L162.736 44.8695C163.099 45.0218 163.489 45.1013 163.882 45.1035C164.525 45.071 165.132 44.7919 165.577 44.3233C166.25 43.5666 166.682 42.6233 166.816 41.616L158.843 22.3918H164.795L168.333 33.2445ZM149.445 37.9725C150.266 38.016 151.075 37.7644 151.729 37.2625C152.327 36.7171 152.741 35.997 152.913 35.2028V27.0575C152.561 26.7722 152.159 26.5553 151.729 26.4177C151.183 26.262 150.616 26.191 150.049 26.207C149.45 26.1671 148.85 26.2757 148.302 26.5232C147.755 26.7707 147.275 27.1497 146.906 27.627C146.21 28.5789 145.853 30.2095 145.853 32.5111C145.794 33.885 146.09 35.251 146.713 36.4745C146.982 36.9579 147.382 37.3548 147.865 37.6198C148.348 37.8847 148.896 38.007 149.445 37.9725ZM157.867 34.8985C157.867 35.9674 157.867 37.044 157.906 38.1207C157.945 39.3208 158.061 40.517 158.254 41.7018H154.701L154.02 39.1974H153.865C153.342 40.1081 152.585 40.86 151.675 41.3742C150.641 41.9429 149.477 42.228 148.3 42.2012C147.251 42.2586 146.204 42.0733 145.238 41.6594C144.272 41.2456 143.413 40.6142 142.726 39.8138C141.41 38.2534 140.75 35.7671 140.744 32.355C140.744 29.0782 141.482 26.5295 142.958 24.709C144.434 22.8886 146.597 21.9783 149.445 21.9783C150.095 21.97 150.745 22.0144 151.388 22.111C151.917 22.208 152.436 22.357 152.936 22.5557V14.7537H157.89L157.867 34.8985ZM126.733 22.4153V33.3381C126.658 34.495 126.849 35.6538 127.291 36.7242C127.513 37.0868 127.834 37.3775 128.216 37.5614C128.597 37.7454 129.023 37.815 129.443 37.7618C130.294 37.785 131.123 37.4842 131.765 36.9192C132.387 36.3489 132.864 35.6375 133.158 34.8439V22.4387H138.113V35.8191C138.112 36.8614 138.164 37.903 138.267 38.9399C138.355 39.8677 138.507 40.7881 138.724 41.6941H135.008L134.134 38.8463H133.979C133.376 39.8426 132.539 40.6734 131.541 41.2649C130.422 41.9316 129.14 42.2669 127.84 42.2324C126.961 42.2442 126.085 42.1125 125.247 41.8423C124.511 41.6022 123.853 41.1654 123.343 40.5784C122.781 39.8808 122.381 39.0649 122.174 38.1909C121.885 36.9593 121.753 35.6957 121.779 34.4304V22.4387L126.733 22.4153ZM107.497 22.4153H110.129V18.8263L115.091 17.4063V22.4387H119.736V26.6674H115.091V34.0481C115.035 35.0194 115.169 35.9924 115.486 36.9114C115.623 37.1913 115.84 37.4235 116.109 37.5779C116.378 37.7322 116.687 37.8018 116.995 37.7774C117.439 37.7841 117.882 37.7316 118.311 37.6214C118.736 37.5013 119.15 37.3473 119.55 37.1611L120.425 41.0075C119.657 41.3729 118.852 41.6553 118.025 41.8501C117.114 42.0838 116.178 42.2018 115.238 42.2012C114.534 42.2602 113.826 42.1692 113.159 41.9339C112.492 41.6987 111.882 41.3245 111.368 40.8358C110.537 39.9256 110.124 38.4328 110.129 36.3575V26.6674H107.497V22.4153ZM101.723 34.407C101.735 34.0269 101.66 33.6492 101.505 33.3029C101.349 32.9566 101.116 32.651 100.825 32.4096C100.139 31.8468 99.3847 31.3748 98.58 31.0053C97.6743 30.584 96.6989 30.1471 95.6384 29.7023C94.6031 29.2615 93.6192 28.7068 92.7046 28.0483C91.8011 27.3922 91.0355 26.5623 90.452 25.6063C89.8177 24.4705 89.5094 23.1792 89.5618 21.8769C89.5368 20.7101 89.7557 19.5511 90.2043 18.4752C90.6238 17.538 91.2578 16.7144 92.0544 16.0722C92.9055 15.4209 93.8764 14.9462 94.9108 14.6756C96.1053 14.3574 97.3368 14.2026 98.5722 14.2153C100.045 14.2066 101.515 14.3424 102.961 14.621C104.147 14.8216 105.293 15.2169 106.352 15.7913L104.711 20.2151C103.925 19.7637 103.077 19.4324 102.195 19.232C101.011 18.927 99.7938 18.7775 98.5722 18.7873C97.5845 18.7246 96.6027 18.9816 95.77 19.5207C95.4631 19.739 95.2133 20.0291 95.0421 20.3661C94.8709 20.7031 94.7833 21.077 94.7869 21.4556C94.7778 21.8284 94.8541 22.1983 95.0098 22.5366C95.1656 22.8749 95.3966 23.1724 95.6849 23.4061C96.3733 23.9733 97.1302 24.4505 97.9375 24.8261C98.8431 25.263 99.8185 25.7077 100.871 26.168C101.909 26.6182 102.895 27.1806 103.813 27.8455C104.711 28.4951 105.474 29.317 106.058 30.2641C106.692 31.3519 107.003 32.6 106.956 33.8608C106.988 35.1328 106.748 36.3969 106.251 37.5668C105.802 38.5754 105.123 39.4629 104.269 40.1571C103.356 40.8886 102.302 41.4201 101.173 41.7175C99.8718 42.0596 98.5314 42.2274 97.1866 42.2168C95.4941 42.2403 93.8049 42.0596 92.155 41.6784C91.0504 41.4409 89.9755 41.0798 88.9503 40.6018L90.6301 36.1C90.9805 36.2893 91.3425 36.4561 91.7138 36.5993C92.2058 36.7982 92.71 36.9649 93.2233 37.0987C93.8065 37.262 94.3983 37.3922 94.9959 37.4888C95.6309 37.59 96.2728 37.6396 96.9157 37.637C98.154 37.7164 99.3898 37.4462 100.484 36.8568C100.891 36.6046 101.221 36.2453 101.439 35.8176C101.657 35.3899 101.755 34.9102 101.723 34.4304V34.407Z" fill="#11337A"/>
<path d="M257.879 22.4386H260.511V18.8262L265.473 17.4063V22.4386H270.118V26.6673H265.473V34.048C265.417 35.0193 265.551 35.9923 265.868 36.9113C266.005 37.1913 266.222 37.4234 266.491 37.5778C266.76 37.7322 267.069 37.8017 267.377 37.7774C267.821 37.784 268.263 37.7316 268.693 37.6213C269.118 37.5025 269.532 37.3485 269.932 37.161L270.806 41.0074C270.038 41.3728 269.234 41.6553 268.407 41.85C267.496 42.0838 266.56 42.2017 265.62 42.2011C264.916 42.2602 264.207 42.1691 263.541 41.9339C262.874 41.6986 262.264 41.3245 261.75 40.8358C260.929 39.9229 260.511 38.4327 260.511 36.3574V26.6673H257.879V22.4386ZM256.679 27.1198C255.999 26.8586 255.279 26.7161 254.551 26.6985C253.747 26.6737 252.958 26.924 252.314 27.4085C251.729 27.871 251.308 28.5113 251.114 29.2341V41.6628H246.16V22.4386H250.03L250.603 24.982H250.758C251.13 24.101 251.738 23.3418 252.515 22.7897C253.277 22.2637 254.184 21.9909 255.108 22.0095C255.874 22.0288 256.632 22.171 257.353 22.4308L256.679 27.1198ZM234.246 37.8398C235.085 37.8841 235.915 37.6482 236.607 37.1688C237.135 36.783 237.577 36.2916 237.908 35.7254V33.2288C237.151 33.163 236.389 33.163 235.632 33.2288C234.981 33.2642 234.336 33.3794 233.712 33.5721C233.209 33.7183 232.75 33.9862 232.373 34.3523C232.21 34.5184 232.082 34.716 231.997 34.9332C231.912 35.1504 231.871 35.3827 231.878 35.6162C231.86 35.9245 231.906 36.2332 232.014 36.5222C232.122 36.8112 232.289 37.0741 232.505 37.2936C232.996 37.6916 233.618 37.8869 234.246 37.8398ZM227.953 23.5387C229.114 23.0322 230.33 22.6656 231.576 22.4464C233.02 22.17 234.487 22.0341 235.957 22.0407C237.083 22.0118 238.206 22.1754 239.278 22.5244C240.067 22.7749 240.778 23.227 241.343 23.8368C241.907 24.4466 242.305 25.1932 242.498 26.0041C242.725 26.9066 242.834 27.8351 242.823 28.766C242.823 29.8973 242.785 31.0286 242.707 32.1677C242.63 33.3068 242.591 34.4303 242.576 35.5304C242.56 36.6305 242.576 37.7071 242.668 38.7448C242.74 39.7451 242.933 40.7328 243.241 41.6862H239.201L238.426 39.0335H238.233C237.682 39.8619 236.962 40.5616 236.12 41.0854C235.061 41.7031 233.85 42.0035 232.629 41.9514C231.808 41.965 230.992 41.8275 230.221 41.5457C229.539 41.2977 228.916 40.9068 228.394 40.3988C227.884 39.8957 227.481 39.2931 227.21 38.6278C226.923 37.901 226.78 37.1241 226.792 36.3418C226.755 35.2934 227.025 34.2573 227.566 33.3614C228.127 32.5153 228.906 31.8385 229.819 31.4031C230.922 30.8626 232.107 30.5118 233.325 30.3654C234.836 30.1657 236.363 30.1082 237.885 30.1938C238.119 29.1472 238.011 28.052 237.575 27.073C237.196 26.441 236.344 26.1289 235.02 26.1289C233.965 26.134 232.913 26.2385 231.878 26.441C230.938 26.5848 230.02 26.8469 229.145 27.2212L227.953 23.5387ZM209.019 41.6628V31.2081C209.094 29.9316 208.926 28.6524 208.523 27.4397C208.337 27.0615 208.039 26.7511 207.67 26.5512C207.301 26.3513 206.88 26.2719 206.464 26.324C205.701 26.2868 204.953 26.5403 204.367 27.034C203.819 27.5342 203.399 28.1606 203.144 28.8596V41.6628H198.189V22.4386H202.06L202.625 24.982H202.78C203.389 24.1351 204.144 23.4057 205.009 22.8287C206.054 22.1721 207.27 21.8485 208.5 21.9002C209.552 21.8645 210.593 22.1354 211.496 22.6804C212.355 23.2998 212.991 24.1844 213.307 25.2005C213.855 24.2347 214.628 23.4179 215.56 22.8209C216.555 22.2055 217.706 21.8963 218.873 21.9315C219.796 21.9107 220.717 22.0425 221.598 22.3216C222.331 22.5602 222.973 23.0239 223.432 23.6479C223.958 24.3989 224.314 25.2562 224.477 26.1601C224.734 27.4781 224.851 28.8198 224.826 30.1626V41.6628H219.848V30.857C219.904 29.7032 219.744 28.5492 219.376 27.4553C219.186 27.0654 218.879 26.746 218.498 26.5428C218.117 26.3396 217.682 26.263 217.255 26.324C216.483 26.2804 215.724 26.5437 215.142 27.0574C214.579 27.6019 214.177 28.2933 213.981 29.0547V41.6628H209.019ZM190.441 34.4303C190.451 34.0505 190.376 33.6734 190.22 33.3273C190.065 32.9813 189.833 32.6755 189.543 32.433C188.856 31.8684 188.098 31.3963 187.29 31.0286C186.392 30.6073 185.409 30.1704 184.356 29.7257C183.32 29.2866 182.336 28.7318 181.423 28.0716C180.517 27.4178 179.751 26.5874 179.17 25.6296C178.533 24.4946 178.222 23.2033 178.272 21.9002C178.246 20.7326 178.468 19.5728 178.922 18.4986C179.339 17.5598 179.974 16.7356 180.772 16.0955C181.616 15.4364 182.582 14.9536 183.613 14.6756C184.808 14.3569 186.039 14.2021 187.275 14.2153C188.745 14.2065 190.212 14.3424 191.656 14.621C192.845 14.8202 193.993 15.2156 195.054 15.7913L193.413 20.215C192.627 19.7649 191.779 19.4337 190.898 19.232C189.714 18.9278 188.496 18.7784 187.275 18.7872C186.287 18.7245 185.305 18.9815 184.473 19.5206C184.166 19.7389 183.916 20.0291 183.745 20.3661C183.573 20.7031 183.486 21.0769 183.489 21.4555C183.485 21.8243 183.563 22.1894 183.718 22.5233C183.874 22.8571 184.103 23.151 184.387 23.3826C185.076 23.9499 185.833 24.427 186.64 24.8026C187.538 25.2395 188.521 25.6842 189.574 26.1445C190.609 26.5948 191.593 27.1572 192.508 27.822C193.411 28.4692 194.176 29.2914 194.76 30.2406C195.391 31.3299 195.702 32.577 195.658 33.8373C195.687 35.109 195.446 36.3723 194.954 37.5433C194.502 38.5527 193.821 39.4403 192.964 40.1336C192.051 40.8652 190.997 41.3966 189.868 41.694C188.569 42.0361 187.231 42.204 185.889 42.1933C184.194 42.2173 182.502 42.0365 180.85 41.655C179.746 41.415 178.671 41.0539 177.645 40.5783L179.325 36.0765C179.678 36.2656 180.043 36.4324 180.416 36.5758C180.906 36.7737 181.408 36.9404 181.918 37.0752C182.501 37.2377 183.093 37.3679 183.691 37.4653C184.328 37.5662 184.973 37.6158 185.618 37.6135C186.857 37.6921 188.092 37.422 189.187 36.8333C189.59 36.5828 189.918 36.2273 190.138 35.8044C190.357 35.3815 190.459 34.9068 190.433 34.4303H190.441Z" fill="#FF5917"/>
<path d="M270.381 60.1224C270.463 60.1187 270.545 60.1328 270.621 60.1637C270.697 60.1947 270.765 60.2418 270.822 60.3018C270.88 60.3599 270.926 60.4293 270.956 60.5058C270.987 60.5822 271.002 60.6641 271 60.7465C271.001 60.9126 270.937 61.0723 270.822 61.1912C270.766 61.2523 270.697 61.3006 270.621 61.3329C270.545 61.3651 270.463 61.3807 270.381 61.3785C270.3 61.3816 270.219 61.3672 270.145 61.3362C270.07 61.3052 270.003 61.2585 269.947 61.1991C269.89 61.1391 269.845 61.0681 269.816 60.9903C269.787 60.9126 269.774 60.8296 269.777 60.7465C269.774 60.6646 269.787 60.5829 269.816 60.5064C269.846 60.4299 269.89 60.3603 269.947 60.3018C270.003 60.2424 270.07 60.1956 270.145 60.1647C270.219 60.1337 270.3 60.1193 270.381 60.1224ZM269.939 51.743H270.837V54.0836L270.698 58.4371H270.063L269.939 54.0836V51.743ZM265.071 53.9744C265.439 53.957 265.807 54.0175 266.151 54.1518C266.495 54.2862 266.807 54.4915 267.068 54.7546C267.567 55.3276 267.823 56.076 267.78 56.8377V61.2459H266.843V57.0016C266.877 56.4101 266.676 55.8294 266.286 55.3865C266.081 55.1885 265.838 55.0356 265.571 54.9375C265.305 54.8394 265.021 54.7984 264.738 54.817C264.399 54.8064 264.062 54.8708 263.75 55.0056C263.438 55.1404 263.16 55.3423 262.934 55.5972C262.473 56.1769 262.239 56.907 262.276 57.6491V61.2459H261.339V57.0016C261.373 56.4101 261.173 55.8294 260.782 55.3865C260.577 55.1885 260.334 55.0356 260.067 54.9375C259.801 54.8394 259.517 54.7984 259.234 54.817C258.894 54.8053 258.555 54.8691 258.242 55.0039C257.929 55.1388 257.649 55.3413 257.423 55.5972C256.959 56.1758 256.722 56.906 256.757 57.6491V61.2459H255.836V53.9822H256.757V55.6908C256.964 55.1539 257.339 54.6994 257.825 54.3957C258.353 54.0998 258.947 53.9466 259.551 53.951C260.162 53.9265 260.764 54.1077 261.262 54.4659C261.726 54.822 262.047 55.3342 262.168 55.9093C262.347 55.3159 262.721 54.8015 263.228 54.4503C263.785 54.1198 264.424 53.9548 265.071 53.9744ZM249.953 60.5359C250.53 60.5555 251.1 60.3976 251.586 60.0834C252.028 59.7867 252.348 59.3371 252.484 58.8194V57.8208H250.162C249.659 57.7872 249.157 57.8981 248.714 58.1407C248.555 58.2405 248.425 58.3813 248.338 58.5487C248.251 58.716 248.21 58.9038 248.219 59.0925C248.212 59.2925 248.252 59.4912 248.335 59.6728C248.419 59.8543 248.543 60.0137 248.699 60.138C249.056 60.4165 249.501 60.5575 249.953 60.5359ZM252.499 61.2693V60.0522C252.222 60.4669 251.836 60.7963 251.385 61.004C250.895 61.2141 250.368 61.3204 249.836 61.3161C249.392 61.3229 248.951 61.224 248.551 61.0274C248.198 60.854 247.9 60.5836 247.692 60.2472C247.49 59.9082 247.386 59.5192 247.39 59.1237C247.379 58.8359 247.439 58.5497 247.565 58.291C247.69 58.0323 247.878 57.809 248.11 57.6413C248.696 57.245 249.395 57.0531 250.1 57.0952H252.515V56.5646C252.531 56.3201 252.494 56.0749 252.407 55.846C252.32 55.6171 252.185 55.4098 252.012 55.2383C251.595 54.8938 251.063 54.7234 250.525 54.7624C249.678 54.7943 248.864 55.1007 248.203 55.6362L247.793 54.9964C248.222 54.677 248.69 54.4147 249.186 54.2162C249.671 54.0437 250.182 53.9591 250.696 53.9666C251.428 53.9208 252.151 54.1579 252.716 54.6297C252.962 54.8626 253.154 55.1465 253.279 55.4618C253.405 55.7771 253.461 56.1161 253.444 56.4554V61.2615L252.499 61.2693ZM245.223 57.22C245.204 56.539 244.927 55.8912 244.449 55.41C244.212 55.184 243.932 55.0083 243.626 54.893C243.32 54.7778 242.995 54.7254 242.668 54.739C241.998 54.7179 241.345 54.9614 240.849 55.4177C240.358 55.893 240.06 56.5354 240.013 57.22H245.223ZM242.676 53.9744C243.157 53.9405 243.639 54.0202 244.084 54.2071C244.529 54.394 244.924 54.683 245.238 55.0511C245.86 55.8792 246.15 56.9122 246.051 57.9456H240.037C240.072 58.6567 240.377 59.327 240.888 59.8181C241.395 60.2963 242.068 60.5541 242.761 60.5359C243.199 60.5383 243.633 60.4535 244.039 60.2862C244.425 60.1253 244.774 59.8833 245.06 59.5762L245.579 60.1068C245.226 60.4854 244.799 60.7857 244.325 60.9884C243.811 61.198 243.261 61.304 242.707 61.3005C242.058 61.3126 241.417 61.151 240.849 60.8324C240.312 60.5316 239.872 60.0822 239.58 59.5372C239.263 58.957 239.103 58.3033 239.115 57.6413C239.105 56.9796 239.265 56.3265 239.58 55.7454C239.871 55.1981 240.312 54.7461 240.849 54.4425C241.407 54.1267 242.037 53.9652 242.676 53.9744ZM235.795 55.6986C236.005 55.1811 236.363 54.7384 236.824 54.4269C237.306 54.1277 237.861 53.9709 238.426 53.9744V54.8482C238.091 54.8277 237.754 54.8774 237.439 54.9942C237.123 55.1111 236.835 55.2924 236.592 55.527C236.116 56.0322 235.841 56.6956 235.818 57.3917V61.2927H234.897V54.029H235.795V55.6986ZM228.464 60.5203C228.958 60.5306 229.445 60.4038 229.873 60.1536C230.282 59.9116 230.617 59.5607 230.84 59.1393C231.069 58.6765 231.189 58.1663 231.189 57.6491C231.189 57.1319 231.069 56.6218 230.84 56.1589C230.617 55.733 230.283 55.3769 229.873 55.1291C229.446 54.8762 228.959 54.7466 228.464 54.7546C227.978 54.7454 227.499 54.8717 227.08 55.1195C226.66 55.3673 226.317 55.727 226.087 56.1589C225.845 56.617 225.722 57.13 225.731 57.6491C225.723 58.1673 225.843 58.6794 226.08 59.1393C226.304 59.5629 226.642 59.9144 227.055 60.1536C227.471 60.3962 227.944 60.5228 228.425 60.5203H228.464ZM232.11 50.9862V61.2459H231.15V59.6074C230.894 60.134 230.494 60.5754 229.997 60.8792C229.47 61.1838 228.87 61.3375 228.263 61.3239C227.626 61.3351 226.997 61.1734 226.444 60.8558C225.916 60.5423 225.487 60.0853 225.205 59.5372C224.91 58.9444 224.762 58.2887 224.772 57.6257C224.76 56.9641 224.911 56.3099 225.213 55.722C225.501 55.183 225.929 54.7328 226.451 54.4191C226.997 54.1027 227.618 53.9409 228.247 53.951C228.859 53.9361 229.463 54.0956 229.989 54.4113C230.49 54.7125 230.894 55.1544 231.15 55.683V51.0018L232.11 50.9862ZM218.083 50.9862H219.005V61.2459H218.083V50.9862ZM212.1 60.5359C212.675 60.5563 213.242 60.3984 213.725 60.0834C214.17 59.7876 214.492 59.338 214.631 58.8194V57.8208H212.309C211.808 57.787 211.309 57.898 210.869 58.1407C210.709 58.2392 210.578 58.3799 210.491 58.5475C210.403 58.7151 210.363 58.9035 210.374 59.0925C210.365 59.2919 210.404 59.4904 210.486 59.672C210.568 59.8537 210.691 60.0133 210.846 60.138C211.194 60.4072 211.623 60.5476 212.061 60.5359H212.1ZM214.639 61.2693V60.0522C214.361 60.4669 213.976 60.7963 213.524 61.004C213.022 61.2173 212.482 61.3235 211.937 61.3161C211.492 61.322 211.052 61.2232 210.652 61.0274C210.299 60.854 210.001 60.5836 209.793 60.2472C209.591 59.9082 209.486 59.5192 209.491 59.1237C209.48 58.8359 209.54 58.5497 209.666 58.291C209.791 58.0323 209.979 57.809 210.211 57.6413C210.798 57.246 211.496 57.0543 212.2 57.0952H214.623V56.5646C214.638 56.3196 214.599 56.0742 214.511 55.8453C214.423 55.6164 214.287 55.4094 214.112 55.2383C213.696 54.8938 213.164 54.7234 212.626 54.7624C211.779 54.7943 210.965 55.1007 210.304 55.6362L209.894 54.9964C210.319 54.6752 210.785 54.4128 211.279 54.2162C211.776 54.0394 212.301 53.9548 212.827 53.9666C213.56 53.9231 214.281 54.16 214.848 54.6297C215.09 54.8648 215.281 55.1491 215.406 55.4638C215.532 55.7785 215.589 56.1165 215.575 56.4554V61.2615L214.639 61.2693ZM207.85 55.6518C207.565 55.3715 207.227 55.1512 206.856 55.0039C206.485 54.8565 206.089 54.785 205.69 54.7936C205.202 54.7869 204.72 54.9136 204.297 55.1603C203.887 55.392 203.554 55.7391 203.337 56.1589C203.108 56.6191 202.989 57.1266 202.989 57.6413C202.989 58.156 203.108 58.6636 203.337 59.1237C203.554 59.5457 203.887 59.8953 204.297 60.1302C204.72 60.3769 205.202 60.5036 205.69 60.4969C206.131 60.5 206.568 60.4151 206.975 60.2472C207.354 60.0847 207.69 59.8364 207.958 59.5216L208.477 60.0756C208.154 60.4727 207.74 60.7836 207.269 60.9806C206.755 61.1979 206.202 61.3068 205.644 61.3005C204.999 61.3117 204.364 61.1501 203.802 60.8324C203.254 60.5345 202.804 60.0816 202.509 59.5294C202.204 58.9462 202.044 58.2968 202.044 57.6374C202.044 56.9781 202.204 56.3287 202.509 55.7454C202.8 55.1981 203.241 54.7461 203.778 54.4425C204.34 54.1247 204.976 53.9632 205.621 53.9744C206.15 53.9647 206.676 54.0601 207.169 54.2552C207.615 54.4302 208.021 54.6957 208.361 55.0354L207.85 55.6518ZM199.691 51.2593C199.775 51.2559 199.858 51.271 199.936 51.3033C200.013 51.3356 200.083 51.3845 200.14 51.4465C200.201 51.5075 200.249 51.5806 200.281 51.6611C200.313 51.7416 200.328 51.8279 200.326 51.9146C200.328 52.0012 200.312 52.0873 200.28 52.1677C200.248 52.2481 200.201 52.3212 200.14 52.3828C200.083 52.4454 200.014 52.4952 199.936 52.5288C199.859 52.5624 199.775 52.5791 199.691 52.5778C199.604 52.5804 199.518 52.5643 199.438 52.5307C199.358 52.497 199.286 52.4466 199.227 52.3828C199.166 52.3212 199.119 52.2481 199.087 52.1677C199.055 52.0873 199.039 52.0012 199.041 51.9146C199.039 51.828 199.054 51.7418 199.086 51.6613C199.118 51.5809 199.166 51.5078 199.227 51.4465C199.287 51.3852 199.36 51.337 199.44 51.3048C199.52 51.2726 199.605 51.2571 199.691 51.2593ZM199.219 54.0056H200.14V61.2459H199.18L199.219 54.0056ZM192.81 60.5203C193.304 60.5306 193.791 60.4038 194.218 60.1536C194.627 59.9116 194.962 59.5607 195.186 59.1393C195.415 58.6765 195.534 58.1663 195.534 57.6491C195.534 57.1319 195.415 56.6218 195.186 56.1589C194.963 55.733 194.628 55.3769 194.218 55.1291C193.792 54.8762 193.304 54.7466 192.81 54.7546C192.324 54.7454 191.844 54.8717 191.425 55.1195C191.006 55.3673 190.662 55.727 190.433 56.1589C190.19 56.617 190.068 57.13 190.077 57.6491C190.069 58.1673 190.188 58.6794 190.425 59.1393C190.65 59.5629 190.988 59.9144 191.401 60.1536C191.817 60.3962 192.29 60.5228 192.771 60.5203H192.81ZM196.455 50.9862V61.2459H195.534V59.6074C195.279 60.134 194.878 60.5754 194.381 60.8792C193.854 61.1838 193.254 61.3375 192.647 61.3239C192.01 61.3351 191.382 61.1734 190.828 60.8558C190.301 60.5442 189.874 60.0865 189.597 59.5372C189.296 58.9463 189.145 58.2898 189.156 57.6257C189.144 56.9641 189.296 56.3099 189.597 55.722C189.886 55.183 190.314 54.7328 190.836 54.4191C191.381 54.1027 192.002 53.9409 192.631 53.951C193.244 53.9352 193.847 54.0949 194.373 54.4113C194.875 54.7125 195.278 55.1544 195.534 55.683V51.0018L196.455 50.9862ZM187.166 57.2278C187.148 56.5468 186.871 55.899 186.392 55.4177C186.155 55.1915 185.876 55.0155 185.57 54.9002C185.264 54.7849 184.938 54.7328 184.612 54.7468C183.943 54.7261 183.293 54.9697 182.801 55.4255C182.305 55.8982 182.004 56.5416 181.957 57.2278H187.166ZM184.627 53.9822C185.107 53.9495 185.587 54.0298 186.031 54.2167C186.474 54.4036 186.868 54.6919 187.182 55.0589C187.803 55.887 188.093 56.92 187.995 57.9534H181.918C181.956 58.6654 182.264 59.3356 182.777 59.8259C183.281 60.3036 183.952 60.5616 184.643 60.5437C185.081 60.5468 185.515 60.4619 185.92 60.294C186.307 60.1331 186.655 59.8911 186.942 59.584L187.461 60.1146C187.108 60.4932 186.681 60.7935 186.207 60.9962C185.693 61.2058 185.143 61.3118 184.589 61.3083C183.939 61.3204 183.298 61.1588 182.731 60.8402C182.194 60.5394 181.753 60.09 181.461 59.545C181.145 58.9648 180.985 58.3111 180.997 57.6491C180.987 56.9874 181.147 56.3343 181.461 55.7532C181.753 55.2059 182.193 54.7539 182.731 54.4503C183.29 54.1308 183.923 53.9666 184.565 53.9744L184.627 53.9822ZM176.647 53.9822C177.015 53.9648 177.383 54.0253 177.727 54.1596C178.071 54.294 178.383 54.4993 178.644 54.7624C179.144 55.3354 179.399 56.0838 179.356 56.8455V61.2459H178.357V57.0016C178.391 56.4101 178.19 55.8294 177.8 55.3865C177.595 55.1885 177.352 55.0356 177.085 54.9375C176.819 54.8394 176.535 54.7984 176.252 54.817C175.912 54.8053 175.573 54.8691 175.26 55.0039C174.947 55.1388 174.667 55.3413 174.44 55.5972C173.985 56.1794 173.754 56.9084 173.79 57.6491V61.2459H172.854V57.0016C172.887 56.4101 172.687 55.8294 172.296 55.3865C172.092 55.1885 171.848 55.0356 171.582 54.9375C171.315 54.8394 171.031 54.7984 170.748 54.817C170.407 54.8041 170.066 54.8674 169.752 55.0022C169.438 55.1371 169.157 55.3403 168.929 55.5972C168.471 56.1786 168.237 56.9075 168.271 57.6491V61.2459H167.35V53.9822H168.271V55.6908C168.478 55.1539 168.853 54.6994 169.339 54.3957C169.867 54.0998 170.462 53.9466 171.065 53.951C171.676 53.9277 172.278 54.1087 172.776 54.4659C173.24 54.8204 173.56 55.3338 173.674 55.9093C173.859 55.3165 174.235 54.8029 174.742 54.4503C175.299 54.119 175.938 53.9539 176.585 53.9744L176.647 53.9822ZM159.547 55.7064C159.757 55.1909 160.112 54.7487 160.569 54.4347C161.052 54.1393 161.606 53.9828 162.171 53.9822V54.856C161.836 54.8374 161.5 54.888 161.184 55.0047C160.869 55.1214 160.58 55.3018 160.337 55.5348C159.857 56.0376 159.581 56.7025 159.562 57.3995V61.3005H158.641V54.0368H159.562L159.547 55.7064ZM155.948 54.0134V61.2459H155.011V59.5138C154.801 60.0516 154.427 60.5081 153.943 60.8167C153.426 61.1268 152.833 61.2861 152.232 61.2771C151.862 61.2941 151.493 61.2335 151.148 61.0992C150.803 60.9649 150.489 60.7598 150.227 60.4969C149.978 60.2156 149.786 59.8875 149.662 59.5314C149.539 59.1753 149.486 58.7982 149.507 58.4215V53.9588H150.444V58.2031C150.427 58.4936 150.468 58.7845 150.563 59.0591C150.659 59.3336 150.808 59.5863 151.001 59.8025C151.205 60.0015 151.449 60.1557 151.715 60.255C151.982 60.3544 152.266 60.3969 152.549 60.3798C152.89 60.3949 153.23 60.3325 153.543 60.1975C153.857 60.0624 154.136 59.8581 154.361 59.5996C154.823 59.0172 155.06 58.2852 155.026 57.5399V53.9744L155.948 54.0134ZM144.166 54.7936C143.675 54.7843 143.191 54.9082 142.765 55.1525C142.357 55.3895 142.024 55.7385 141.805 56.1589C141.576 56.6232 141.457 57.1346 141.457 57.653C141.457 58.1715 141.576 58.6829 141.805 59.1471C142.024 59.5675 142.357 59.9166 142.765 60.1536C143.191 60.3978 143.675 60.5218 144.166 60.5125C144.659 60.5217 145.145 60.3977 145.575 60.1536C145.981 59.9142 146.313 59.5658 146.535 59.1471C146.759 58.6814 146.875 58.1706 146.875 57.653C146.875 57.1355 146.759 56.6247 146.535 56.1589C146.313 55.7403 145.981 55.3918 145.575 55.1525C145.128 54.8945 144.619 54.7675 144.104 54.7858L144.166 54.7936ZM144.166 54.0134C144.82 54.0022 145.466 54.1636 146.039 54.4815C146.581 54.7836 147.029 55.2321 147.332 55.7766C147.65 56.3539 147.812 57.0047 147.804 57.6647C147.812 58.3297 147.65 58.9856 147.332 59.5684C147.034 60.1187 146.585 60.571 146.039 60.8714C145.463 61.1788 144.821 61.3395 144.17 61.3395C143.518 61.3395 142.876 61.1788 142.3 60.8714C141.754 60.571 141.306 60.1187 141.008 59.5684C140.686 58.987 140.523 58.3302 140.535 57.6647C140.523 57.0042 140.686 56.3525 141.008 55.7766C141.311 55.2321 141.758 54.7836 142.3 54.4815C142.849 54.1604 143.47 53.9858 144.104 53.9744L144.166 54.0134ZM136.866 62.346C136.672 62.8355 136.351 63.2638 135.937 63.5865C135.584 63.8714 135.143 64.0231 134.691 64.0156C134.154 64.0239 133.63 63.8478 133.205 63.5163L133.615 62.8063C133.916 63.0221 134.275 63.1393 134.645 63.1417C134.929 63.1354 135.202 63.0307 135.419 62.8453C135.681 62.6176 135.883 62.3281 136.007 62.0027L136.309 61.2225L133.329 53.9978H134.304L136.781 60.2394L139.158 53.9978H140.11L136.866 62.346ZM125.712 54.0134C126.085 53.9973 126.457 54.0583 126.806 54.1924C127.154 54.3266 127.472 54.5312 127.74 54.7936C127.993 55.0729 128.188 55.4003 128.315 55.7567C128.441 56.113 128.496 56.4911 128.475 56.8689V61.2459H127.539V57.0016C127.555 56.7092 127.514 56.4165 127.417 56.1405C127.32 55.8646 127.169 55.6109 126.973 55.3943C126.768 55.1976 126.524 55.045 126.258 54.9457C125.992 54.8465 125.709 54.8027 125.425 54.817C125.074 54.8008 124.724 54.8622 124.399 54.997C124.074 55.1318 123.782 55.3367 123.544 55.5972C123.069 56.1765 122.826 56.914 122.863 57.6647V61.2459H121.942V50.9862H122.778V55.722C123.013 55.1634 123.418 54.6938 123.933 54.3801C124.449 54.0663 125.05 53.9244 125.65 53.9744L125.712 54.0134ZM119.163 55.6908C118.877 55.4105 118.539 55.1902 118.169 55.0429C117.798 54.8956 117.402 54.8241 117.003 54.8326C116.515 54.8278 116.034 54.9544 115.61 55.1993C115.202 55.4332 114.869 55.7797 114.65 56.198C114.426 56.6594 114.309 57.1665 114.309 57.6803C114.309 58.1942 114.426 58.7012 114.65 59.1627C114.869 59.5831 115.202 59.9322 115.61 60.1692C116.034 60.4141 116.515 60.5407 117.003 60.5359C117.444 60.5398 117.881 60.4549 118.288 60.2862C118.668 60.1257 119.005 59.8771 119.271 59.5606L119.798 60.1146C119.47 60.5091 119.053 60.8194 118.582 61.0196C118.071 61.237 117.52 61.3458 116.964 61.3395C116.318 61.3506 115.679 61.1891 115.114 60.8714C114.579 60.5654 114.139 60.1139 113.845 59.5684C113.545 58.9836 113.388 58.3348 113.388 57.6764C113.388 57.0181 113.545 56.3693 113.845 55.7844C114.141 55.2407 114.58 54.7898 115.114 54.4815C115.679 54.1638 116.318 54.0023 116.964 54.0134C117.494 54.0053 118.019 54.1007 118.513 54.2943C118.958 54.4673 119.361 54.7332 119.697 55.0745L119.163 55.6908ZM111.461 54.0446V61.2459H110.524V59.5138C110.315 60.0516 109.94 60.5081 109.456 60.8167C108.939 61.1268 108.347 61.2861 107.745 61.2771C107.376 61.2931 107.007 61.2321 106.662 61.0979C106.317 60.9636 106.003 60.759 105.74 60.4969C105.491 60.2156 105.299 59.8875 105.175 59.5314C105.052 59.1753 104.999 58.7982 105.02 58.4215V53.9588H105.957V58.2031C105.94 58.4936 105.981 58.7845 106.077 59.0591C106.172 59.3336 106.321 59.5863 106.514 59.8025C106.719 60.0015 106.962 60.1557 107.228 60.255C107.495 60.3544 107.779 60.3969 108.062 60.3798C108.404 60.3927 108.744 60.3294 109.059 60.1946C109.373 60.0597 109.654 59.8566 109.882 59.5996C110.342 59.0165 110.576 58.2843 110.54 57.5399V53.9744L111.461 54.0446ZM99.6869 54.8248C99.1939 54.8156 98.7075 54.9395 98.2781 55.1837C97.8717 55.423 97.5394 55.7715 97.3182 56.1902C97.0942 56.6559 96.9778 57.1667 96.9778 57.6842C96.9778 58.2018 97.0942 58.7126 97.3182 59.1783C97.5394 59.597 97.8717 59.9454 98.2781 60.1848C98.7075 60.4289 99.1939 60.5529 99.6869 60.5437C100.177 60.553 100.661 60.429 101.088 60.1848C101.496 59.9478 101.829 59.5987 102.048 59.1783C102.277 58.7141 102.396 58.2027 102.396 57.6842C102.396 57.1658 102.277 56.6544 102.048 56.1902C101.829 55.7698 101.496 55.4207 101.088 55.1837C100.647 54.9147 100.14 54.7768 99.625 54.7858L99.6869 54.8248ZM99.6869 54.0446C100.339 54.0333 100.982 54.1948 101.552 54.5127C102.095 54.8148 102.542 55.2633 102.845 55.8079C103.166 56.3837 103.329 57.0354 103.317 57.6959C103.33 58.3614 103.167 59.0182 102.845 59.5996C102.547 60.1499 102.098 60.6022 101.552 60.9026C100.977 61.21 100.335 61.3707 99.683 61.3707C99.0313 61.3707 98.3895 61.21 97.8136 60.9026C97.2348 60.5932 96.7625 60.1145 96.4589 59.5294C96.1436 58.9459 95.9836 58.2901 95.9945 57.6257C95.9834 56.9663 96.1435 56.3155 96.4589 55.7376C96.7619 55.1931 97.2096 54.7446 97.7517 54.4425C98.325 54.1246 98.9707 53.9632 99.625 53.9744L99.6869 54.0446ZM89.0277 51.6338H96.3274V52.5076H93.1536V61.2459H92.2015V52.4374H89.0277V51.6338Z" fill="#0F3574"/>
</g>
<defs>
<clipPath id="clip0_36_423">
<rect width="271" height="64" fill="white"/>
</clipPath>
</defs>
</svg>
