<svg width="64" height="64" viewBox="0 0 64 64" fill="none" xmlns="http://www.w3.org/2000/svg">
<path fill-rule="evenodd" clip-rule="evenodd" d="M41.6925 5.66488C42.5647 3.44504 45.7006 3.44504 46.5728 5.66488L47.7142 8.56944L50.6066 9.7144C52.8182 10.5899 52.8182 13.7257 50.6066 14.6012L47.7142 15.7461L46.5728 18.6507C45.7006 20.8705 42.5647 20.8705 41.6925 18.6507L40.5511 15.7461L37.6587 14.6012C35.4471 13.7257 35.4471 10.5899 37.6587 9.7144L40.5511 8.56944L41.6925 5.66488ZM44.1326 6.74637L45.2386 9.56089C45.5043 10.2371 46.0383 10.774 46.7151 11.0419L49.5339 12.1578L46.7151 13.2736C46.0383 13.5415 45.5043 14.0785 45.2386 14.7547L44.1326 17.5692L43.0267 14.7547C42.761 14.0785 42.227 13.5415 41.5502 13.2736L38.7314 12.1578L41.5502 11.0419C42.227 10.774 42.761 10.2371 43.0267 9.56089L44.1326 6.74637Z" fill="#11337A"/>
<path fill-rule="evenodd" clip-rule="evenodd" d="M8.83786 8.83786C12.6217 5.05405 18.7564 5.05405 22.5403 8.83786L55.1621 41.4598C58.9459 45.2436 58.9459 51.3783 55.1621 55.1621C51.3783 58.9459 45.2436 58.9459 41.4598 55.1621L8.83786 22.5402C5.05405 18.7564 5.05405 12.6217 8.83786 8.83786ZM19.7118 11.6663C17.4901 9.44457 13.888 9.44457 11.6663 11.6663C9.44457 13.888 9.44457 17.4901 11.6663 19.7118L15.8964 23.9419L23.9419 15.8964L19.7118 11.6663ZM44.2882 52.3337L18.7248 26.7703L26.7703 18.7248L52.3337 44.2882C54.5554 46.5099 54.5554 50.112 52.3337 52.3337C50.112 54.5554 46.5099 54.5554 44.2882 52.3337Z" fill="#11337A"/>
<path fill-rule="evenodd" clip-rule="evenodd" d="M56.8852 23.8576C56.013 21.6377 52.8771 21.6377 52.0049 23.8576L51.5928 24.9063L50.5494 25.3193C48.3377 26.1948 48.3377 29.3306 50.5494 30.2061L51.5928 30.6192L52.0049 31.6679C52.8771 33.8877 56.013 33.8877 56.8852 31.6679L57.2973 30.6192L58.3407 30.2061C60.5524 29.3306 60.5524 26.1948 58.3407 25.3193L57.2973 24.9063L56.8852 23.8576ZM54.445 24.9391L54.0683 25.8978C53.8026 26.574 53.2686 27.1109 52.5919 27.3788L51.622 27.7627L52.5919 28.1467C53.2686 28.4145 53.8026 28.9515 54.0683 29.6277L54.445 30.5864L54.8217 29.6277C55.0875 28.9515 55.6215 28.4145 56.2982 28.1467L57.2681 27.7627L56.2982 27.3788C55.6215 27.1109 55.0875 26.574 54.8217 25.8978L54.445 24.9391Z" fill="#11337A"/>
<path fill-rule="evenodd" clip-rule="evenodd" d="M12.4476 40.3315C13.3198 38.1117 16.4557 38.1117 17.3279 40.3315L17.74 41.3803L18.7834 41.7933C20.9951 42.6688 20.9951 45.8046 18.7834 46.6801L17.74 47.0931L17.3279 48.1418C16.4557 50.3617 13.3198 50.3617 12.4476 48.1418L12.0355 47.0931L10.9921 46.6801C8.78042 45.8046 8.78042 42.6688 10.9921 41.7933L12.0355 41.3803L12.4476 40.3315ZM14.511 42.3717L14.8877 41.413L15.2645 42.3717C15.5302 43.0479 16.0642 43.5849 16.7409 43.8528L17.7108 44.2367L16.7409 44.6206C16.0642 44.8885 15.5302 45.4255 15.2645 46.1017L14.8877 47.0603L14.511 46.1017C14.2453 45.4255 13.7113 44.8885 13.0346 44.6206L12.0647 44.2367L13.0346 43.8528C13.7113 43.5849 14.2453 43.0479 14.511 42.3717Z" fill="#11337A"/>
</svg>
