<svg width="64" height="64" viewBox="0 0 64 64" fill="none" xmlns="http://www.w3.org/2000/svg">
<path fill-rule="evenodd" clip-rule="evenodd" d="M14 20.5348C14 10.9397 22.1567 3.33398 32 3.33398C41.6212 3.33398 49.631 10.6003 49.9876 19.8883L51.2617 20.313C52.4967 20.7246 53.5791 21.0854 54.4379 21.4849C55.3663 21.9167 56.217 22.473 56.8675 23.3754C57.5179 24.2778 57.7766 25.2609 57.8927 26.2782C58.0002 27.2192 58.0001 28.3602 58 29.6619V44.9905C58.0001 46.6156 58.0001 48.0019 57.874 49.1142C57.7414 50.2842 57.4448 51.4339 56.6411 52.4148C56.1796 52.9781 55.6194 53.4526 54.9879 53.8153C53.8883 54.4467 52.7054 54.5503 51.5295 54.4888C50.4117 54.4303 49.0441 54.2023 47.4411 53.9351L47.3302 53.9166C43.8827 53.342 42.4936 53.1249 41.1397 53.2382C40.6444 53.2796 40.1524 53.3536 39.6668 53.4597C38.3397 53.7495 37.0636 54.3716 33.9094 55.9487C33.7997 56.0035 33.6913 56.0578 33.5841 56.1114C29.897 57.9557 27.6254 59.0919 25.1742 59.4468C24.4369 59.5536 23.6929 59.6065 22.9479 59.605C20.4712 59.6003 18.0799 58.8028 14.2009 57.5092C14.0887 57.4718 13.9753 57.4339 13.8606 57.3957L12.8377 57.0547L12.7382 57.0216C11.5033 56.61 10.4209 56.2493 9.56213 55.8498C8.63376 55.4179 7.78297 54.8616 7.13256 53.9592C6.48214 53.0568 6.22344 52.0738 6.1073 51.0565C5.99986 50.1154 5.99993 48.9745 6 47.6727L6 34.2866C5.99992 32.1903 5.99985 30.4232 6.17944 29.0393C6.36689 27.5947 6.79073 26.1823 7.95366 25.1201C8.29552 24.8079 8.67236 24.5363 9.07667 24.3107C10.4521 23.5433 11.926 23.5879 13.3558 23.8669C13.6458 23.9235 13.9496 23.9931 14.2672 24.0741C14.091 22.8852 14 21.6999 14 20.5348ZM15.3299 28.5588C14.1886 28.1907 13.3127 27.9339 12.5897 27.7928C11.536 27.5872 11.1906 27.7118 11.0256 27.8038C10.8908 27.879 10.7652 27.9695 10.6512 28.0736C10.5117 28.201 10.2843 28.4893 10.1462 29.554C10.004 30.6496 10 32.154 10 34.422V47.5679C10 49.0054 10.003 49.9156 10.0815 50.6027C10.1541 51.2388 10.2729 51.4752 10.3775 51.6204C10.4821 51.7655 10.6689 51.953 11.2493 52.223C11.8764 52.5147 12.7389 52.8054 14.1026 53.26L15.1255 53.601C19.455 55.0441 21.2024 55.6017 22.9555 55.605C23.5061 55.6061 24.056 55.567 24.601 55.4881C26.3355 55.2369 28.0025 54.43 32.1206 52.371C32.204 52.3293 32.2864 52.288 32.368 52.2472C35.1964 50.8326 36.9388 49.9611 38.8133 49.5518C39.4703 49.4083 40.136 49.3082 40.8061 49.2521C42.7181 49.0921 44.625 49.4102 47.7187 49.9262C47.8075 49.941 47.8971 49.9559 47.9878 49.971C49.7325 50.2618 50.8743 50.449 51.7385 50.4942C52.5702 50.5377 52.8561 50.4269 52.996 50.3465C53.2065 50.2256 53.3932 50.0674 53.5471 49.8797C53.6493 49.7549 53.8057 49.4912 53.8995 48.6636C53.997 47.8037 54 46.6467 54 44.878V29.7667C54 28.3292 53.997 27.419 53.9185 26.7319C53.8459 26.0959 53.7271 25.8594 53.6225 25.7143C53.5179 25.5691 53.3311 25.3816 52.7507 25.1116C52.1236 24.8199 51.2611 24.5292 49.8974 24.0746L49.7405 24.0223C49.2333 27.4927 47.9989 30.9962 46.1794 34.1232C43.7462 38.3048 40.186 41.9469 35.7256 43.8928C33.3583 44.9255 30.6417 44.9255 28.2744 43.8928C23.8141 41.9469 20.2538 38.3048 17.8206 34.1232C16.7966 32.3633 15.9579 30.4841 15.3299 28.5588ZM32 7.33398C24.1702 7.33398 18 13.3395 18 20.5348C18 24.3146 19.1665 28.4829 21.2779 32.1114C23.3899 35.7409 26.3667 38.6965 29.8739 40.2265C31.2213 40.8143 32.7787 40.8143 34.1262 40.2265C37.6333 38.6965 40.6101 35.7409 42.7221 32.1114C44.8335 28.4829 46 24.3146 46 20.5348C46 13.3395 39.8298 7.33398 32 7.33398ZM32 18.0007C30.1591 18.0007 28.6667 19.493 28.6667 21.334C28.6667 23.1749 30.1591 24.6673 32 24.6673C33.841 24.6673 35.3333 23.1749 35.3333 21.334C35.3333 19.493 33.841 18.0007 32 18.0007ZM24.6667 21.334C24.6667 17.2839 27.9499 14.0007 32 14.0007C36.0501 14.0007 39.3333 17.2839 39.3333 21.334C39.3333 25.3841 36.0501 28.6673 32 28.6673C27.9499 28.6673 24.6667 25.3841 24.6667 21.334Z" fill="#11337A"/>
</svg>
