<svg width="32" height="32" viewBox="0 0 32 32" fill="none" xmlns="http://www.w3.org/2000/svg">
<path fill-rule="evenodd" clip-rule="evenodd" d="M11.6818 7H14.985C16.6871 6.99999 18.0358 6.99998 19.1164 7.10273C20.2229 7.20793 21.1511 7.42785 21.9758 7.93328C22.828 8.45551 23.5445 9.172 24.0667 10.0242C24.5722 10.849 24.7921 11.7772 24.8973 12.8836C25 13.9643 25 15.313 25 17.0151V18.1699C25 19.3815 25 20.3417 24.947 21.1196C24.8927 21.9143 24.7798 22.5915 24.5179 23.2237C23.8751 24.7756 22.6422 26.0085 21.0904 26.6513C20.2945 26.981 19.4167 27.0775 18.3129 27.1128C17.7189 27.1318 17.3393 27.1449 17.0509 27.1801C16.7782 27.2133 16.6759 27.2578 16.6206 27.2905C16.5591 27.3268 16.4743 27.3935 16.3263 27.5972C16.1665 27.8173 15.9855 28.121 15.6989 28.6052L15.353 29.1897C14.4504 30.7146 12.2162 30.7146 11.3137 29.1897L10.9677 28.6052C10.6811 28.121 10.5002 27.8173 10.3403 27.5972C10.1924 27.3935 10.1075 27.3268 10.0461 27.2905C9.99076 27.2578 9.88844 27.2133 9.61578 27.1801C9.32738 27.1449 8.94772 27.1318 8.35379 27.1128C7.24995 27.0775 6.37217 26.9809 5.57636 26.6513C4.02451 26.0085 2.79158 24.7756 2.14878 23.2237C1.88691 22.5915 1.77397 21.9143 1.71975 21.1196C1.66668 20.3417 1.66668 19.3815 1.66669 18.1699V17.0151C1.66668 15.313 1.66667 13.9643 1.76942 12.8836C1.87462 11.7772 2.09454 10.849 2.59997 10.0242C3.12218 9.172 3.83868 8.45551 4.69086 7.93328C5.51564 7.42785 6.44384 7.20793 7.55027 7.10273C8.63092 6.99998 9.97966 6.99999 11.6818 7ZM7.73958 9.09375C6.77955 9.18503 6.19358 9.35807 5.73586 9.63856C5.15279 9.99587 4.66256 10.4861 4.30525 11.0692C4.02476 11.5269 3.85172 12.1129 3.76044 13.0729C3.66774 14.0478 3.66669 15.3015 3.66669 17.0667V18.1334C3.66669 19.3896 3.66723 20.2816 3.71512 20.9835C3.76239 21.6763 3.85244 22.1105 3.99654 22.4584C4.43635 23.5202 5.27994 24.3637 6.34173 24.8036C6.7873 24.9881 7.36138 25.08 8.41773 25.1138L8.4592 25.1152C8.99973 25.1324 9.46989 25.1474 9.85794 25.1948C10.2716 25.2452 10.6781 25.3406 11.0643 25.5691C11.4444 25.7939 11.7189 26.092 11.9585 26.4219C12.1802 26.7271 12.4086 27.113 12.6675 27.5504L12.6889 27.5865L13.0348 28.1709C13.0953 28.2732 13.201 28.3333 13.3333 28.3333C13.4657 28.3333 13.5714 28.2732 13.6319 28.1709L13.9992 27.5504C14.2581 27.113 14.4865 26.7271 14.7081 26.4219C14.9478 26.092 15.2223 25.7939 15.6024 25.5691C15.9886 25.3406 16.395 25.2452 16.8087 25.1948C17.1968 25.1474 17.667 25.1324 18.2075 25.1152L18.2489 25.1138C19.3053 25.08 19.8794 24.9881 20.325 24.8036C21.3868 24.3637 22.2304 23.5202 22.6702 22.4584C22.8143 22.1105 22.9043 21.6763 22.9516 20.9835C22.9995 20.2816 23 19.3896 23 18.1334V17.0667C23 15.3015 22.999 14.0478 22.9063 13.0729C22.815 12.1129 22.642 11.5269 22.3615 11.0692C22.0042 10.4861 21.5139 9.99587 20.9308 9.63856C20.4731 9.35807 19.8872 9.18503 18.9271 9.09375C17.9522 9.00106 16.6985 9 14.9334 9H11.7334C9.96816 9 8.71449 9.00106 7.73958 9.09375Z" fill="#6D8CAD"/>
<path fill-rule="evenodd" clip-rule="evenodd" d="M17.782 1.66602H20.8846C22.4778 1.666 23.7448 1.666 24.7608 1.76261C25.8027 1.86167 26.6836 2.06931 27.4683 2.55018C28.2756 3.04492 28.9544 3.7237 29.4491 4.53104C29.93 5.31574 30.1376 6.19663 30.2367 7.23848C30.3333 8.25456 30.3333 9.52151 30.3333 11.1147V12.2024C30.3333 13.3365 30.3333 14.2385 30.2834 14.9699C30.2323 15.7181 30.1257 16.3606 29.8766 16.9622C29.2676 18.4323 28.0995 19.6004 26.6294 20.2094C25.8792 20.5201 25.0554 20.6118 24.0332 20.6458L23.9668 18.6469C24.9385 18.6146 25.4613 18.5284 25.864 18.3616C26.8441 17.9556 27.6228 17.1769 28.0288 16.1968C28.1602 15.8795 28.2439 15.4801 28.288 14.8338C28.3327 14.1784 28.3333 13.3446 28.3333 12.1661V11.1661C28.3333 9.50997 28.3322 8.33812 28.2457 7.42779C28.1605 6.53233 27.9998 5.99368 27.7438 5.57603C27.414 5.03781 26.9615 4.58528 26.4233 4.25546C26.0056 3.99952 25.467 3.83877 24.5715 3.75363C23.6612 3.66707 22.4894 3.66602 20.8333 3.66602H17.8333C16.1772 3.66602 15.0054 3.66707 14.095 3.75363C13.1996 3.83877 12.6609 3.99952 12.2433 4.25546C11.7051 4.58528 11.2525 5.03781 10.9227 5.57603C10.6094 6.08727 10.4429 6.77079 10.3763 8.0513L8.37897 7.9474C8.44998 6.58224 8.6346 5.48214 9.21743 4.53104C9.71217 3.7237 10.3909 3.04492 11.1983 2.55018C11.983 2.06931 12.8639 1.86167 13.9057 1.76261C14.9218 1.666 16.1887 1.666 17.782 1.66602Z" fill="#6D8CAD"/>
<path fill-rule="evenodd" clip-rule="evenodd" d="M7.3454 17.3333C7.3454 16.597 7.94235 16 8.67873 16H8.69073C9.42711 16 10.0241 16.597 10.0241 17.3333C10.0241 18.0697 9.42711 18.6667 8.69073 18.6667H8.67873C7.94235 18.6667 7.3454 18.0697 7.3454 17.3333ZM11.9997 17.3333C11.9997 16.597 12.5966 16 13.333 16H13.345C14.0814 16 14.6784 16.597 14.6784 17.3333C14.6784 18.0697 14.0814 18.6667 13.345 18.6667H13.333C12.5966 18.6667 11.9997 18.0697 11.9997 17.3333ZM16.6544 17.3333C16.6544 16.597 17.2513 16 17.9877 16H17.9997C18.7361 16 19.333 16.597 19.333 17.3333C19.333 18.0697 18.7361 18.6667 17.9997 18.6667H17.9877C17.2513 18.6667 16.6544 18.0697 16.6544 17.3333Z" fill="#6D8CAD"/>
</svg>
