<svg width="64" height="64" viewBox="0 0 64 64" fill="none" xmlns="http://www.w3.org/2000/svg">
<path fill-rule="evenodd" clip-rule="evenodd" d="M26.5162 3.33203L41.4251 3.33203C44.4602 3.33202 46.8653 3.332 48.8013 3.49667C50.7815 3.6651 52.4537 4.01668 53.971 4.8277C56.1804 6.00866 57.99 7.81826 59.171 10.0277C59.982 11.545 60.3336 13.2172 60.502 15.1974C60.6667 17.1333 60.6667 19.5385 60.6666 22.5735V22.6654C60.6666 23.7699 59.7712 24.6654 58.6666 24.6654C57.5621 24.6654 56.6666 23.7699 56.6666 22.6654C56.6666 19.5181 56.665 17.283 56.5164 15.5364C56.37 13.8147 56.0918 12.7523 55.6433 11.9133C54.8353 10.4016 53.5971 9.1634 52.0854 8.35538C51.2463 7.90689 50.184 7.62872 48.4623 7.48228C46.7157 7.33372 44.4806 7.33203 41.3333 7.33203H26.6666C21.5818 7.33203 17.9693 7.33628 15.2289 7.70472C12.546 8.06543 11.0003 8.74188 9.87172 9.87044C8.74316 10.999 8.06671 12.5447 7.70601 15.2276C7.33756 17.9681 7.33332 21.5805 7.33332 26.6654V29.332C7.33332 30.5561 7.33375 31.6617 7.3432 32.6654H29.3333C30.4379 32.6654 31.3333 33.5608 31.3333 34.6654C31.3333 35.7699 30.4379 36.6654 29.3333 36.6654H7.48458C7.51795 37.0823 7.55867 37.474 7.60837 37.8437C7.87145 39.8004 8.35264 40.8366 9.09068 41.5747C9.82871 42.3127 10.8649 42.7939 12.8216 43.057C14.8359 43.3278 17.5055 43.332 21.3333 43.332H29.3333C30.4379 43.332 31.3333 44.2275 31.3333 45.332V58.6654C31.3333 59.7699 30.4379 60.6654 29.3333 60.6654H21.3333C20.2287 60.6654 19.3333 59.7699 19.3333 58.6654C19.3333 57.5608 20.2287 56.6654 21.3333 56.6654H27.3333V47.332H21.187C17.5401 47.3321 14.6006 47.3321 12.2886 47.0213C9.88836 46.6986 7.86736 46.0082 6.26225 44.4031C4.65714 42.798 3.96675 40.777 3.64404 38.3767C3.51478 37.4152 3.43928 36.3452 3.39518 35.1609C3.35479 35.0024 3.33332 34.8364 3.33332 34.6654C3.33332 34.5369 3.34543 34.4112 3.36858 34.2895C3.33326 32.8457 3.33329 31.2451 3.33331 29.4784L3.33332 26.5149C3.33327 21.6142 3.33324 17.7325 3.74167 14.6946C4.16202 11.5682 5.04766 9.03765 7.0433 7.04201C9.03893 5.04638 11.5695 4.16073 14.6959 3.74039C17.7338 3.33196 21.6155 3.33199 26.5162 3.33203ZM47.8613 27.332H48.1386C50.5346 27.332 52.5325 27.3319 54.1186 27.5451C55.7927 27.7702 57.3042 28.2653 58.5188 29.4799C59.7333 30.6945 60.2285 32.206 60.4535 33.8801C60.6668 35.4662 60.6667 37.4641 60.6666 39.8601V48.1374C60.6667 50.5333 60.6668 52.5312 60.4535 54.1173C60.2285 55.7914 59.7333 57.3029 58.5188 58.5175C57.3042 59.7321 55.7927 60.2272 54.1186 60.4523C52.5325 60.6655 50.5346 60.6654 48.1386 60.6654H47.8613C45.4654 60.6654 43.4675 60.6655 41.8814 60.4523C40.2072 60.2272 38.6958 59.7321 37.4812 58.5175C36.2666 57.3029 35.7715 55.7914 35.5464 54.1173C35.3332 52.5312 35.3332 50.5333 35.3333 48.1374V39.8601C35.3332 37.4641 35.3332 35.4662 35.5464 33.8801C35.7715 32.206 36.2666 30.6945 37.4812 29.4799C38.6958 28.2653 40.2072 27.7702 41.8814 27.5451C43.4675 27.3319 45.4654 27.332 47.8613 27.332ZM42.4144 31.5095C41.1838 31.6749 40.6571 31.9608 40.3096 32.3083C39.9621 32.6559 39.6762 33.1825 39.5107 34.4131C39.3376 35.7012 39.3333 37.428 39.3333 39.9987V47.9987C39.3333 50.5694 39.3376 52.2962 39.5107 53.5843C39.6762 54.8149 39.9621 55.3415 40.3096 55.6891C40.6571 56.0366 41.1838 56.3225 42.4144 56.4879C43.7025 56.6611 45.4293 56.6654 48 56.6654C50.5707 56.6654 52.2975 56.6611 53.5856 56.4879C54.8162 56.3225 55.3428 56.0366 55.6903 55.6891C56.0378 55.3415 56.3238 54.8149 56.4892 53.5843C56.6624 52.2962 56.6666 50.5694 56.6666 47.9987V39.9987C56.6666 37.428 56.6624 35.7012 56.4892 34.4131C56.3238 33.1825 56.0378 32.6559 55.6903 32.3083C55.3428 31.9608 54.8162 31.6749 53.5856 31.5095C52.2975 31.3363 50.5707 31.332 48 31.332C45.4293 31.332 43.7025 31.3363 42.4144 31.5095ZM43.3333 53.332C43.3333 52.2275 44.2287 51.332 45.3333 51.332H50.6666C51.7712 51.332 52.6666 52.2275 52.6666 53.332C52.6666 54.4366 51.7712 55.332 50.6666 55.332H45.3333C44.2287 55.332 43.3333 54.4366 43.3333 53.332Z" fill="#11337A"/>
</svg>
