<svg width="40" height="40" viewBox="0 0 40 40" fill="none" xmlns="http://www.w3.org/2000/svg">
<path d="M19.0067 36.6654C18.5088 36.4475 18.0687 36.1164 17.7213 35.6986C14.9247 33.0616 12.4668 30.0871 10.4044 26.8436C8.79386 24.402 7.6399 21.6883 6.9986 18.8345C6.55618 16.9478 6.55605 14.9843 6.9982 13.0976C7.44036 11.2108 8.31283 9.4518 9.54744 7.95808C10.5217 6.72054 11.7306 5.68753 13.105 4.91833C14.4794 4.14912 15.9922 3.65884 17.5565 3.47564C19.6723 3.14864 21.8368 3.38237 23.834 4.1535C25.8312 4.92462 27.5912 6.20616 28.9383 7.87017C30.4379 9.63485 31.3988 11.7932 31.7069 14.0884C32.0145 16.5438 31.6854 19.037 30.751 21.3284C29.4884 24.4928 27.7671 27.4542 25.6424 30.1175C24.0653 32.1883 22.3357 34.1383 20.4679 35.9512C20.1739 36.2028 19.8576 36.4271 19.523 36.6214L19.0067 36.6654ZM19.2594 21.8887C20.4426 21.8887 21.5994 21.5381 22.5836 20.8812C23.5677 20.2242 24.3352 19.2904 24.789 18.1976C25.2428 17.1048 25.3627 15.902 25.1334 14.7411C24.9042 13.5803 24.3361 12.5134 23.5009 11.6751C22.6657 10.8369 21.6009 10.2649 20.4409 10.0314C19.2808 9.79789 18.0777 9.9133 16.9832 10.3631C15.8887 10.8129 14.9521 11.577 14.2916 12.5587C13.631 13.5405 13.2761 14.6959 13.2718 15.8792C13.2645 16.6701 13.4141 17.4546 13.7117 18.1874C14.0094 18.9202 14.4493 19.5868 15.006 20.1486C15.5627 20.7104 16.2252 21.1564 16.9553 21.4607C17.6853 21.7651 18.4684 21.9217 19.2594 21.9217V21.8887Z" fill="white"/>
</svg>
