<svg width="64" height="64" viewBox="0 0 64 64" fill="none" xmlns="http://www.w3.org/2000/svg">
<path d="M35.359 5.01549C35.5356 3.92511 36.5663 3.18545 37.6567 3.36198C37.7242 3.3749 37.9414 3.41548 38.0551 3.44082C38.2827 3.4915 38.6001 3.56952 38.9958 3.68479C39.7873 3.9153 40.8929 4.29505 42.2198 4.90341C44.8766 6.12142 48.4121 8.2521 52.0809 11.9209C55.7497 15.5897 57.8804 19.1252 59.0984 21.7819C59.7067 23.1089 60.0865 24.2145 60.317 25.0059C60.4323 25.4017 60.5103 25.7191 60.561 25.9466C60.5863 26.0604 60.6048 26.1518 60.6177 26.2193L60.6331 26.3025C60.8096 27.3928 60.0767 28.4662 58.9863 28.6427C57.899 28.8188 56.8748 28.0827 56.6939 26.9974C56.6883 26.9683 56.6731 26.89 56.6566 26.8162C56.6237 26.6685 56.5668 26.4343 56.4766 26.1245C56.2961 25.505 55.9827 24.5841 55.4623 23.4489C54.4227 21.1815 52.5534 18.0503 49.2525 14.7493C45.9515 11.4484 42.8203 9.57905 40.5528 8.5395C39.4177 8.01908 38.4968 7.70566 37.8772 7.5252C37.5675 7.43498 37.1782 7.34562 37.0305 7.31273C35.9452 7.13187 35.183 6.10275 35.359 5.01549Z" fill="#11337A"/>
<path fill-rule="evenodd" clip-rule="evenodd" d="M35.9624 14.2141C36.2658 13.152 37.3728 12.537 38.4349 12.8405L37.8854 14.7635C38.4349 12.8405 38.4349 12.8405 38.4349 12.8405L38.4387 12.8416L38.4428 12.8427L38.4517 12.8453L38.4723 12.8515L38.5251 12.8679C38.5653 12.8808 38.6155 12.8975 38.6754 12.9188C38.7952 12.9613 38.9535 13.0217 39.1476 13.1049C39.5361 13.2714 40.0669 13.5286 40.719 13.9144C42.0242 14.6869 43.806 15.9701 45.8993 18.0633C47.9926 20.1566 49.2757 21.9384 50.0482 23.2437C50.4341 23.8957 50.6912 24.4265 50.8577 24.815C50.9409 25.0092 51.0013 25.1675 51.0438 25.2872C51.0651 25.3471 51.0818 25.3973 51.0947 25.4375L51.1111 25.4903L51.1173 25.511L51.1199 25.5198L51.1211 25.5239C51.1211 25.5239 51.1222 25.5278 49.1991 26.0772L51.1222 25.5278C51.4256 26.5898 50.8106 27.6968 49.7486 28.0003C48.6955 28.3011 47.5983 27.6991 47.284 26.6536L47.2741 26.6249C47.2599 26.5848 47.2305 26.5059 47.1811 26.3907C47.0824 26.1605 46.9035 25.7839 46.6059 25.2809C46.0113 24.2763 44.9374 22.7583 43.0709 20.8918C41.2043 19.0252 39.6863 17.9513 38.6817 17.3568C38.1788 17.0591 37.8022 16.8802 37.5719 16.7815C37.4567 16.7321 37.3778 16.7027 37.3378 16.6885L37.309 16.6786C36.2635 16.3643 35.6615 15.2671 35.9624 14.2141Z" fill="#11337A"/>
<path fill-rule="evenodd" clip-rule="evenodd" d="M13.3533 11.7535C17.8334 7.27334 25.3938 7.61392 28.5133 13.2036L30.244 16.3047C32.2812 19.9549 31.4131 24.5605 28.4309 27.5791C28.3912 27.6335 28.1807 27.9399 28.1545 28.4755C28.121 29.159 28.3638 30.7397 30.8129 33.1889C33.2613 35.6372 34.8418 35.8806 35.5256 35.8473C36.0615 35.8212 36.3683 35.6106 36.4228 35.5708C39.4414 32.5887 44.0469 31.7206 47.6971 33.7577L50.7982 35.4884C56.3879 38.6079 56.7284 46.1683 52.2483 50.6485C49.8518 53.0449 46.6654 55.1743 42.9209 55.3162C37.3717 55.5266 28.1577 54.0935 19.033 44.9688C9.90824 35.844 8.4752 26.6301 8.68557 21.0809C8.82753 17.3364 10.9568 14.1499 13.3533 11.7535ZM25.0205 15.1529C23.4231 12.2907 19.1306 11.6331 16.1817 14.5819C14.1141 16.6495 12.7699 18.9317 12.6827 21.2325C12.5073 25.86 13.6498 33.9287 21.8614 42.1404C30.0731 50.352 38.1418 51.4945 42.7693 51.3191C45.0701 51.2319 47.3522 49.8877 49.4198 47.8201C52.3687 44.8712 51.7111 40.5787 48.8489 38.9813L45.7477 37.2506C43.8187 36.174 41.109 36.5413 39.2068 38.4434C39.02 38.6301 37.8305 39.7399 35.7199 39.8426C33.5594 39.9477 30.9441 38.9769 27.9845 36.0173C25.0239 33.0567 24.0535 30.4407 24.1593 28.2798C24.2626 26.1691 25.3725 24.9809 25.5583 24.7951C27.4604 22.8929 27.8278 20.1831 26.7512 18.254L25.0205 15.1529Z" fill="#11337A"/>
</svg>
