<svg width="64" height="64" viewBox="0 0 64 64" fill="none" xmlns="http://www.w3.org/2000/svg">
<path fill-rule="evenodd" clip-rule="evenodd" d="M19.3022 8.11829C15.0719 5.81788 10 8.85195 10 13.4211L10 21.3333C10 22.4379 9.10457 23.3333 8 23.3333C6.89543 23.3333 6 22.4379 6 21.3333L6 13.4211C6 5.67437 14.4446 0.923591 21.2131 4.60426L55.3783 23.1832C62.4294 27.0176 62.4295 36.9824 55.3783 40.8168L38.2957 50.1063C37.3253 50.634 36.1109 50.2751 35.5832 49.3047C35.0555 48.3344 35.4144 47.1199 36.3848 46.5923L53.4674 37.3028C57.7331 34.9831 57.7331 29.0169 53.4674 26.6972L19.3022 8.11829ZM8 30C9.10457 30 10 30.8954 10 32L10 50.579C10 55.1481 15.0719 58.1821 19.3022 55.8817L27.8435 51.237C28.8139 50.7093 30.0283 51.0682 30.556 52.0385C31.0836 53.0089 30.7248 54.2233 29.7544 54.751L21.2131 59.3958C14.4446 63.0764 6 58.3257 6 50.579L6 32C6 30.8954 6.89543 30 8 30Z" fill="white"/>
</svg>
