<svg width="80" height="80" viewBox="0 0 80 80" fill="none" xmlns="http://www.w3.org/2000/svg">
<path fill-rule="evenodd" clip-rule="evenodd" d="M59.5368 10.5433C59.7123 10.6019 59.8901 10.6613 60.0703 10.7214L64.0772 12.057C65.6209 12.5714 66.9739 13.0224 68.0474 13.5217C69.2078 14.0616 70.2713 14.757 71.0843 15.885C71.8973 17.013 72.2207 18.2418 72.3659 19.5134C72.5002 20.6897 72.5001 22.1159 72.5 23.7431V51.1184C72.5001 53.4465 72.5002 55.41 72.3197 56.9622C72.1322 58.5748 71.7119 60.169 70.5368 61.4551C69.8398 62.2179 68.9927 62.8285 68.0485 63.2485C66.4569 63.9566 64.8116 63.8512 63.2224 63.5191C61.6928 63.1995 59.8301 62.5785 57.6215 61.8422L57.4794 61.7948C53.7442 60.5498 52.4642 60.1619 51.2216 60.2043C50.7266 60.2212 50.2344 60.2871 49.7523 60.4011C48.5423 60.6871 47.4095 61.3981 44.1335 63.5821L39.5256 66.6541C39.3675 66.7594 39.2117 66.8635 39.0578 66.9662C35.5194 69.3279 33.0585 70.9705 30.1816 71.3558C27.3047 71.741 24.4983 70.8039 20.4632 69.4563C20.2877 69.3977 20.1099 69.3384 19.9297 69.2783L15.9228 67.9426C14.3791 67.4282 13.0261 66.9773 11.9527 66.4779C10.7922 65.9381 9.72871 65.2427 8.91569 64.1147C8.10267 62.9867 7.7793 61.7579 7.63412 60.4863C7.49983 59.31 7.49991 57.8838 7.50001 56.2566L7.50001 28.8813C7.49992 26.5532 7.49986 24.5897 7.68034 23.0375C7.86785 21.4248 8.28816 19.8306 9.46321 18.5446C10.1602 17.7817 11.0074 17.1712 11.9515 16.7511C13.5431 16.0431 15.1884 16.1485 16.7776 16.4805C18.3072 16.8002 20.1699 17.4211 22.3785 18.1574L22.5206 18.2048C26.2558 19.4499 27.5358 19.8378 28.7784 19.7953C29.2735 19.7784 29.7656 19.7125 30.2477 19.5986C31.4577 19.3125 32.5905 18.6016 35.8665 16.4175L40.4744 13.3456C40.6325 13.2402 40.7884 13.1362 40.9422 13.0335C44.4807 10.6717 46.9415 9.02914 49.8184 8.64388C52.6953 8.25861 55.5017 9.19578 59.5368 10.5433ZM58.4891 15.4648C53.6998 13.8683 52.068 13.3873 50.4821 13.5996C48.8962 13.812 47.4484 14.7055 43.2479 17.5058L38.64 20.5778C38.5164 20.6602 38.3946 20.7415 38.2743 20.8217C35.5095 22.6667 33.5929 23.9456 31.3979 24.4645C30.5945 24.6544 29.7741 24.7642 28.949 24.7924C26.6949 24.8694 24.5092 24.1398 21.3564 23.0873C21.2193 23.0416 21.0804 22.9952 20.9395 22.9482C18.5507 22.1519 16.9656 21.6278 15.7549 21.3748C14.571 21.1274 14.165 21.2389 13.9838 21.3195C13.6691 21.4595 13.3867 21.663 13.1544 21.9173C13.0207 22.0637 12.7866 22.4136 12.6469 23.6149C12.504 24.8436 12.5 26.513 12.5 29.031V56.1256C12.5 57.9225 12.5038 59.0602 12.6018 59.9191C12.6926 60.7141 12.8411 61.0097 12.9719 61.1911C13.1027 61.3726 13.3361 61.6069 14.0616 61.9445C14.8455 62.3091 15.9236 62.6725 17.6283 63.2407L21.5109 64.5349C26.3002 66.1313 27.932 66.6124 29.5179 66.4C31.1038 66.1876 32.5516 65.2941 36.7521 62.4938L41.36 59.4218C41.4836 59.3395 41.6054 59.2582 41.7257 59.1779C44.4905 57.333 46.4071 56.054 48.6021 55.5352C49.4056 55.3453 50.2259 55.2354 51.051 55.2072C53.3051 55.1302 55.4908 55.8598 58.6435 56.9123C58.7807 56.9581 58.9196 57.0045 59.0605 57.0514C61.4493 57.8477 63.0344 58.3718 64.2451 58.6248C65.429 58.8722 65.835 58.7608 66.0162 58.6802C66.3309 58.5402 66.6133 58.3367 66.8456 58.0824C66.9794 57.936 67.2134 57.5861 67.3531 56.3847C67.496 55.1561 67.5 53.4866 67.5 50.9686V23.8741C67.5 22.0772 67.4962 20.9395 67.3982 20.0805C67.3074 19.2855 67.1589 18.9899 67.0281 18.8085C66.8974 18.6271 66.6639 18.3927 65.9384 18.0552C65.1545 17.6905 64.0764 17.3272 62.3717 16.759L58.4891 15.4648Z" fill="#11337A"/>
<path opacity="0.5" fill-rule="evenodd" clip-rule="evenodd" d="M27.5 68.3335V22.1289H32.5V68.3335H27.5Z" fill="#11337A"/>
<path opacity="0.5" fill-rule="evenodd" clip-rule="evenodd" d="M47.5 56.6667V10H52.5V56.6667H47.5Z" fill="#11337A"/>
</svg>
