<svg width="32" height="32" viewBox="0 0 32 32" fill="none" xmlns="http://www.w3.org/2000/svg">
<path d="M29.3333 7.15294L30.0833 7.15294V7.15294H29.3333ZM12.606 17.7365L13.1353 17.205L12.606 17.7365ZM12.606 11.391L13.1353 11.9225L12.606 11.391ZM20.5714 19.3229L20.0422 18.7914L20.5714 19.3229ZM14.1991 19.3229L13.6699 19.8543L14.1991 19.3229ZM27.3537 12.5691L27.8829 13.1006L27.3537 12.5691ZM29.3333 7.81003L28.5833 7.81003V7.81003H29.3333ZM19.3883 4.6373L18.8591 4.10585L19.3883 4.6373ZM16.3214 16.6816C16.6149 16.3893 16.6159 15.9144 16.3236 15.6209C16.0314 15.3274 15.5565 15.3264 15.263 15.6187L16.3214 16.6816ZM10.2785 13.7087L10.8085 13.1781L10.8078 13.1773L10.2785 13.7087ZM15.3854 8.848C15.7339 9.07199 16.1979 8.9711 16.4219 8.62267C16.6459 8.27424 16.545 7.8102 16.1966 7.58622L15.3854 8.848ZM15.0611 7.74792L14.6556 8.37881V8.37881L15.0611 7.74792ZM12.0804 6.22031L12.1899 5.47835L12.0804 6.22031ZM6.39468 9.64442L6.92389 10.1759L6.39468 9.64442ZM10.0072 6.48494L10.2943 7.1778L10.0072 6.48494ZM7.13475 11.2697L7.41075 10.5723L7.41075 10.5723L7.13475 11.2697ZM7.27769 11.3268L6.99228 12.0204L7.27769 11.3268ZM9.1641 12.599L9.69331 12.0675H9.69331L9.1641 12.599ZM9.05483 12.4909L8.53288 13.0295L9.05483 12.4909ZM6.69553 11.0958L6.41953 11.7932H6.41954L6.69553 11.0958ZM18.3134 21.7826L17.7834 22.3132C17.795 22.3248 17.807 22.336 17.8193 22.3468L18.3134 21.7826ZM24.3881 15.7433C24.1628 15.3958 23.6984 15.2967 23.3508 15.522C23.0032 15.7473 22.9041 16.2117 23.1294 16.5593L24.3881 15.7433ZM24.2299 16.8781L23.6006 17.2861V17.2861L24.2299 16.8781ZM25.764 19.8463L26.5058 19.7359L25.764 19.8463ZM22.3254 25.5081L22.8546 26.0395L22.8546 26.0395L22.3254 25.5081ZM25.4983 21.9107L26.1903 22.2L25.4983 21.9107ZM20.9223 25.3448L21.6188 25.0668L20.9223 25.3448ZM20.3722 24.0798L19.7148 24.4408L20.3722 24.0798ZM18.92 22.3137L19.4492 21.7823L19.4321 21.7653L19.4141 21.7495L18.92 22.3137ZM19.8687 23.3176L20.4588 22.8546L19.8687 23.3176ZM22.2279 25.6051L21.6987 25.0737L21.6987 25.0737L22.2279 25.6051ZM17.9872 21.4568L17.7283 20.7529L17.9872 21.4568ZM10.483 13.9129L11.1787 14.193L10.483 13.9129ZM7.92762 17.712C8.22069 17.4193 8.22098 16.9444 7.92826 16.6514C7.63555 16.3583 7.16067 16.358 6.8676 16.6507L7.92762 17.712ZM5.14196 19.4343L4.61195 18.9036L5.14196 19.4343ZM3.09136 17.3862L2.56136 16.8555H2.56136L3.09136 17.3862ZM3.82643 17.712C4.1195 17.4193 4.11979 16.9444 3.82708 16.6514C3.53436 16.3583 3.05949 16.358 2.76642 16.6507L3.82643 17.712ZM15.2976 25.1381C15.5907 24.8454 15.591 24.3706 15.2982 24.0775C15.0055 23.7844 14.5307 23.7841 14.2376 24.0768L15.2976 25.1381ZM12.5119 26.8604L13.0419 27.3911L12.5119 26.8604ZM14.5625 28.9085L15.0925 29.4392L14.5625 28.9085ZM15.2976 29.2343C15.5907 28.9416 15.591 28.4668 15.2982 28.1737C15.0055 27.8806 14.5307 27.8803 14.2376 28.173L15.2976 29.2343ZM14.0002 22.7369C14.2931 22.444 14.2931 21.9691 14.0002 21.6763C13.7073 21.3834 13.2325 21.3834 12.9396 21.6763L14.0002 22.7369ZM10.1363 24.4795C9.84345 24.7724 9.84345 25.2473 10.1363 25.5402C10.4292 25.833 10.9041 25.833 11.197 25.5402L10.1363 24.4795ZM10.2993 19.0405C10.5922 18.7476 10.5922 18.2727 10.2993 17.9798C10.0064 17.6869 9.53153 17.6869 9.23863 17.9798L10.2993 19.0405ZM6.41609 20.8024C6.1232 21.0952 6.1232 21.5701 6.41609 21.863C6.70899 22.1559 7.18386 22.1559 7.47675 21.863L6.41609 20.8024ZM9.77244 23.2627C10.0686 22.9731 10.0739 22.4982 9.78424 22.2021C9.49462 21.9059 9.01978 21.9007 8.72365 22.1903L9.77244 23.2627ZM6.44422 24.4195C6.14808 24.7091 6.1428 25.184 6.43241 25.4801C6.72203 25.7763 7.19687 25.7815 7.49301 25.4919L6.44422 24.4195ZM26.8245 12.0377L20.0422 18.7914L21.1006 19.8543L27.8829 13.1006L26.8245 12.0377ZM14.7283 18.7914L13.1353 17.205L12.0768 18.2679L13.6699 19.8543L14.7283 18.7914ZM13.1353 11.9225L19.9175 5.16875L18.8591 4.10585L12.0768 10.8596L13.1353 11.9225ZM24.1676 3.41602H24.8274V1.91602H24.1676V3.41602ZM28.5833 7.15293L28.5833 7.81003L30.0833 7.81004L30.0833 7.15294L28.5833 7.15293ZM24.8274 3.41602C25.9106 3.41602 26.6478 3.4176 27.2 3.49152C27.7309 3.5626 27.977 3.68802 28.1443 3.85456L29.2027 2.79166C28.71 2.3011 28.0952 2.09798 27.3991 2.00478C26.7242 1.91444 25.8684 1.91602 24.8274 1.91602V3.41602ZM30.0833 7.15294C30.0833 6.11665 30.0849 5.26367 29.9941 4.5909C29.9003 3.89623 29.6957 3.28266 29.2027 2.79166L28.1443 3.85456C28.3111 4.02066 28.4364 4.26442 28.5076 4.7916C28.5817 5.34068 28.5833 6.07407 28.5833 7.15294H30.0833ZM13.1353 17.205C12.3692 16.4422 11.8493 15.9223 11.5117 15.4816C11.1872 15.0581 11.1031 14.7975 11.1031 14.5638H9.60309C9.60309 15.2593 9.89452 15.8373 10.321 16.3939C10.7343 16.9333 11.3409 17.5351 12.0768 18.2679L13.1353 17.205ZM13.6699 19.8543C14.4059 20.5872 15.0102 21.1912 15.5518 21.6026C16.1108 22.0274 16.6897 22.3163 17.3853 22.3163V20.8163C17.1476 20.8163 16.8845 20.7314 16.4592 20.4083C16.0165 20.0719 15.4943 19.5542 14.7283 18.7914L13.6699 19.8543ZM27.8829 13.1006C28.8161 12.1713 29.4406 11.5683 29.7686 10.7798L28.3836 10.2037C28.1971 10.652 27.8448 11.0217 26.8245 12.0377L27.8829 13.1006ZM28.5833 7.81003C28.5833 9.24695 28.57 9.75569 28.3836 10.2037L29.7686 10.7798C30.0967 9.99094 30.0833 9.12416 30.0833 7.81003H28.5833ZM19.9175 5.16875C20.9375 4.15311 21.3091 3.80169 21.7605 3.61551L21.1885 2.22884C20.3978 2.55498 19.7927 3.17621 18.8591 4.10585L19.9175 5.16875ZM24.1676 1.91602C22.8472 1.91602 21.9789 1.90283 21.1885 2.22884L21.7605 3.61551C22.2122 3.4292 22.7252 3.41602 24.1676 3.41602V1.91602ZM13.9318 19.0611L16.3214 16.6816L15.263 15.6187L12.8734 17.9982L13.9318 19.0611ZM16.1966 7.58622L15.4667 7.11703L14.6556 8.37881L15.3854 8.848L16.1966 7.58622ZM15.4667 7.11703C14.7443 6.65265 14.167 6.28093 13.6713 6.01416C13.1662 5.74231 12.7008 5.55376 12.1899 5.47835L11.9709 6.96227C12.2445 7.00266 12.5373 7.10731 12.9604 7.33501C13.393 7.56779 13.9138 7.90198 14.6556 8.37881L15.4667 7.11703ZM6.92389 10.1759C7.57656 9.52596 8.27909 8.82661 8.911 8.25085C9.22676 7.96315 9.51593 7.71457 9.76533 7.52258C10.0263 7.32166 10.201 7.21648 10.2943 7.1778L9.72007 5.79207C9.43692 5.90942 9.13422 6.11543 8.85032 6.33399C8.55481 6.56148 8.23157 6.84065 7.90075 7.14207C7.23951 7.74455 6.51227 8.46891 5.86548 9.11297L6.92389 10.1759ZM12.1899 5.47835C11.36 5.35585 10.5058 5.46647 9.72007 5.79207L10.2943 7.1778C10.8367 6.95304 11.4171 6.88054 11.9709 6.96227L12.1899 5.47835ZM6.41954 11.7932L6.85876 11.967L7.41075 10.5723L6.97152 10.3985L6.41954 11.7932ZM8.63489 13.1304L9.74933 14.2402L10.8078 13.1773L9.69331 12.0675L8.63489 13.1304ZM6.85876 11.967C6.93229 11.9961 6.96271 12.0082 6.99228 12.0204L7.56309 10.6332C7.52199 10.6163 7.48068 10.6 7.41075 10.5723L6.85876 11.967ZM9.69331 12.0675C9.64008 12.0145 9.60866 11.9832 9.57677 11.9523L8.53288 13.0295C8.5558 13.0517 8.57896 13.0747 8.63489 13.1304L9.69331 12.0675ZM6.99228 12.0204C7.5657 12.2563 8.08853 12.5989 8.53288 13.0295L9.57677 11.9523C8.99562 11.3891 8.31218 10.9415 7.56309 10.6332L6.99228 12.0204ZM5.86548 9.11297C5.02834 9.94656 5.3241 11.3597 6.41953 11.7932L6.97152 10.3985C6.8769 10.361 6.85549 10.244 6.92389 10.1759L5.86548 9.11297ZM23.1294 16.5593L23.6006 17.2861L24.8593 16.4701L24.3881 15.7433L23.1294 16.5593ZM21.7962 24.9766L21.6987 25.0737L22.7571 26.1366L22.8546 26.0395L21.7962 24.9766ZM23.6006 17.2861C24.0795 18.0248 24.415 18.5433 24.6486 18.9738C24.8772 19.3949 24.9818 19.6856 25.0222 19.9567L26.5058 19.7359C26.4299 19.2258 26.2401 18.7614 25.967 18.2582C25.699 17.7644 25.3256 17.1894 24.8593 16.4701L23.6006 17.2861ZM22.8546 26.0395C23.5014 25.3954 24.2288 24.6712 24.8339 24.0128C25.1366 23.6834 25.417 23.3614 25.6455 23.0671C25.8649 22.7845 26.0721 22.4827 26.1903 22.2L24.8063 21.6215C24.7677 21.7137 24.6624 21.8873 24.4606 22.1473C24.2679 22.3955 24.0183 22.6835 23.7294 22.9979C23.1512 23.6271 22.4489 24.3267 21.7962 24.9766L22.8546 26.0395ZM25.0222 19.9567C25.104 20.5063 25.0315 21.0827 24.8063 21.6215L26.1903 22.2C26.5177 21.4164 26.6291 20.5641 26.5058 19.7359L25.0222 19.9567ZM19.4141 21.7495L18.8075 21.2184L17.8193 22.3468L18.4258 22.878L19.4141 21.7495ZM21.6188 25.0668C21.3688 24.4403 21.222 24.0691 21.0296 23.7188L19.7148 24.4408C19.8529 24.6922 19.9627 24.9638 20.2257 25.6229L21.6188 25.0668ZM18.3907 22.8452C18.8943 23.3466 19.1014 23.5547 19.2787 23.7806L20.4588 22.8546C20.212 22.5401 19.9279 22.259 19.4492 21.7823L18.3907 22.8452ZM21.0296 23.7188C20.8632 23.4157 20.6723 23.1267 20.4588 22.8546L19.2787 23.7806C19.4419 23.9885 19.5877 24.2093 19.7148 24.4408L21.0296 23.7188ZM23.2284 10.8596C22.6412 11.4443 21.6878 11.4443 21.1006 10.8596L20.0422 11.9225C21.2147 13.09 23.1143 13.09 24.2868 11.9225L23.2284 10.8596ZM21.1006 10.8596C20.5152 10.2766 20.5152 9.33272 21.1006 8.74974L20.0422 7.68685C18.868 8.85612 18.868 10.7532 20.0422 11.9225L21.1006 10.8596ZM21.1006 8.74974C21.6878 8.16502 22.6412 8.16502 23.2284 8.74975L24.2868 7.68685C23.1143 6.51932 21.2147 6.51932 20.0422 7.68685L21.1006 8.74974ZM23.2284 8.74975C23.8138 9.33272 23.8138 10.2766 23.2284 10.8596L24.2868 11.9225C25.461 10.7532 25.461 8.85612 24.2868 7.68685L23.2284 8.74975ZM21.6987 25.0737C21.6912 25.0812 21.6853 25.0839 21.6795 25.0856C21.6719 25.0877 21.6611 25.0886 21.6489 25.0862C21.6367 25.0837 21.6288 25.0791 21.6252 25.0762C21.6231 25.0745 21.6213 25.0729 21.6188 25.0668L20.2257 25.6229C20.6387 26.6577 21.9821 26.9084 22.7571 26.1366L21.6987 25.0737ZM20.0422 18.7914C19.4502 19.3809 19.0005 19.8281 18.6131 20.1623C18.2244 20.4976 17.952 20.6706 17.7283 20.7529L18.2462 22.1607C18.7222 21.9855 19.1568 21.6742 19.5928 21.2981C20.03 20.921 20.5226 20.4299 21.1006 19.8543L20.0422 18.7914ZM17.7283 20.7529C17.6084 20.797 17.4986 20.8163 17.3853 20.8163V22.3163C17.6843 22.3163 17.9691 22.2626 18.2462 22.1607L17.7283 20.7529ZM18.8434 21.2519L18.5172 20.9261L17.4572 21.9874L17.7834 22.3132L18.8434 21.2519ZM12.0768 10.8596C11.5127 11.4214 11.0297 11.9017 10.6555 12.3283C10.2826 12.7533 9.97149 13.1752 9.78725 13.6328L11.1787 14.193C11.2685 13.97 11.4482 13.6992 11.7831 13.3175C12.1165 12.9375 12.5581 12.4972 13.1353 11.9225L12.0768 10.8596ZM9.78725 13.6328C9.66734 13.9306 9.60309 14.2381 9.60309 14.5638H11.1031C11.1031 14.4432 11.1254 14.3253 11.1787 14.193L9.78725 13.6328ZM9.74853 14.2394L9.95297 14.4436L11.013 13.3823L10.8085 13.1781L9.74853 14.2394ZM6.8676 16.6507L4.61195 18.9036L5.67196 19.9649L7.92762 17.712L6.8676 16.6507ZM3.62137 17.9168L3.82643 17.712L2.76642 16.6507L2.56136 16.8555L3.62137 17.9168ZM3.62137 18.9036C3.34844 18.631 3.34844 18.1894 3.62137 17.9168L2.56136 16.8555C1.70178 17.714 1.70178 19.1064 2.56136 19.9649L3.62137 18.9036ZM4.61195 18.9036C4.33851 19.1767 3.89481 19.1767 3.62137 18.9036L2.56136 19.9649C3.42043 20.823 4.81289 20.823 5.67196 19.9649L4.61195 18.9036ZM14.2376 24.0768L11.9819 26.3298L13.0419 27.3911L15.2976 25.1381L14.2376 24.0768ZM15.0925 29.4392L15.2976 29.2343L14.2376 28.173L14.0325 28.3779L15.0925 29.4392ZM11.9819 29.4392C12.841 30.2972 14.2335 30.2972 15.0925 29.4392L14.0325 28.3779C13.7591 28.651 13.3154 28.651 13.0419 28.3779L11.9819 29.4392ZM11.9819 26.3298C11.1224 27.1883 11.1224 28.5806 11.9819 29.4392L13.0419 28.3779C12.769 28.1053 12.769 27.6637 13.0419 27.3911L11.9819 26.3298ZM12.9396 21.6763L10.1363 24.4795L11.197 25.5402L14.0002 22.7369L12.9396 21.6763ZM9.23863 17.9798L6.41609 20.8024L7.47675 21.863L10.2993 19.0405L9.23863 17.9798ZM8.72365 22.1903L6.44422 24.4195L7.49301 25.4919L9.77244 23.2627L8.72365 22.1903Z" fill="#6D8CAD"/>
</svg>
