<svg width="64" height="64" viewBox="0 0 64 64" fill="none" xmlns="http://www.w3.org/2000/svg">
<path d="M37.3333 7.33399C42.4182 7.33399 46.0306 7.33823 48.7711 7.70668C51.454 8.06738 52.9997 8.74384 54.1283 9.8724C55.4273 11.1714 55.9927 12.1784 56.3059 13.9736C56.659 15.9969 56.6667 18.8831 56.6667 24.0007C56.6667 25.1052 57.5621 26.0007 58.6667 26.0007C59.7712 26.0007 60.6667 25.1052 60.6667 24.0007L60.6667 23.7438C60.6668 18.946 60.6669 15.6959 60.2464 13.286C59.7786 10.6051 58.7818 8.86913 56.9567 7.04397C54.961 5.04833 52.4305 4.16269 49.3041 3.74235C46.2662 3.33391 42.3845 3.33394 37.4838 3.33399H37.3333C36.2288 3.33399 35.3333 4.22942 35.3333 5.33399C35.3333 6.43856 36.2288 7.33399 37.3333 7.33399Z" fill="#11337A"/>
<path d="M5.33333 38.0007C6.4379 38.0007 7.33333 38.8961 7.33333 40.0007C7.33333 45.1182 7.34101 48.0044 7.69408 50.0278C8.00732 51.8229 8.57271 52.8299 9.87174 54.1289C11.0003 55.2575 12.546 55.9339 15.2289 56.2946C17.9694 56.6631 21.5818 56.6673 26.6667 56.6673C27.7712 56.6673 28.6667 57.5628 28.6667 58.6673C28.6667 59.7719 27.7712 60.6673 26.6667 60.6673H26.5162C21.6155 60.6674 17.7338 60.6674 14.6959 60.259C11.5695 59.8386 9.03894 58.953 7.04331 56.9573C5.21814 55.1322 4.22143 53.3962 3.75362 50.7153C3.33311 48.3055 3.33319 45.0554 3.33332 40.2576L3.33333 40.0007C3.33333 38.8961 4.22876 38.0007 5.33333 38.0007Z" fill="#11337A"/>
<path d="M58.6667 38.0007C59.7712 38.0007 60.6667 38.8961 60.6667 40.0007L60.6667 40.2575C60.6668 45.0553 60.6669 48.3054 60.2464 50.7153C59.7786 53.3962 58.7818 55.1322 56.9567 56.9573C54.961 58.953 52.4305 59.8386 49.3041 60.259C46.2662 60.6674 42.3845 60.6674 37.4838 60.6673H37.3333C36.2288 60.6673 35.3333 59.7719 35.3333 58.6673C35.3333 57.5628 36.2288 56.6673 37.3333 56.6673C42.4182 56.6673 46.0306 56.6631 48.7711 56.2946C51.454 55.9339 52.9997 55.2575 54.1283 54.1289C55.4273 52.8299 55.9927 51.8229 56.3059 50.0278C56.659 48.0044 56.6667 45.1182 56.6667 40.0007C56.6667 38.8961 57.5621 38.0007 58.6667 38.0007Z" fill="#11337A"/>
<path d="M26.5162 3.33399H26.6667C27.7712 3.33399 28.6667 4.22942 28.6667 5.33399C28.6667 6.43856 27.7712 7.33399 26.6667 7.33399C21.5818 7.33399 17.9694 7.33823 15.2289 7.70668C12.546 8.06738 11.0003 8.74384 9.87174 9.8724C8.57271 11.1714 8.00733 12.1784 7.69408 13.9736C7.34101 15.9969 7.33333 18.8831 7.33333 24.0007C7.33333 25.1052 6.4379 26.0007 5.33333 26.0007C4.22876 26.0007 3.33333 25.1052 3.33333 24.0007L3.33332 23.7438C3.33319 18.9461 3.33311 15.6958 3.75362 13.286C4.22143 10.6051 5.21814 8.86913 7.04331 7.04397C9.03894 5.04833 11.5695 4.16269 14.6959 3.74235C17.7338 3.33391 21.6155 3.33394 26.5162 3.33399Z" fill="#11337A"/>
<path d="M5.33333 30.0007C4.22876 30.0007 3.33333 30.8961 3.33333 32.0007C3.33333 33.1052 4.22876 34.0007 5.33333 34.0007H58.6667C59.7712 34.0007 60.6667 33.1052 60.6667 32.0007C60.6667 30.8961 59.7712 30.0007 58.6667 30.0007H5.33333Z" fill="#11337A"/>
</svg>
