<svg width="28" height="28" viewBox="0 0 28 28" fill="none" xmlns="http://www.w3.org/2000/svg">
<path fill-rule="evenodd" clip-rule="evenodd" d="M11.6879 0.195312C5.34119 0.195312 0.196198 5.34031 0.196198 11.687C0.196198 18.0337 5.34119 23.1786 11.6879 23.1786C14.504 23.1786 17.0837 22.1655 19.0822 20.4841L26.1109 27.5129C26.4982 27.9001 27.1261 27.9001 27.5134 27.5129C27.9006 27.1256 27.9006 26.4977 27.5134 26.1104L20.4846 19.0817C22.1663 17.0832 23.1795 14.5033 23.1795 11.687C23.1795 5.34031 18.0345 0.195312 11.6879 0.195312ZM2.17953 11.687C2.17953 6.43567 6.43656 2.17865 11.6879 2.17865C16.9392 2.17865 21.1962 6.43567 21.1962 11.687C21.1962 16.9383 16.9392 21.1953 11.6879 21.1953C6.43656 21.1953 2.17953 16.9383 2.17953 11.687Z" fill="#6D8CAD"/>
</svg>
