<svg width="20" height="20" viewBox="0 0 20 20" fill="none" xmlns="http://www.w3.org/2000/svg">
<path fill-rule="evenodd" clip-rule="evenodd" d="M8.34847 0.140625C3.81513 0.140625 0.140137 3.81562 0.140137 8.34896C0.140137 12.8823 3.81513 16.5573 8.34847 16.5573C10.36 16.5573 12.2027 15.8336 13.6301 14.6326L18.6507 19.6532C18.9273 19.9298 19.3758 19.9298 19.6524 19.6532C19.929 19.3765 19.929 18.928 19.6524 18.6514L14.6319 13.6309C15.8331 12.2034 16.5568 10.3606 16.5568 8.34896C16.5568 3.81562 12.8818 0.140625 8.34847 0.140625ZM1.5568 8.34896C1.5568 4.59802 4.59754 1.55729 8.34847 1.55729C12.0994 1.55729 15.1401 4.59802 15.1401 8.34896C15.1401 12.0999 12.0994 15.1406 8.34847 15.1406C4.59754 15.1406 1.5568 12.0999 1.5568 8.34896Z" fill="#6D8CAD"/>
</svg>
