<svg width="64" height="64" viewBox="0 0 64 64" fill="none" xmlns="http://www.w3.org/2000/svg">
<path fill-rule="evenodd" clip-rule="evenodd" d="M42 16C42 10.4772 37.5228 6 32 6C26.4771 6 22 10.4772 22 16C22 21.5228 26.4771 26 32 26C37.5228 26 42 21.5228 42 16ZM32 10C35.3137 10 38 12.6863 38 16C38 19.3137 35.3137 22 32 22C28.6863 22 26 19.3137 26 16C26 12.6863 28.6863 10 32 10Z" fill="#11337A"/>
<path fill-rule="evenodd" clip-rule="evenodd" d="M24.6667 48C24.6667 42.4772 20.1895 38 14.6667 38C9.14381 38 4.66666 42.4771 4.66666 48C4.66666 53.5229 9.14381 58 14.6667 58C20.1895 58 24.6667 53.5229 24.6667 48ZM14.6667 42C17.9804 42 20.6667 44.6863 20.6667 48C20.6667 51.3137 17.9804 54 14.6667 54C11.3529 54 8.66666 51.3137 8.66666 48C8.66666 44.6863 11.3529 42 14.6667 42Z" fill="#11337A"/>
<path fill-rule="evenodd" clip-rule="evenodd" d="M49.3333 38C54.8562 38 59.3333 42.4772 59.3333 48C59.3333 53.5229 54.8562 58 49.3333 58C43.8105 58 39.3333 53.5229 39.3333 48C39.3333 42.4771 43.8105 38 49.3333 38ZM55.3333 48C55.3333 44.6863 52.647 42 49.3333 42C46.0196 42 43.3333 44.6863 43.3333 48C43.3333 51.3137 46.0196 54 49.3333 54C52.647 54 55.3333 51.3137 55.3333 48Z" fill="#11337A"/>
<path d="M19.2125 20.1662C20.0406 19.4352 20.1194 18.1714 19.3885 17.3432C18.6576 16.5151 17.3937 16.4363 16.5655 17.1672C11.7247 21.4398 8.66666 27.6974 8.66666 34.6667C8.66666 35.7713 9.56209 36.6667 10.6667 36.6667C11.7712 36.6667 12.6667 35.7713 12.6667 34.6667C12.6667 28.8926 15.1954 23.7116 19.2125 20.1662Z" fill="#11337A"/>
<path d="M47.4344 17.1672C46.6063 16.4363 45.3424 16.5151 44.6115 17.3432C43.8806 18.1714 43.9594 19.4352 44.7875 20.1662C48.8046 23.7116 51.3333 28.8926 51.3333 34.6667C51.3333 35.7713 52.2288 36.6667 53.3333 36.6667C54.4379 36.6667 55.3333 35.7713 55.3333 34.6667C55.3333 27.6974 52.2753 21.4398 47.4344 17.1672Z" fill="#11337A"/>
<path d="M27.1652 53.3911C26.0955 53.1158 25.0051 53.7598 24.7298 54.8295C24.4545 55.8992 25.0984 56.9895 26.1681 57.2649C28.0343 57.7452 29.9888 58.0001 32 58.0001C34.0112 58.0001 35.9657 57.7452 37.8318 57.2649C38.9015 56.9895 39.5455 55.8992 39.2702 54.8295C38.9949 53.7598 37.9045 53.1158 36.8348 53.3911C35.2917 53.7883 33.672 54.0001 32 54.0001C30.328 54.0001 28.7083 53.7883 27.1652 53.3911Z" fill="#11337A"/>
</svg>
