<svg width="16" height="16" viewBox="0 0 16 16" fill="none" xmlns="http://www.w3.org/2000/svg">
<path fill-rule="evenodd" clip-rule="evenodd" d="M15.1667 4.66602C15.1667 4.94216 14.9429 5.16602 14.6667 5.16602L1.33341 5.16602C1.05727 5.16602 0.833414 4.94216 0.833414 4.66602C0.833414 4.38987 1.05727 4.16602 1.33341 4.16602L14.6667 4.16602C14.9429 4.16602 15.1667 4.38987 15.1667 4.66602Z" fill="#6D8CAD"/>
<path fill-rule="evenodd" clip-rule="evenodd" d="M13.1667 8C13.1667 8.27614 12.9429 8.5 12.6667 8.5L3.33341 8.5C3.05727 8.5 2.83341 8.27614 2.83341 8C2.83341 7.72386 3.05727 7.5 3.33341 7.5L12.6667 7.5C12.9429 7.5 13.1667 7.72386 13.1667 8Z" fill="#6D8CAD"/>
<path fill-rule="evenodd" clip-rule="evenodd" d="M11.1667 11.334C11.1667 11.6101 10.9429 11.834 10.6667 11.834H5.33341C5.05727 11.834 4.83341 11.6101 4.83341 11.334C4.83341 11.0578 5.05727 10.834 5.33341 10.834H10.6667C10.9429 10.834 11.1667 11.0578 11.1667 11.334Z" fill="#6D8CAD"/>
</svg>
