<svg width="32" height="32" viewBox="0 0 32 32" fill="none" xmlns="http://www.w3.org/2000/svg">
<path d="M15.72 15.8407C15 15.8407 14.2667 15.7073 13.6933 15.454L5.82667 11.9607C3.82667 11.0673 3.53333 9.86732 3.53333 9.21398C3.53333 8.56065 3.82667 7.36065 5.82667 6.46732L13.6933 2.97398C14.8533 2.45398 16.6 2.45398 17.76 2.97398L25.64 6.46732C27.6267 7.34732 27.9333 8.56065 27.9333 9.21398C27.9333 9.86732 27.64 11.0673 25.64 11.9607L17.76 15.454C17.1733 15.7207 16.4533 15.8407 15.72 15.8407ZM15.72 4.58732C15.2667 4.58732 14.8267 4.65398 14.5067 4.80065L6.64 8.29398C5.82667 8.66732 5.53333 9.04065 5.53333 9.21398C5.53333 9.38732 5.82667 9.77398 6.62667 10.134L14.4933 13.6273C15.1333 13.9073 16.2933 13.9073 16.9333 13.6273L24.8133 10.134C25.6267 9.77398 25.92 9.38732 25.92 9.21398C25.92 9.04065 25.6267 8.65398 24.8133 8.29398L16.9467 4.80065C16.6267 4.66732 16.1733 4.58732 15.72 4.58732Z" fill="#6D8CAD"/>
<path d="M16 22.788C15.4933 22.788 14.9867 22.6813 14.5067 22.468L5.45333 18.4413C4.08 17.8413 3 16.1746 3 14.668C3 14.1213 3.45333 13.668 4 13.668C4.54667 13.668 5 14.1213 5 14.668C5 15.4013 5.6 16.3213 6.26667 16.628L15.32 20.6546C15.7467 20.8413 16.24 20.8413 16.68 20.6546L25.7333 16.628C26.4 16.3346 27 15.4013 27 14.668C27 14.1213 27.4533 13.668 28 13.668C28.5467 13.668 29 14.1213 29 14.668C29 16.1746 27.92 17.8413 26.5467 18.4546L17.4933 22.4813C17.0133 22.6813 16.5067 22.788 16 22.788Z" fill="#6D8CAD"/>
<path d="M16 29.4536C15.4933 29.4536 14.9867 29.347 14.5067 29.1336L5.45333 25.107C3.96 24.4403 3 22.9603 3 21.3203C3 20.7736 3.45333 20.3203 4 20.3203C4.54667 20.3203 5 20.787 5 21.3336C5 22.1736 5.49333 22.947 6.26667 23.2936L15.32 27.3203C15.7467 27.507 16.24 27.507 16.68 27.3203L25.7333 23.2936C26.5067 22.947 27 22.187 27 21.3336C27 20.787 27.4533 20.3336 28 20.3336C28.5467 20.3336 29 20.787 29 21.3336C29 22.9736 28.04 24.4536 26.5467 25.1203L17.4933 29.147C17.0133 29.347 16.5067 29.4536 16 29.4536Z" fill="#6D8CAD"/>
</svg>
