<svg width="64" height="64" viewBox="0 0 64 64" fill="none" xmlns="http://www.w3.org/2000/svg">
<path fill-rule="evenodd" clip-rule="evenodd" d="M32 3.33203C33.1046 3.33203 34 4.22746 34 5.33203V6.00252C34.2966 6.007 34.5495 6.01669 34.7856 6.03757C39.6127 6.46442 43.439 10.2908 43.8659 15.1178C43.9049 15.559 43.9049 16.0589 43.9048 16.793L43.9048 20.0547C43.9048 30.3728 36.054 38.8572 26 39.8603V45.3322C26 51.5914 31.0741 56.6655 37.3333 56.6655H39.6863C43.02 56.6655 45.9326 54.8479 47.4819 52.1475C43.5205 50.8176 40.6667 47.0747 40.6667 42.6654C40.6667 37.1425 45.1438 32.6654 50.6667 32.6654C56.1895 32.6654 60.6667 37.1425 60.6667 42.6654C60.6667 47.84 56.7363 52.0966 51.698 52.6128C49.7579 57.3369 45.1129 60.6655 39.6863 60.6655H37.3333C28.865 60.6655 22 53.8006 22 45.3322V39.864C11.5245 38.858 3.33333 30.032 3.33333 19.2928L3.33332 16.7931C3.33324 16.0589 3.33318 15.5591 3.3722 15.1178C3.79905 10.2908 7.62542 6.46442 12.4525 6.03757C12.8676 6.00086 13.3347 5.99874 14 5.99868V5.33203C14 4.22746 14.8954 3.33203 16 3.33203C17.1046 3.33203 18 4.22746 18 5.33203V10.6654C18 11.7699 17.1046 12.6654 16 12.6654C14.8954 12.6654 14 11.7699 14 10.6654V9.99876C13.2976 9.99923 13.0238 10.0027 12.8048 10.022C9.90858 10.2781 7.61276 12.574 7.35665 15.4702C7.33529 15.7118 7.33333 16.0201 7.33333 16.8971V19.2928C7.33333 28.4976 14.7952 35.9595 24 35.9595C32.784 35.9595 39.9048 28.8387 39.9048 20.0547V16.8971C39.9048 16.0201 39.9028 15.7118 39.8814 15.4702C39.6253 12.574 37.3295 10.2781 34.4333 10.022C34.3204 10.012 34.1931 10.0063 34 10.003V10.6654C34 11.7699 33.1046 12.6654 32 12.6654C30.8954 12.6654 30 11.7699 30 10.6654V5.33203C30 4.22746 30.8954 3.33203 32 3.33203ZM44.6667 42.6654C44.6667 39.3517 47.353 36.6654 50.6667 36.6654C53.9804 36.6654 56.6667 39.3517 56.6667 42.6654C56.6667 45.9791 53.9804 48.6654 50.6667 48.6654C47.353 48.6654 44.6667 45.9791 44.6667 42.6654Z" fill="#11337A"/>
</svg>
