<svg width="64" height="64" viewBox="0 0 64 64" fill="none" xmlns="http://www.w3.org/2000/svg">
<path d="M32.0004 60.6669C30.2137 60.6669 28.4004 60.2135 26.8004 59.2802L10.9604 50.1336C7.76041 48.2669 5.76041 44.8269 5.76041 41.1202V22.8803C5.76041 19.1736 7.76041 15.7336 10.9604 13.867L26.8004 4.72031C30.0004 2.85365 33.9737 2.85365 37.2004 4.72031L53.0404 13.867C56.2404 15.7336 58.2404 19.1736 58.2404 22.8803V41.1202C58.2404 44.8269 56.2404 48.2669 53.0404 50.1336L37.2004 59.2802C35.6004 60.2135 33.7871 60.6669 32.0004 60.6669ZM32.0004 7.33359C30.9071 7.33359 29.7871 7.62695 28.8004 8.18695L12.9604 17.3336C10.9871 18.4803 9.76041 20.587 9.76041 22.8803V41.1202C9.76041 43.3869 10.9871 45.5203 12.9604 46.6669L28.8004 55.8136C30.7737 56.9602 33.2271 56.9602 35.2004 55.8136L51.0404 46.6669C53.0137 45.5203 54.2404 43.4135 54.2404 41.1202V22.8803C54.2404 20.6136 53.0137 18.4803 51.0404 17.3336L35.2004 8.18695C34.2137 7.62695 33.0937 7.33359 32.0004 7.33359Z" fill="#11337A"/>
<path d="M31.9998 31.3338C27.4665 31.3338 23.7865 27.6538 23.7865 23.1204C23.7865 18.5871 27.4665 14.9072 31.9998 14.9072C36.5331 14.9072 40.2131 18.5871 40.2131 23.1204C40.2131 27.6538 36.5331 31.3338 31.9998 31.3338ZM31.9998 18.9072C29.6798 18.9072 27.7865 20.8004 27.7865 23.1204C27.7865 25.4404 29.6798 27.3338 31.9998 27.3338C34.3198 27.3338 36.2131 25.4404 36.2131 23.1204C36.2131 20.8004 34.3198 18.9072 31.9998 18.9072Z" fill="#11337A"/>
<path d="M42.6667 46.4266C41.5733 46.4266 40.6667 45.5199 40.6667 44.4266C40.6667 40.7466 36.7733 37.7334 32 37.7334C27.2267 37.7334 23.3333 40.7466 23.3333 44.4266C23.3333 45.5199 22.4267 46.4266 21.3333 46.4266C20.24 46.4266 19.3333 45.5199 19.3333 44.4266C19.3333 38.5333 25.0133 33.7334 32 33.7334C38.9867 33.7334 44.6667 38.5333 44.6667 44.4266C44.6667 45.5199 43.76 46.4266 42.6667 46.4266Z" fill="#11337A"/>
</svg>
