<svg width="20" height="21" viewBox="0 0 20 21" fill="none" xmlns="http://www.w3.org/2000/svg">
<path fill-rule="evenodd" clip-rule="evenodd" d="M11.5831 4.99946C11.8271 4.75539 12.2229 4.75539 12.4669 4.99946L17.5253 10.0578C17.6425 10.175 17.7083 10.334 17.7083 10.4997C17.7083 10.6655 17.6425 10.8245 17.5253 10.9417L12.4669 16C12.2229 16.2441 11.8271 16.2441 11.5831 16C11.339 15.7559 11.339 15.3602 11.5831 15.1161L16.1994 10.4997L11.5831 5.88335C11.339 5.63927 11.339 5.24354 11.5831 4.99946Z" fill="white"/>
<path fill-rule="evenodd" clip-rule="evenodd" d="M2.29167 10.5C2.29167 10.1548 2.57149 9.875 2.91667 9.875H16.9417C17.2868 9.875 17.5667 10.1548 17.5667 10.5C17.5667 10.8452 17.2868 11.125 16.9417 11.125H2.91667C2.57149 11.125 2.29167 10.8452 2.29167 10.5Z" fill="white"/>
</svg>
